<svg xmlns="http://www.w3.org/2000/svg" viewBox="0 0 67.41 65.08">
    <defs>
        <style>
        .acc-sq-cls-1 {
            fill: #2BC7F7;
        }
        </style>
    </defs>
    <title>Ресурс 8accelerator_squarex</title>
    <g id="Слой_2" data-name="Слой 2">
        <g id="Layer_1" data-name="Layer 1">
            <path class="acc-sq-cls-1" d="M26.48,28.15H1.66A1.66,1.66,0,0,1,0,26.48V1.66A1.66,1.66,0,0,1,1.66,0H26.48a1.66,1.66,0,0,1,1.67,1.66V26.48A1.67,1.67,0,0,1,26.48,28.15ZM3.33,24.82H24.82V3.33H3.33Z" />
            <path class="acc-sq-cls-1" d="M65.74,28.15H40.93a1.67,1.67,0,0,1-1.67-1.67V1.66A1.66,1.66,0,0,1,40.93,0H65.74a1.66,1.66,0,0,1,1.67,1.66V26.48A1.67,1.67,0,0,1,65.74,28.15ZM42.59,24.82H64.08V3.33H42.59Z" />
            <path class="acc-sq-cls-1" d="M26.48,65.08H1.66A1.66,1.66,0,0,1,0,63.41V38.6a1.67,1.67,0,0,1,1.66-1.67H26.48a1.67,1.67,0,0,1,1.67,1.67V63.41A1.67,1.67,0,0,1,26.48,65.08ZM3.33,61.75H24.82V40.26H3.33Z" />
            <path class="acc-sq-cls-1" d="M65.74,65.08H40.93a1.67,1.67,0,0,1-1.67-1.67V38.6a1.67,1.67,0,0,1,1.67-1.67H65.74a1.67,1.67,0,0,1,1.67,1.67V63.41A1.67,1.67,0,0,1,65.74,65.08ZM42.59,61.75H64.08V40.26H42.59Z" />
            <path class="acc-sq-cls-1" d="M14.09,18.47a4.39,4.39,0,1,1,4.38-4.38A4.39,4.39,0,0,1,14.09,18.47Zm0-5.44a1.06,1.06,0,1,0,1.05,1.06A1.06,1.06,0,0,0,14.09,13Z" />
            <path class="acc-sq-cls-1" d="M53.35,18.47a4.39,4.39,0,1,1,4.38-4.38A4.39,4.39,0,0,1,53.35,18.47Zm0-5.44a1.06,1.06,0,1,0,1,1.06A1.06,1.06,0,0,0,53.35,13Z" />
            <path class="acc-sq-cls-1" d="M53.35,55.37A4.38,4.38,0,1,1,57.73,51,4.38,4.38,0,0,1,53.35,55.37Zm0-5.43a1.06,1.06,0,1,0,1,1.05A1,1,0,0,0,53.35,49.94Z" />
            <path class="acc-sq-cls-1" d="M14.09,55.37A4.38,4.38,0,1,1,18.47,51,4.39,4.39,0,0,1,14.09,55.37Zm0-5.43A1.06,1.06,0,1,0,15.14,51,1,1,0,0,0,14.09,49.94Z" />
            <path class="acc-sq-cls-1" d="M53.35,52.66H14.09A1.67,1.67,0,0,1,12.42,51V14.09a1.67,1.67,0,0,1,1.67-1.67H53.35A1.67,1.67,0,0,1,55,14.09V51A1.67,1.67,0,0,1,53.35,52.66Zm-37.6-3.33H51.68V15.75H15.75Z" />
        </g>
    </g>
</svg>