<svg xmlns="http://www.w3.org/2000/svg" viewBox="0 0 69.67 65.38">
    <defs>
        <style>
        .acc-cls-1 {
            fill: #2BC7F7;
        }

        .cls-2 {
            fill: #fff;
        }
        </style>
    </defs>
    <title>Ресурс 7accelerator_accessing</title>
    <g id="Слой_2" data-name="Слой 2">
        <g id="Layer_1" data-name="Layer 1">
            <path class="acc-cls-1" d="M17.19,18.53h4.68A5.08,5.08,0,0,0,27,13.45V13a5.09,5.09,0,0,0-5.08-5.07H17.19A5.08,5.08,0,0,0,12.11,13v.44A5.08,5.08,0,0,0,17.19,18.53ZM15.68,13a1.51,1.51,0,0,1,1.51-1.51h4.68A1.52,1.52,0,0,1,23.38,13h0v.43A1.52,1.52,0,0,1,21.87,15H17.19a1.51,1.51,0,0,1-1.51-1.52Z" />
            <path class="cls-2" d="M55.81,36.7a4.07,4.07,0,0,0,1.55-1.53A4.28,4.28,0,0,0,57.89,33a4.4,4.4,0,0,0-1.72-3.76A7.24,7.24,0,0,0,52.42,28V25.88a.12.12,0,0,0-.12-.13H50.17a.13.13,0,0,0-.13.13V28H48.72v-2.1a.13.13,0,0,0-.13-.13H46.46a.12.12,0,0,0-.12.13V28H44a2.12,2.12,0,0,0-1.47.42A1.67,1.67,0,0,0,42,29.72,1.74,1.74,0,0,0,42.46,31a1.63,1.63,0,0,0,1.23.44H44V43.12h-.27a1.63,1.63,0,0,0-1.23.43A1.67,1.67,0,0,0,42,44.81a1.72,1.72,0,0,0,.45,1.33,2.18,2.18,0,0,0,1.48.4h2.38v2a.12.12,0,0,0,.12.13h2.13a.13.13,0,0,0,.13-.13v-2H50v2a.13.13,0,0,0,.13.13H52.3a.12.12,0,0,0,.12-.13v-2a12.64,12.64,0,0,0,2.35-.19,5.61,5.61,0,0,0,3.65-2.56,5,5,0,0,0,.69-2.6,4.6,4.6,0,0,0-.8-2.78A5.29,5.29,0,0,0,55.81,36.7Zm-8-5.35h2.6a4.35,4.35,0,0,1,2.31.46,1.91,1.91,0,0,1-.08,3,5.85,5.85,0,0,1-2.71.45H47.82Zm5.86,11.31a7.94,7.94,0,0,1-3.51.55H47.82V38.44h2.51a7.5,7.5,0,0,1,3.39.54,2,2,0,0,1,1,1.85A1.9,1.9,0,0,1,53.68,42.66Z" />
            <path class="acc-cls-1" d="M32.32,30.83H25.71a1.78,1.78,0,0,0-1.78,1.78V56.77l-4.4,4.33-4.4-4.33V55.63l3.67-3.52a1.78,1.78,0,0,0,.05-2.52l-.05-.06L16,46.77,18.8,44a1.78,1.78,0,0,0,.05-2.52s0,0-.05-.05l-3.67-3.51V32.61a1.78,1.78,0,0,0-1.78-1.78H6.73a3.18,3.18,0,0,1-3.17-3.17V6.73A3.18,3.18,0,0,1,6.73,3.56H32.32a3.18,3.18,0,0,1,3.17,3.17V25.52A19.36,19.36,0,0,1,39.07,22V6.73A6.73,6.73,0,0,0,32.34,0H6.73A6.74,6.74,0,0,0,0,6.73V27.66a6.73,6.73,0,0,0,6.73,6.73h4.83v4.28A1.79,1.79,0,0,0,12.11,40L15,42.71l-2.85,2.8a1.78,1.78,0,0,0,0,2.52l0,.06L15,50.85l-2.85,2.77a1.75,1.75,0,0,0-.55,1.28v2.63a1.8,1.8,0,0,0,.55,1.24l6.19,6.1a1.79,1.79,0,0,0,2.5,0L27,58.77a1.77,1.77,0,0,0,.54-1.26V34.39h4.16a18.7,18.7,0,0,1,.91-3.59Z" />
            <path class="acc-cls-1" d="M53.72,39a7.5,7.5,0,0,0-3.39-.54H47.82v4.77h2.35a7.94,7.94,0,0,0,3.51-.55,1.9,1.9,0,0,0,1-1.83A2,2,0,0,0,53.72,39Z" />
            <path class="acc-cls-1" d="M52.65,34.84a1.91,1.91,0,0,0,.08-3,4.35,4.35,0,0,0-2.31-.46h-2.6v3.94h2.12A5.85,5.85,0,0,0,52.65,34.84Z" />
            <path class="acc-cls-1" d="M50.57,18.13A19.05,19.05,0,0,0,39.07,22v5.68a6.73,6.73,0,0,1-6.73,6.73h-.66a20.53,20.53,0,0,0-.21,2.84,19.1,19.1,0,1,0,19.1-19.1Zm7.85,25.66a5.61,5.61,0,0,1-3.65,2.56,12.64,12.64,0,0,1-2.35.19v2a.12.12,0,0,1-.12.13H50.17a.13.13,0,0,1-.13-.13v-2H48.72v2a.13.13,0,0,1-.13.13H46.46a.12.12,0,0,1-.12-.13v-2H44a2.18,2.18,0,0,1-1.48-.4A1.72,1.72,0,0,1,42,44.81a1.67,1.67,0,0,1,.43-1.26,1.63,1.63,0,0,1,1.23-.43H44V31.44h-.27A1.63,1.63,0,0,1,42.46,31,1.74,1.74,0,0,1,42,29.72a1.67,1.67,0,0,1,.46-1.32A2.12,2.12,0,0,1,44,28h2.38v-2.1a.12.12,0,0,1,.12-.13h2.13a.13.13,0,0,1,.13.13V28H50v-2.1a.13.13,0,0,1,.13-.13H52.3a.12.12,0,0,1,.12.13V28a7.24,7.24,0,0,1,3.75,1.22A4.4,4.4,0,0,1,57.89,33a4.28,4.28,0,0,1-.53,2.15,4.07,4.07,0,0,1-1.55,1.53,5.29,5.29,0,0,1,2.5,1.71,4.6,4.6,0,0,1,.8,2.78A5,5,0,0,1,58.42,43.79Z" />
            <path class="acc-cls-1" d="M39.07,27.66V22a19.36,19.36,0,0,0-3.58,3.54v2.14a3.16,3.16,0,0,1-2.9,3.14,18.7,18.7,0,0,0-.91,3.59h.66A6.73,6.73,0,0,0,39.07,27.66Z" />
        </g>
    </g>
</svg>