<svg xmlns="http://www.w3.org/2000/svg" viewBox="0 0 44.94 52.13"><defs><style>.cls-1{fill:#00d163;}</style></defs><title>Ресурс 23advantages_safety</title><g id="Слой_2" data-name="Слой 2"><g id="Layer_1" data-name="Layer 1"><path class="cls-1" d="M25.64,49.73A20.82,20.82,0,0,0,29,48.87l.16,0,.89-.36c11.26-5.77,12.56-14.72,12.56-21v-23l-17-2.11V0l19.3,2.36V27.5c0,10.76-4.5,18.29-13.77,23a12.39,12.39,0,0,1-1.38.54,18,18,0,0,1-4.15,1.06Z"/><path class="cls-1" d="M19.2,52.07a19.57,19.57,0,0,1-4-1,7.28,7.28,0,0,1-1.41-.55C4.5,45.79,0,38.26,0,27.5V2.36L19.25,0V2.42L2.38,4.48v23c0,13.08,7.16,18.21,12.54,20.93a3.38,3.38,0,0,0,.69.29l.22.08.22.07a13.65,13.65,0,0,0,3.15.86Z"/><path class="cls-1" d="M22.19,7.08,6.44,9V27.28c0,10.32,5.66,14.37,9.87,16.54a2.69,2.69,0,0,0,.72.27l.17.06a15.17,15.17,0,0,0,5.05.89,13.61,13.61,0,0,0,5.05-.89l.17-.06a3.52,3.52,0,0,0,.72-.27C37,39.32,38,32.22,38,27.28V9Zm8.35,16.27-9.06,9.08a.67.67,0,0,1-.93,0l-6-6a.65.65,0,0,1,0-.93l2.22-2.22a.65.65,0,0,1,.93,0l3.3,3.3,6.39-6.39a.67.67,0,0,1,.93,0l2.22,2.22h0A.66.66,0,0,1,30.54,23.35Z"/></g></g></svg>