<svg xmlns="http://www.w3.org/2000/svg" viewBox="0 0 55 55"><defs><style>.cls-1{fill:#00d163;}</style></defs><title>Ресурс 21advantages_tokeniz</title><g id="Слой_2" data-name="Слой 2"><g id="Layer_1" data-name="Layer 1"><circle class="cls-1" cx="48.12" cy="48.12" r="6.87"/><path class="cls-1" d="M25.21,18.33a6.81,6.81,0,0,0-2.95.69l-9.2-9.2a6.81,6.81,0,0,0,.69-2.95,6.88,6.88,0,1,0-6.88,6.88,6.74,6.74,0,0,0,3-.69l9.2,9.2a6.81,6.81,0,0,0-.69,2.95,6.88,6.88,0,1,0,6.88-6.88Z"/><path class="cls-1" d="M48.12,18.33a6.88,6.88,0,0,0-6.87,6.88,6.73,6.73,0,0,0,.69,2.94L28.15,41.94a6.73,6.73,0,0,0-2.94-.69,6.92,6.92,0,1,0,6.19,3.93L45.18,31.4a6.87,6.87,0,1,0,2.94-13.07Z"/><path class="cls-1" d="M9.17,41.67V34.45a6.88,6.88,0,1,0-4.59,0v7.22a6.88,6.88,0,1,0,4.59,0Z"/><path class="cls-1" d="M48.12,0a6.85,6.85,0,0,0-6.45,4.58H35.15a6.88,6.88,0,1,0,0,4.59h6.52A6.86,6.86,0,1,0,48.12,0Z"/></g></g></svg>