<svg xmlns="http://www.w3.org/2000/svg" viewBox="0 0 45.95 57.64"><defs><style>.cls-1{fill:#00d163;}</style></defs><title>Ресурс 22advantages_smart</title><g id="Слой_2" data-name="Слой 2"><g id="Layer_1" data-name="Layer 1"><path class="cls-1" d="M42.08,37.2V14.45a1.32,1.32,0,0,0-.15-.59v0a1.19,1.19,0,0,0-.26-.33L28.53.38l-.05,0a1.16,1.16,0,0,0-.21-.16l-.1,0a1.24,1.24,0,0,0-.29-.1h0l-.23,0H4.38A4.38,4.38,0,0,0,0,4.38V49.12A4.39,4.39,0,0,0,4.38,53.5H25.27A11.73,11.73,0,1,0,42.08,37.2ZM28.9,4.37l8.8,8.8h-7a1.82,1.82,0,0,1-1.82-1.81ZM9.78,11.61H21a1.28,1.28,0,0,1,0,2.56H9.78a1.28,1.28,0,0,1,0-2.56Zm0,9H32.3a1.28,1.28,0,0,1,0,2.56H9.78a1.28,1.28,0,0,1,0-2.56Zm0,9.43H32.3a1.28,1.28,0,0,1,0,2.56H9.78a1.28,1.28,0,0,1,0-2.56Zm11,11.9h-11a1.28,1.28,0,1,1,0-2.56h11a1.28,1.28,0,0,1,0,2.56ZM34.21,55.08a9.18,9.18,0,1,1,9.18-9.18A9.19,9.19,0,0,1,34.21,55.08Z"/><path class="cls-1" d="M39.58,40.89a1.28,1.28,0,0,0-1.79.3L33,47.88l-3.08-3.07a1.28,1.28,0,0,0-1.81,1.81l4.15,4.14a1.23,1.23,0,0,0,.9.38h.11a1.26,1.26,0,0,0,.93-.54l5.67-7.92A1.29,1.29,0,0,0,39.58,40.89Z"/></g></g></svg>