<svg xmlns="http://www.w3.org/2000/svg" viewBox="0 0 65.72 67.96"><defs><style>.cls-1{fill:#00d163;}</style></defs><title>Ресурс 24advantages_decentralized</title><g id="Слой_2" data-name="Слой 2"><g id="Layer_1" data-name="Layer 1"><path class="cls-1" d="M46.51,66.32l16-9.25a6.87,6.87,0,0,0,3.2-5.55V33.07A3,3,0,0,0,61,30.35L56.46,33V26.11a6.89,6.89,0,0,0-3.21-5.55l-5-2.88L52,15.51c3.2-1.85,3.2-1.85,3.2-2.74s0-.88-3.2-2.73L36,.79a6.92,6.92,0,0,0-6.41,0L13.6,10c-3.2,1.85-3.2,1.85-3.2,2.73s0,.88,3.2,2.73l3.77,2.18-5,2.88a6.91,6.91,0,0,0-3.2,5.55V32.9L4.7,30.31a3.22,3.22,0,0,0-3.23-.17A3.21,3.21,0,0,0,0,33V51.49A6.89,6.89,0,0,0,3.2,57l16,9.23a3.21,3.21,0,0,0,3.24.16,3.18,3.18,0,0,0,1.47-2.88V58.2l5.71,3.31a6.92,6.92,0,0,0,6.41,0l5.75-3.32v5.73c0,3.32,0,3.33.71,3.77l.1.06C43.33,68.15,43.33,68.15,46.51,66.32ZM15.1,12.9l-.23-.13.23-.14,16-9.24a3.92,3.92,0,0,1,3.41,0l16,9.24.23.14-.23.14-5.28,3L36,10.61a6.9,6.9,0,0,0-6.4,0L20.37,16ZM13.88,23.16l6.49-3.74,9.23,5.33a6.87,6.87,0,0,0,6.4,0l9.26-5.34,6.49,3.75.22.15L32.8,34.36l-19.12-11C13.75,23.26,13.81,23.2,13.88,23.16Zm7,40.39c0,.09,0,.16,0,.21l-.2-.09-16-9.23A3.94,3.94,0,0,1,3,51.49V33c0-.09,0-.16,0-.21l.19.09,6,3.46V46a6.89,6.89,0,0,0,3.2,5.55l8.52,4.91Zm10.22-4.64L23.9,54.74V45.11a6.88,6.88,0,0,0-3.2-5.55l-8.52-4.93V26.11a1.23,1.23,0,0,1,0-.19L31.3,37V59Zm3.41,0-.23.11V37l19.14-11a1.1,1.1,0,0,1,0,.18v8.6L45,39.6a6.86,6.86,0,0,0-3.21,5.54v9.58Zm10.25-2.45,8.48-4.9A6.88,6.88,0,0,0,56.46,46V36.45L62.52,33l.19-.09a1.34,1.34,0,0,1,0,.21V51.52a4,4,0,0,1-1.7,3L45,63.72l-.23.14Z"/></g></g></svg>