<svg xmlns="http://www.w3.org/2000/svg" viewBox="0 0 174.66 175.31"><defs><style>.cls-1{fill:none;stroke:#fff;stroke-miterlimit:10;stroke-width:0.75px;}</style></defs><title>Ресурс 5footerlogo</title><g id="Слой_2" data-name="Слой 2"><g id="Layer_1" data-name="Layer 1"><path class="cls-1" d="M87.34.38h0a81.56,81.56,0,0,0-57.8,23.9h115.6A81.6,81.6,0,0,0,87.34.38Z"/><path class="cls-1" d="M87.34,174.94h0A81.6,81.6,0,0,0,145.14,151H29.54A81.57,81.57,0,0,0,87.34,174.94Z"/><path class="cls-1" d="M174.29,87.72h0a81.6,81.6,0,0,0-23.91-57.8v115.6A81.57,81.57,0,0,0,174.29,87.72Z"/><path class="cls-1" d="M.38,87.72h0a81.6,81.6,0,0,1,23.9-57.8v115.6A81.52,81.52,0,0,1,.38,87.72Z"/></g></g></svg>