<?xml version="1.0" encoding="utf-8"?>
<!-- Generator: Adobe Illustrator 22.1.0, SVG Export Plug-In . SVG Version: 6.00 Build 0)  -->
<svg version="1.1" id="Слой_1" xmlns="http://www.w3.org/2000/svg" xmlns:xlink="http://www.w3.org/1999/xlink" x="0px" y="0px"
	 viewBox="0 0 250 250" style="enable-background:new 0 0 250 250;" xml:space="preserve">
<style type="text/css">
	.st0-logo-sq-footer{fill:none;stroke:#fff;stroke-width:1;stroke-miterlimit:10;}
	.st1-logo-sq-footer{fill:none;stroke:#fff;stroke-width:1;stroke-miterlimit:10;}
	.st2-logo-sq-footer{fill:#fff;}
</style>
<g>
	<line class="st0-logo-sq-footer" x1="79.6" y1="124.2" x2="91.3" y2="105.3"/>
	<g>
		<polygon class="st1-logo-sq-footer" points="36.7,72 39.4,80.1 32.5,75.1 25.6,80.1 28.2,72 21.3,66.9 29.8,66.9 32.5,58.8 35.1,66.9 43.6,66.9 
					"/>
		<g>
			<circle class="st2-logo-sq-footer" cx="79.6" cy="124.3" r="1"/>
			<circle class="st2-logo-sq-footer" cx="168.3" cy="114.7" r="1"/>
			<g>
				<polygon class="st1-logo-sq-footer" points="23.2,123.9 25.8,132 18.9,127 12,132 14.6,123.9 7.7,118.8 16.2,118.8 18.9,110.7 21.5,118.8 
					30.1,118.8 				"/>
				<polygon class="st1-logo-sq-footer" points="129.3,19.7 131.9,27.8 125,22.8 118.1,27.8 120.7,19.7 113.8,14.6 122.4,14.6 125,6.5 127.6,14.6 
					136.2,14.6 				"/>
				<polygon class="st1-logo-sq-footer" points="75.8,32.8 78.5,41 71.6,35.9 64.7,41 67.3,32.8 60.4,27.8 68.9,27.8 71.6,19.7 74.2,27.8 
					82.8,27.8 				"/>
				<polygon class="st1-logo-sq-footer" points="36.7,178.8 39.4,186.9 32.5,181.9 25.6,186.9 28.2,178.8 21.3,173.8 29.8,173.8 32.5,165.7 
					35.1,173.8 43.6,173.8 				"/>
				<polygon class="st1-logo-sq-footer" points="75.8,217.9 78.5,226 71.6,221 64.7,226 67.3,217.9 60.4,212.9 68.9,212.9 71.6,204.8 74.2,212.9 
					82.8,212.9 				"/>
				<polygon class="st1-logo-sq-footer" points="129.3,233.4 131.9,241.5 125,236.5 118.1,241.5 120.7,233.4 113.8,228.3 122.4,228.3 125,220.2 
					127.6,228.3 136.2,228.3 				"/>
				<polygon class="st1-logo-sq-footer" points="182.7,217.9 185.3,226 178.4,221 171.5,226 174.2,217.9 167.3,212.9 175.8,212.9 178.4,204.8 
					181.1,212.9 189.6,212.9 				"/>
				<polygon class="st1-logo-sq-footer" points="221.8,178.8 224.4,186.9 217.5,181.9 210.6,186.9 213.3,178.8 206.4,173.8 214.9,173.8 
					217.5,165.7 220.2,173.8 228.7,173.8 				"/>
				<polygon class="st1-logo-sq-footer" points="236.1,126.5 238.8,134.6 231.9,129.6 225,134.6 227.6,126.5 220.7,121.5 229.2,121.5 231.9,113.4 
					234.5,121.5 243,121.5 				"/>
				<polygon class="st1-logo-sq-footer" points="221.8,72 224.4,80.1 217.5,75.1 210.6,80.1 213.3,72 206.4,66.9 214.9,66.9 217.5,58.8 220.2,66.9 
					228.7,66.9 				"/>
				<polygon class="st1-logo-sq-footer" points="182.7,32.8 185.3,41 178.4,35.9 171.5,41 174.2,32.8 167.3,27.8 175.8,27.8 178.4,19.7 181.1,27.8 
					189.6,27.8 				"/>
				<path class="st1-logo-sq-footer" d="M185.4,124L185.4,124c0,18-3.8,35-10.8,50.4c-6.2,13.8-14.9,26.3-25.5,36.8c-3,0.8-6.1,1.5-9.3,2
					c-4.8,0.8-9.8,1.2-14.8,1.2c-5.4,0-10.7-0.5-15.8-1.4c-3.2-0.6-6.4-1.3-9.5-2.2c-29.7-8.7-53.2-32.2-61.6-62
					c-0.6-2-1-3.9-1.5-5.9c-1.3-6.1-2-12.4-2-18.9c0-4.9,0.4-9.6,1.1-14.3c0.6-3.6,1.3-7.1,2.3-10.5c8.5-29.8,31.9-53.4,61.7-62
					c2.8-0.8,5.6-1.5,8.4-2c5.5-1,11.1-1.6,16.9-1.6c5.4,0,10.7,0.5,15.9,1.4c2.8,0.5,5.5,1.1,8.2,1.8c10.6,10.5,19.3,23,25.5,36.9
					C181.5,89,185.4,106,185.4,124z"/>
				<path class="st1-logo-sq-footer" d="M215.5,124c0,6-0.6,11.8-1.7,17.5c-0.5,2.4-1,4.8-1.7,7.1c-8.6,30.3-32.6,54.2-63,62.6
					c-3,0.8-6.1,1.5-9.3,2c-4.8,0.8-9.8,1.2-14.8,1.2c-5.4,0-10.7-0.5-15.8-1.4c-3.2-0.6-6.4-1.3-9.5-2.2
					c-10.6-10.6-19.2-23.1-25.3-36.9c-6.8-15.3-10.6-32.2-10.6-49.9v0c0-17.8,3.8-34.7,10.6-49.9c6.2-13.8,14.8-26.3,25.4-36.9
					c2.8-0.8,5.6-1.5,8.4-2c5.5-1,11.1-1.6,16.9-1.6c5.4,0,10.7,0.5,15.9,1.4c2.8,0.5,5.5,1.1,8.2,1.8c30.4,8.4,54.4,32.3,63,62.6
					c1.1,3.8,1.9,7.7,2.5,11.6C215.2,115.3,215.5,119.6,215.5,124z"/>
				<path class="st1-logo-sq-footer" d="M215.5,124c0,6-0.6,11.8-1.7,17.5c-0.5,2.4-1,4.8-1.7,7.1c-8.6,30.3-32.6,54.2-63,62.6
					c-3,0.8-6.1,1.5-9.3,2c-4.8,0.8-9.8,1.2-14.8,1.2c-5.4,0-10.7-0.5-15.8-1.4c-3.2-0.6-6.4-1.3-9.5-2.2
					c-29.7-8.7-53.2-32.2-61.6-62c-0.6-2-1-3.9-1.5-5.9c-1.3-6.1-2-12.4-2-18.9c0-4.9,0.4-9.6,1.1-14.3c0.6-3.6,1.3-7.1,2.3-10.5
					c10.4-10.4,22.7-19,36.3-25.1c15.4-7,32.6-10.9,50.6-10.9h0.1c17.7,0,34.4,3.7,49.6,10.4c14.1,6.2,26.8,15,37.5,25.7
					c1.1,3.8,1.9,7.7,2.5,11.6C215.2,115.3,215.5,119.6,215.5,124z"/>
				<path class="st1-logo-sq-footer" d="M215.5,124c0,6-0.6,11.8-1.7,17.5c-0.5,2.4-1,4.8-1.7,7.1c-10.7,10.7-23.4,19.5-37.5,25.7
					c-15.2,6.7-32,10.4-49.6,10.4h-0.1c-18.1,0-35.2-3.9-50.6-10.9c-13.6-6.2-25.9-14.7-36.3-25.1c-0.6-2-1-3.9-1.5-5.9
					c-1.3-6.1-2-12.4-2-18.9c0-4.9,0.4-9.6,1.1-14.3c0.6-3.6,1.3-7.1,2.3-10.5c8.5-29.8,31.9-53.4,61.7-62c2.8-0.8,5.6-1.5,8.4-2
					c5.5-1,11.1-1.6,16.9-1.6c5.4,0,10.7,0.5,15.9,1.4c2.8,0.5,5.5,1.1,8.2,1.8c30.4,8.4,54.4,32.3,63,62.6
					c1.1,3.8,1.9,7.7,2.5,11.6C215.2,115.3,215.5,119.6,215.5,124z"/>
				<path class="st1-logo-sq-footer" d="M248,124c0,67.9-55.1,123-123,123C57.1,247,2,191.9,2,124C2,56.1,57.1,1,125,1C192.9,1,248,56.1,248,124z"
					/>
				<line class="st1-logo-sq-footer" x1="125" y1="33.5" x2="124.4" y2="84.2"/>
				<line class="st1-logo-sq-footer" x1="125" y1="214.5" x2="125" y2="167.3"/>
				<line class="st0-logo-sq-footer" x1="34.5" y1="124" x2="79.6" y2="124.3"/>
				<line class="st1-logo-sq-footer" x1="215.5" y1="124" x2="174.8" y2="124"/>
				<polygon class="st0-logo-sq-footer" points="79.6,124.2 72.7,109.4 88.3,92.2 109.8,81.6 161.9,91.1 175.2,101.5 179.6,118.5 171.3,128.1 
					145.5,128 132.8,140.5 115.2,140.1 104.1,129.3 				"/>
				<line class="st0-logo-sq-footer" x1="91.3" y1="105.3" x2="88.3" y2="92.2"/>
				<line class="st0-logo-sq-footer" x1="109.8" y1="81.6" x2="118.3" y2="119.3"/>
				<line class="st0-logo-sq-footer" x1="139.9" y1="92.8" x2="145.5" y2="128"/>
				<line class="st0-logo-sq-footer" x1="161.9" y1="91.1" x2="168.5" y2="114.7"/>
				<line class="st0-logo-sq-footer" x1="175.2" y1="101.5" x2="171.3" y2="128.1"/>
				<line class="st0-logo-sq-footer" x1="118.3" y1="119.3" x2="139.9" y2="92.8"/>
				<line class="st0-logo-sq-footer" x1="109.8" y1="81.6" x2="139.9" y2="92.8"/>
				<line class="st0-logo-sq-footer" x1="161.9" y1="91.1" x2="139.9" y2="92.8"/>
				<line class="st0-logo-sq-footer" x1="145.5" y1="128" x2="161.9" y2="91.1"/>
				<line class="st0-logo-sq-footer" x1="168.5" y1="114.7" x2="145.5" y2="128"/>
				<line class="st0-logo-sq-footer" x1="175.2" y1="101.5" x2="168.5" y2="114.7"/>
				<line class="st0-logo-sq-footer" x1="171.3" y1="128.1" x2="168.5" y2="114.7"/>
				<line class="st0-logo-sq-footer" x1="132.8" y1="140.5" x2="118.3" y2="119.3"/>
				<line class="st0-logo-sq-footer" x1="145.5" y1="128" x2="118.3" y2="119.3"/>
				<line class="st0-logo-sq-footer" x1="104.1" y1="129.3" x2="118.3" y2="119.3"/>
				<line class="st0-logo-sq-footer" x1="115.2" y1="140.1" x2="118.3" y2="119.3"/>
				<line class="st0-logo-sq-footer" x1="104.1" y1="129.3" x2="91.3" y2="105.3"/>
				<line class="st0-logo-sq-footer" x1="109.8" y1="81.6" x2="91.3" y2="105.3"/>
				<line class="st0-logo-sq-footer" x1="118.3" y1="119.3" x2="91.3" y2="105.3"/>
				<line class="st0-logo-sq-footer" x1="72.7" y1="109.4" x2="91.3" y2="105.3"/>
				<polyline class="st0-logo-sq-footer" points="111.5,166.9 115.2,140.1 132.8,140.5 136.6,167.3 110.6,167.3 				"/>
				<path class="st0-logo-sq-footer" d="M123.6,146.2 L115.2,140.1 M132.8,140.5 L123.6,146.2 L110.6,167.3 M136.6,166.2 L123.6,146.2"/>
				<circle class="st2-logo-sq-footer" cx="139.9" cy="92.8" r="1.8"/>
				<circle class="st2-logo-sq-footer" cx="91.3" cy="105.3" r="2.3"/>
			</g>
			<circle class="st2-logo-sq-footer" cx="145.5" cy="128" r="1.2"/>
		</g>
	</g>
</g>
</svg>
