<svg xmlns="http://www.w3.org/2000/svg" viewBox="0 0 433.16 433.15"><defs><style>.cls-1{fill:#0d312e;}.cls-2{fill:#fff;}</style></defs><title>Ресурс 29media_decor</title><g id="Слой_2" data-name="Слой 2"><g id="Layer_1" data-name="Layer 1"><path class="cls-1" d="M148.4,10.94c1-.33,2-.66,3-1L70.48,56.68l2.34-2.11Z"/><path class="cls-1" d="M213.74,0,30.4,105.85c.47-.78.94-1.56,1.42-2.34L211,.05Z"/><path class="cls-1" d="M251.34,2.76,14,139.79l1.14-2.94L248.22,2.28Q249.78,2.51,251.34,2.76Z"/><path class="cls-1" d="M281.24,9.8,5.21,169.16q.39-1.75.81-3.51L277.78,8.75C278.93,9.09,280.09,9.44,281.24,9.8Z"/><path class="cls-1" d="M307.62,20,.86,197.1c.12-1.35.26-2.69.4-4L303.93,18.32C305.17,18.87,306.4,19.42,307.62,20Z"/><path class="cls-1" d="M328.85,31.31.05,221.15c0-1.51,0-3,0-4.54L325,29Q326.91,30.14,328.85,31.31Z"/><path class="cls-1" d="M348.56,44.83,1.85,245c-.21-1.66-.41-3.32-.59-5L344.55,41.82C345.9,42.8,347.24,43.81,348.56,44.83Z"/><path class="cls-1" d="M365.49,59.29,5.89,266.91q-.64-2.69-1.21-5.39l356.75-206Q363.49,57.4,365.49,59.29Z"/><path class="cls-1" d="M380.62,75.15,12,288q-1-2.85-1.91-5.75L376.61,70.62Q378.65,72.85,380.62,75.15Z"/><path class="cls-1" d="M394.27,92.7,20.44,308.53c-.94-2-1.84-4-2.72-6L390.39,87.33Q392.37,90,394.27,92.7Z"/><path class="cls-1" d="M406,111.38,30.81,328q-1.86-3.11-3.63-6.28L402.32,105.11Q404.18,108.22,406,111.38Z"/><path class="cls-1" d="M415.71,131.24,43.16,346.33q-2.38-3.18-4.65-6.45L412.44,124C413.57,126.39,414.66,128.8,415.71,131.24Z"/><path class="cls-1" d="M423.59,152.71,57.83,363.89q-3-3.21-5.83-6.54L420.85,144.4Q422.3,148.53,423.59,152.71Z"/><path class="cls-1" d="M429,174.07,73.61,379.25q-3.63-3.19-7.12-6.55l360.4-208.08Q428,169.3,429,174.07Z"/><path class="cls-1" d="M432.24,196.49,91.36,393.3q-4.39-3.12-8.62-6.45L431,185.79C431.5,189.33,431.91,192.9,432.24,196.49Z"/><path class="cls-1" d="M433.16,216.56c0,1.63,0,3.24-.05,4.86L112.48,406.53q-5.33-2.92-10.47-6.13L433,209.28Q433.16,212.91,433.16,216.56Z"/><path class="cls-1" d="M431.16,246.12,134.85,417.19q-6.43-2.61-12.64-5.64l310.38-179.2Q432.1,239.3,431.16,246.12Z"/><path class="cls-1" d="M425.36,274.36,162.24,426.27q-7.94-2.06-15.62-4.68L429.1,258.5Q427.53,266.54,425.36,274.36Z"/><path class="cls-1" d="M414.37,304.94,194.28,432q-10.09-1-19.89-3L421.71,286.24Q418.47,295.81,414.37,304.94Z"/><path class="cls-1" d="M393.42,341.63,236.48,432.24q-9.82.9-19.9.91c-2.61,0-5.2,0-7.79-.14L408,318A216.85,216.85,0,0,1,393.42,341.63Z"/><path class="cls-1" d="M258.2,429.15,379.78,359A216.45,216.45,0,0,1,258.2,429.15Z"/><rect class="cls-2" x="52.16" y="44.37" width="174.59" height="174.59"/><polygon class="cls-1" points="151.38 120.37 162.26 114.09 162.26 114.16 151.5 120.37 151.38 120.37"/><polygon class="cls-1" points="135.98 120.37 162.26 105.19 162.26 105.33 136.21 120.37 135.98 120.37"/><polygon class="cls-1" points="120.58 120.37 162.26 96.3 162.26 96.5 120.92 120.37 120.58 120.37"/><polygon class="cls-1" points="105.13 120.37 162.26 87.39 162.26 87.66 105.6 120.37 105.13 120.37"/><polygon class="cls-1" points="89.19 120.37 162.26 78.18 162.26 78.72 90.12 120.37 89.19 120.37"/><polygon class="cls-1" points="74.2 120.37 162.26 69.53 162.26 70.33 75.6 120.37 74.2 120.37"/><polygon class="cls-1" points="62.64 118.45 162.26 60.93 162.26 62.01 62.64 119.52 62.64 118.45"/><polygon class="cls-1" points="62.64 109.45 162.26 51.94 162.26 53.28 62.64 110.8 62.64 109.45"/><polygon class="cls-1" points="62.64 101.11 162.26 43.6 162.26 45.21 62.64 102.73 62.64 101.11"/><polygon class="cls-1" points="62.64 92.31 162.26 34.79 162.26 36.68 62.64 94.19 62.64 92.31"/><polygon class="cls-1" points="62.64 83.74 162.26 26.22 162.26 28.37 62.64 85.89 62.64 83.74"/><polygon class="cls-1" points="62.64 75.04 156.67 20.75 160.87 20.75 62.64 77.46 62.64 75.04"/><polygon class="cls-1" points="62.64 66.04 141.09 20.75 145.75 20.75 62.64 68.73 62.64 66.04"/><polygon class="cls-1" points="62.64 57.05 125.51 20.75 130.64 20.75 62.64 60.01 62.64 57.05"/><polygon class="cls-1" points="62.64 48.03 109.9 20.75 115.49 20.75 62.64 51.26 62.64 48.03"/><polygon class="cls-1" points="62.64 38.83 93.95 20.75 100.02 20.75 62.64 42.33 62.64 38.83"/><polygon class="cls-1" points="62.64 30.17 78.96 20.75 85.49 20.75 62.64 33.94 62.64 30.17"/><polygon class="cls-1" points="62.64 21.58 64.08 20.75 71.07 20.75 62.64 25.61 62.64 21.58"/></g></g></svg>