<svg xmlns="http://www.w3.org/2000/svg" xmlns:xlink="http://www.w3.org/1999/xlink" viewBox="0 0 2757.61 1551.15"><defs><style>.cls-1{isolation:isolate;}.cls-2{opacity:0.1;mix-blend-mode:overlay;}.cls-3{fill:url(#linear-gradient);}</style><linearGradient id="linear-gradient" x1="-2386.92" y1="364.03" x2="-2386.92" y2="2363.07" gradientTransform="translate(-1008.11 1632.52) rotate(180)" gradientUnits="userSpaceOnUse"><stop offset="0" stop-color="#fff"/><stop offset="1" stop-color="gray"/></linearGradient></defs><title>Ресурс 1</title><g class="cls-1"><g id="Слой_2" data-name="Слой 2"><g id="Layer_1" data-name="Layer 1"><g class="cls-2"><path class="cls-3" d="M2757.61,1500.61v-2.84L2724.52,1517l-119.84-69.19,119.05-69.19,33.88,19.56v-2.82l-31.45-18.15,31.45-18.27v-2.83l-33.89,19.69-119.81-69.17,119-69.18,34.67,20v-2.82l-32.24-18.61,32.24-18.73v-2.83l-34.68,20.15-119.84-69.18,119.06-69.19,35.46,20.47v-2.81l-33-19.07,33-19.2v-2.83l-35.48,20.62-119.81-69.17,119-69.18L2757.61,976v-2.84l-33.81-19.51L2757.61,934v-2.85l-36.27,21.08-119.81-69.18,119-69.17,37.05,21.39v-2.81l-34.62-20,34.62-20.12v-2.83l-37.07,21.54L2600.71,741.9l119.05-69.18,37.85,21.84v-2.81l-35.42-20.45,35.42-20.58v-2.83l-37.86,22-119.81-69.17,119-69.17,38.64,22.3V551l-36.21-20.9,36.21-21.05v-2.83L2719,528.73l-119.83-69.19,119.05-69.19,39.44,22.77v-2.81l-37-21.37,37-21.5v-2.83l-39.45,22.92-119.81-69.17,119-69.18,40.23,23.23V269.6l-37.8-21.83,37.8-22V223l-40.24,23.38-119.84-69.18,119-69.19,41,23.69v-2.82L2719,106.58l38.6-22.43V81.32l-41,23.85L2596.76,36,2658.7,0h-4.87l-59.51,34.59L2534.41,0h-4.87l62.35,36-119.06,69.18L2353,36l61.94-36h-4.86l-59.52,34.59L2290.65,0h-4.87l62.35,36-119,69.17L2109.29,36l61.94-36h-4.91l-59.5,34.58L2046.93,0h-4.87l62.33,36-119,69.18L1865.53,36l62-36h-4.87l-59.52,34.59L1803.17,0h-4.87l62.36,36-119,69.17L1621.79,36l61.93-36h-4.87l-59.5,34.58L1559.46,0h-4.87l62.33,36-119.05,69.19L1378.06,36l62-36h-4.87l-59.53,34.59L1315.7,0h-4.87l62.36,36-119,69.18L1134.32,36l61.93-36h-4.87l-59.5,34.58L1072,0h-4.91l62.36,36-119,69.17L890.59,36,952.54,0h-4.87L888.14,34.59,828.22,0h-4.87l62.37,36L766.66,105.19,646.83,36,708.78,0h-4.87L644.38,34.59,584.47,0H579.6L642,36l-119,69.17L403.11,36l62-36h-4.87L400.67,34.6,340.75,0h-4.88l62.37,36-119,69.18L159.36,36l62-36h-4.87L156.91,34.6,97,0H92.12l62.37,36-119,69.17L0,84.71v2.81l33,19.07L0,125.79v2.83L35.47,108,155.3,177.19l-119,69.19L0,225.45v2.81l33.82,19.53L0,267.44v2.83L36.26,249.2l119.82,69.17-119,69.17L0,366.15V369l34.62,20L0,409.07v2.83l37.06-21.54,119.83,69.19-119,69.19L0,506.89v2.81l35.41,20.45L0,550.73v2.83l37.85-22,119.82,69.17-119,69.17L0,647.6v2.84l36.18,20.89L0,692.36v2.83l38.63-22.45,119.83,69.18-119,69.18L0,788.33v2.82l37,21.36L0,834v2.83l39.45-22.92,119.81,69.17L40.2,952.28,0,929.07v2.81l37.78,21.81L0,975.64v2.83L40.22,955.1l119.83,69.19L41,1093.46,0,1069.78v2.81l38.59,22.28L0,1117.29v2.84l41-23.85,119.81,69.18-119,69.18L0,1210.51v2.81l39.36,22.73L0,1258.93v2.85l41.83-24.3,119.81,69.17-119,69.17L0,1351.22V1354l40.18,23.2L0,1400.58v2.83l42.62-24.77,119.83,69.19L43.4,1517,0,1492v2.81l97.66,56.38h4.87l-56.69-32.72,119.06-69.19,119.81,69.17-56.34,32.74h4.87l53.91-31.33,54.27,31.33h4.87l-56.71-32.74,119-69.17,119.84,69.18-56.32,32.73H477l53.89-31.32,54.25,31.32H590l-56.68-32.73,119-69.18,119.81,69.17-56.34,32.74h4.87l53.91-31.33,54.27,31.33h4.88l-56.72-32.74,119-69.18,119.84,69.19-56.33,32.73h4.88l53.89-31.32,54.25,31.32h4.87l-56.69-32.73,119-69.19,119.81,69.18-56.34,32.74h4.87l53.92-31.33,54.27,31.33h4.87l-56.72-32.74,119-69.18,119.83,69.19-56.33,32.73h4.87l53.9-31.32,54.26,31.32H1565l-56.72-32.74,119-69.18,119.81,69.18-56.34,32.74h4.91l53.9-31.32,54.25,31.32h4.88l-56.7-32.73,119-69.19,119.81,69.18-56.35,32.74h4.87l53.93-31.34,54.27,31.34h4.87l-56.72-32.74,119-69.18,119.83,69.19-56.33,32.73h4.86l53.91-31.32,54.26,31.32h4.87l-56.7-32.73,119.05-69.19,119.81,69.17L2422,1551.15h4.87l53.92-31.34,54.29,31.34H2540l-56.72-32.75,119-69.17,119.84,69.18-56.34,32.74h4.87Zm-37.11-264.56-119,69.18L2481.63,1236l119-69.17ZM2480,1375.82l-119.84-69.18,119.06-69.19L2599,1306.64Zm-243.74,0-119.81-69.17,119-69.17,119.81,69.17Zm-243.76,0-119.81-69.17,119.06-69.18,119.81,69.16Zm-243.71,0L1629,1306.63l119-69.17,119.83,69.18Zm-243.76,0-119.81-69.17,119.06-69.18,119.81,69.17Zm-243.71,0-119.84-69.19,119-69.17,119.83,69.18Zm-243.76,0-119.81-69.18,119-69.17,119.81,69.17Zm-243.74,0L654,1306.64,773,1237.46l119.83,69.18Zm-243.73,0-119.81-69.17,119-69.18,119.81,69.17Zm-243.74,0-119.83-69.18,119.05-69.19,119.84,69.19Zm-1.57-279.54,119.81,69.18-119,69.17-119.81-69.17ZM284,955.1l119.81,69.17-119,69.19-119.81-69.17Zm-.81-141.18L403,883.1,284,952.28,164.13,883.09Zm-.77-141.18L402.2,741.91l-119,69.17L163.35,741.91Zm-.8-141.19,119.83,69.18-119,69.19L162.53,600.73Zm-.79-141.17,119.81,69.17-119,69.18L161.76,459.55Zm-.8-141.2,119.83,69.19-119,69.19L161,318.37ZM645.22,178.6,765,247.77,646,317,526.16,247.78Zm243.71,0,119.83,69.18L889.73,317,769.9,247.77Zm243.76,0,119.81,69.18-119,69.19-119.81-69.18Zm243.71,0,119.84,69.19L1377.2,317l-119.83-69.18Zm243.76,0L1740,247.77l-119,69.17-119.81-69.17Zm243.76,0,119.81,69.17-119,69.19-119.81-69.17Zm243.71,0,119.84,69.19-119,69.17L1988.6,247.76Zm243.76,0,119.81,69.17-119,69.19-119.81-69.17Zm127.8,1056-119.81-69.17,119-69.18,119.81,69.18Zm-243.76,0-119.81-69.17,119.06-69.19,119.81,69.18Zm-243.71,0-119.83-69.18,119-69.18,119.83,69.19Zm-487.47,0-119.83-69.18,119-69.18,119.83,69.19Zm-487.47,0-119.84-69.19,119-69.17,119.84,69.18Zm-243.76,0-119.81-69.17,119-69.18,119.81,69.17Zm-243.74,0-119.83-69.18,119.05-69.19,119.84,69.19Zm-123-209,119.81,69.17-119,69.18L287.2,1094.88Zm-.82-141.19,119.81,69.18-119,69.17L286.4,953.69Zm-.79-141.19,119.83,69.19-119,69.17L285.61,812.49Zm-.77-141.18,119.81,69.17L404.62,740.5,284.81,671.33ZM403.05,461l119.83,69.19-119,69.17L284,530.14Zm-.77-141.18L522.09,389,403,458.14,283.22,389Zm487.47,0L1009.56,389l-119,69.19L770.7,389Zm243.71,0L1253.3,389l-119,69.18L1014.43,389Zm487.49,0L1740.77,389l-119,69.18L1501.92,389Zm243.74,0L1984.52,389l-119,69.17L1745.66,389Zm491.43,703.1-119.83-69.19,119.05-69.19,119.83,69.19Zm-365.22,70.58-119.81-69.17,119.05-69.19L2110,1024.27Zm-243.71,0-119.83-69.18,119-69.18,119.83,69.19Zm-243.76,0-119.81-69.17,119.06-69.19,119.81,69.18Zm-243.71,0-119.83-69.19,119-69.18,119.83,69.19Zm-243.76,0-119.81-69.18L1015.2,955.1,1135,1024.27Zm-243.71,0-119.84-69.19,119-69.17,119.83,69.18ZM527.71,955.11l119.81,69.17-119,69.18-119.81-69.18Zm-.8-141.19,119.82,69.17-119,69.18L407.88,883.09Zm-.79-141.19L646,741.91,526.9,811.1,407.07,741.91Zm-.79-141.17,119.81,69.17-119,69.17L406.3,600.73ZM646.81,461l119.81,69.17-119,69.19L527.75,530.15Zm487.47,0,119.81,69.17L1135,599.32l-119.81-69.18ZM1378,461l119.82,69.17-119,69.17L1259,530.14Zm243.74,0,119.83,69.18-119,69.19L1502.7,530.14Zm243.73,0,119.82,69.17-119,69.17-119.81-69.17Zm243.74,0,119.84,69.19-119,69.17-119.83-69.18ZM1990.13,952.27,1870.3,883.09l119-69.18,119.83,69.19Zm-243.76,0L1626.56,883.1l119.06-69.19,119.81,69.18Zm-243.71,0-119.83-69.18,119-69.18,119.83,69.19Zm-731.23,0L651.62,883.1l119-69.19,119.82,69.18Zm-123-209,119.81,69.17L649.15,881.68,529.34,812.51Zm-.82-141.18,119.83,69.18-119,69.18L528.55,671.31Zm243.76,0,119.81,69.17L892.09,740.5,772.28,671.32Zm731.2,0,119.82,69.17-119,69.18-119.81-69.18Zm243.74,0,119.84,69.18-119.06,69.19-119.83-69.19Zm243.74,0,119.81,69.17-119,69.17L1991,671.32Zm-1.65,139.75-119.06,69.19L1869.5,741.92l119.06-69.19Zm-243.74,0-119,69.17-119.83-69.18,119-69.18Zm-243.73,0-119.06,69.18L1382,741.92l119-69.19ZM1378.81,602.14l119.83,69.18-119.05,69.19-119.84-69.19Zm-1.65,139.78-119,69.17L1138.3,741.91l119-69.18ZM1135.08,602.15l119.81,69.17-119,69.18L1016,671.32Zm-1.65,139.76-119.06,69.18L894.56,741.92l119.06-69.18Zm-243.76,0-119,69.17L650.82,741.91l119-69.17ZM773.1,812.5l119-69.17L1012,812.5l-119,69.18Zm241.29,1.41,119.83,69.19-119,69.18L895.35,883.09Zm2.42-1.41,119.06-69.18L1255.7,812.5l-119,69.19Zm241.33,1.41L1378,883.09,1258.9,952.27,1139.09,883.1Zm2.43-1.41,119-69.17,119.82,69.17-119,69.18Zm243.72,0,119-69.18,119.83,69.18-119.05,69.19Zm243.75,0,119-69.17,119.82,69.17-119,69.18Zm243.72,0,119-69.19,119.83,69.19-119,69.19Zm241.33,1.41,119.81,69.17-119.06,69.19L2114,883.1Zm0-2.82L2113.24,741.9l119-69.17,119.83,69.18Zm-.79-141.19-119.82-69.18,119-69.17,119.81,69.17Zm-124.7-69.16-119,69.17-119.83-69.18,119-69.18Zm-243.74,0-119.06,69.18L1625,600.74,1744,531.55Zm-243.74,0-119,69.17-119.84-69.18,119-69.18Zm-243.73,0-119.06,69.18L1137.5,600.74l119.06-69.19Zm-243.76,0-119,69.17L893.76,600.73l119-69.18Zm-241.29-1.41L771.49,530.13l119-69.17,119.84,69.18Zm-2.43,1.41-119,69.18L650,600.73l119-69.19Zm-358.73,353,119-69.18L769,953.69l-119,69.17Zm243.71,0L892.93,884.5l119.83,69.19-119,69.18Zm243.76,0,119-69.18,119.81,69.17-119,69.18Zm243.72,0L1380.4,884.5l119.83,69.18-119,69.19Zm243.75,0,119-69.17L1744,953.68l-119,69.18Zm243.72,0,119-69.18,119.83,69.18-119,69.19Zm243.75,0,119-69.17,119.82,69.17-119,69.18Zm241.29,1.41,119.83,69.19-119,69.17-119.83-69.18Zm121.47-73.42L2235.51,812.5l119-69.18,119.81,69.18Zm-.78-141.18-119.83-69.18,119-69.18,119.83,69.19Zm-.81-141.18-119.82-69.17L2353,461l119.81,69.18ZM2353,458.13,2233.13,389l119-69.18L2472,389Zm-2.42,1.41-119.06,69.19-119.83-69.19,119-69.18Zm-241.34-1.41L1989.39,389l119.06-69.19L2228.26,389Zm-2.42,1.41-119,69.18-119.81-69.18,119-69.17Zm-243.74,0-119,69.17-119.83-69.19,119-69.17Zm-243.73,0-119.06,69.19-119.81-69.17,119.06-69.19ZM1378,458.14,1258.16,389l119.06-69.19L1497,389Zm-2.43,1.41-119,69.17L1136.7,459.55l119-69.18Zm-243.71,0-119.06,69.18L893,459.55l119-69.19Zm-243.76,0-119,69.17L649.24,459.55l119-69.18Zm-241.29-1.41L527,389l119-69.17L765.82,389Zm-2.43,1.41L525.31,528.74,405.48,459.55l119-69.19ZM530.93,1094.87l119-69.18,119.84,69.19-119,69.17Zm243.76,0,119-69.18,119.81,69.18L894.5,1164Zm243.71,0,119.06-69.19,119.83,69.19-119,69.18Zm241.33,1.41,119.81,69.17-119,69.18-119.81-69.17Zm2.43-1.41,119-69.18L1501,1094.86,1382,1164Zm243.72,0,119-69.18,119.83,69.18-119,69.19Zm241.33,1.41L1867,1165.45,1748,1234.63l-119.81-69.17Zm2.42-1.41,119-69.17,119.82,69.17-119,69.18Zm243.72,0,119.05-69.18,119.83,69.18-119.05,69.19Zm243.75,0,119-69.17L2476,1094.86l-119,69.17Zm241.27-1.41-119.81-69.17,119.06-69.19,119.81,69.17Zm-.77-141.18-119.83-69.19,119-69.17,119.83,69.18Zm-.79-141.19L2357,741.9l119-69.17,119.81,69.17Zm-.8-141.17-119.83-69.19,119.05-69.18,119.83,69.18Zm-.79-141.19-119.81-69.18,119-69.17,119.81,69.17Zm-.8-141.17-119.83-69.19,119-69.19,119.84,69.19Zm-124.7-69.19-119,69.18-119.81-69.18,119-69.17Zm-243.71,0L1987,387.55l-119.83-69.19,119.05-69.19Zm-243.76,0-119,69.18-119.81-69.18,119-69.17Zm-243.76,0-119,69.18-119.81-69.18,119-69.17Zm-243.71,0-119.06,69.19-119.83-69.18,119-69.19Zm-243.76,0-119,69.17L892.18,318.37l119-69.18Zm-243.72,0-119,69.18L648.42,318.37l119.05-69.19Zm-243.75,0-119,69.17L404.7,318.37l119-69.18ZM402.26,317,282.43,247.77l119-69.17,119.83,69.18ZM288,1236.05l119-69.17,119.84,69.18-119,69.18Zm243.74,0,119-69.18,119.81,69.17-119.05,69.18Zm243.73,0,119-69.18,119.84,69.19-119,69.17Zm243.76,0,119-69.18L1258.06,1236l-119,69.18Zm243.71,0L1382,1166.86,1501.82,1236l-119,69.19Zm243.76,0,119-69.17L1745.54,1236l-119,69.18Zm243.72,0,119-69.18L1989.29,1236l-119,69.19Zm243.75,0,119-69.17L2233,1236l-119,69.18Zm243.74,0,119-69.18L2476.76,1236l-119.05,69.19Zm481.81-141.19L2600.65,1164l-119.81-69.17,119-69.18Zm-.82-141.18-119,69.17L2480,953.68l119-69.17Zm-.78-141.18-119,69.17-119.83-69.18,119-69.18Zm-.79-141.2-119.05,69.19-119.81-69.17,119.05-69.19Zm-.79-141.16-119,69.17-119.83-69.18,119-69.18Zm-.8-141.2-119.05,69.19L2476.87,389l119.05-69.19Zm-.79-141.17-119,69.18-119.84-69.19,119-69.17Zm-.8-141.19-119,69.19-119.81-69.18,119-69.18Zm-121.48,70.6-119,69.17-119.81-69.17,119-69.17Zm-122.25-70.59-119,69.18-119.83-69.19,119-69.17ZM2349,177.18l-119.06,69.19-119.83-69.19L2229.11,108Zm-122.28-70.6-119.05,69.19L1987.81,106.6l119.05-69.19Zm-121.48,70.6-119,69.17-119.81-69.17,119-69.17Zm-122.28-70.6-119,69.18-119.81-69.18,119-69.17Zm-121.46,70.59-119,69.19-119.81-69.18L1741.64,108ZM1739.2,106.58l-119.06,69.19-119.83-69.18L1619.37,37.4Zm-121.48,70.6-119,69.18-119.83-69.19,119-69.17Zm-122.28-70.59-119,69.17L1256.6,106.59l119-69.18ZM1374,177.18l-119,69.18-119.81-69.18,119-69.17ZM1251.7,106.6l-119,69.17-119.83-69.18,119-69.17Zm-121.46,70.58-119,69.19L891.36,177.18l119-69.18ZM1008,106.59,888.92,175.78,769.1,106.6,888.16,37.42ZM886.49,177.18l-119,69.18L647.64,177.19l119-69.18ZM764.23,106.6l-119,69.18L525.37,106.59l119-69.17ZM642.77,177.19l-119,69.18L403.89,177.19,522.94,108ZM520.5,106.59,401.44,175.78,281.63,106.6,400.69,37.42ZM399,177.19,280,246.36,160.17,177.19l119-69.17ZM37.9,106.59l119-69.17L276.76,106.6l-119,69.18Zm.79,141.2L157.75,178.6l119.81,69.17L158.51,317ZM39.49,389l119-69.17L278.35,389l-119,69.17Zm.79,141.2L159.34,461l119.81,69.18L160.09,599.32Zm.79,141.16,119-69.17,119.83,69.19-119,69.17Zm.8,141.2,119-69.18,119.81,69.18-119,69.17Zm.77,141.18L161.7,884.5l119.83,69.19-119,69.19Zm.82,141.18,119-69.17,119.81,69.17-119,69.17Zm.8,141.19,119.05-69.18,119.81,69.17-119,69.19Zm120.62,210.36L45.05,1377.23l119-69.17,119.83,69.18ZM287.14,1517l-119.82-69.17,119-69.18,119.81,69.18Zm121.46-70.58-119.82-69.18,119.06-69.18,119.81,69.17ZM530.87,1517,411,1447.83l119.06-69.19,119.83,69.19Zm121.48-70.59-119.83-69.19,119-69.17,119.84,69.18ZM774.61,1517,654.8,1447.83l119-69.18,119.81,69.17Zm121.46-70.59-119.81-69.17,119-69.18,119.81,69.17Zm122.27,70.6-119.83-69.19,119.06-69.18,119.83,69.18Zm121.48-70.6L1020,1377.23l119-69.17,119.83,69.18ZM1262.08,1517l-119.81-69.18,119-69.17,119.81,69.17Zm1.67-139.77,119-69.18,119.82,69.17-119,69.18ZM1505.84,1517,1386,1447.81l119-69.18,119.83,69.19Zm121.46-70.59-119.83-69.19,119-69.18,119.83,69.18ZM1749.55,1517l-119.81-69.18,119-69.19,119.82,69.18ZM1871,1446.4l-119.81-69.18,119-69.17,119.81,69.17ZM1993.31,1517l-119.81-69.17,119-69.18,119.81,69.18Zm121.46-70.58L1995,1377.23,2114,1308.05l119.81,69.17Zm122.28,70.6-119.84-69.19,119.06-69.19,119.83,69.19Zm121.48-70.6-119.84-69.19,119-69.17,119.83,69.18ZM2480.78,1517,2361,1447.82l119-69.18,119.81,69.18Zm121.46-70.58-119.81-69.18,119.05-69.18,119.81,69.17Z"/></g></g></g></g></svg>