<svg xmlns="http://www.w3.org/2000/svg" viewBox="0 0 1740.13 1305.92"><defs><style>.cls-1{fill:none;stroke:#fff;stroke-miterlimit:10;stroke-width:3px;}</style></defs><title>Ресурс 2</title><g id="Слой_2" data-name="Слой 2"><g id="Layer_1" data-name="Layer 1"><path class="cls-1" d="M1253,1.37l391.5,449.2M497.43,339.65,1253,1.37M.78,38.43,497.43,339.65M1108.11,95.74,418.55,404.27M1177.22,134.9l-69.11-39.16m502.16,952.82L1237,618.77m0,0L1158.2,168.4M398.77,420.49,31.37,197.28M1071.79,119.4l-673,301.09M1158.2,168.4l-86.41-49m443.32,947.49L1233.82,742.75m0,0-94.66-540.81M379,436.73,37.53,229.22m997.89-86.14L379,436.73m760.21-234.79-103.74-58.86m384.51,942.14L1230.61,866.9m0,0L1120.09,235.53M359.11,453,43.69,261.22M999,166.8,359.11,453m761-217.45L999,166.8m325.73,936.75-97.34-112.33m0,0L1101,269.17M339.23,469.27l-289.37-176M962.55,190.54,339.23,469.27M1101,269.17,962.55,190.54m267,931.35-5.36-6.18m0,0L1081.88,302.85M319.33,485.57,56.05,325.4m870-111.1L319.33,485.57m762.55-182.72L926.06,214.3m275.1,913.06L1062.73,336.58M299.4,501.9,62.25,357.57M889.53,238.09,299.4,501.9m763.33-165.32-173.2-98.49M1176.89,1132,1043.56,370.36M279.45,518.26,68.45,389.8M853,261.91,279.45,518.26m764.11-147.9L853,261.91m299.64,874.8L1024.36,404.19M259.46,534.63,74.67,422.09M816.34,285.76,259.46,534.63m764.9-130.44-208-118.43m311.92,855.64L1005.13,438.06M239.44,551,80.9,454.44M779.68,309.63,239.44,551m765.69-113L779.68,309.63m324.21,836.46L985.88,472M219.4,567.45,87.15,486.85M743,333.53,219.4,567.45M985.88,472,743,333.53m336.51,817.26L966.6,505.94m-767.27,78L93.4,519.32M706.24,357.46,199.33,583.9m767.27-78L706.24,357.46m348.81,798L947.29,540M179.23,600.37,99.66,551.85m569.8-170.43-490.23,219M947.29,540,669.46,381.42m361.12,778.79L928,574M159.1,616.86l-53.16-32.43m526.7-179L159.1,616.86M928,574,632.64,405.4m373.44,759.53L908.59,608.12M138.94,633.38l-26.71-16.3M595.77,429.4l-456.83,204m769.65-25.26L595.77,429.4m385.77,740.26L889.2,642.28m-770.45,7.64-.22-.14M558.86,453.44,118.75,649.92m770.45-7.64L558.86,453.44m398.11,721L869.79,676.48m-347.87-199-402,179.44m749.88,19.54-347.87-199m410.44,701.63-82-468.4M484.93,501.59,121.25,663.9m729.1,46.83L484.93,501.59m422.78,682.28L830.88,745m-383-219.32L122.59,670.87M830.88,745l-383-219.32M883,1188.63,811.38,779.37M410.82,549.86l-286.89,128M811.38,779.37,410.82,549.86m447.51,643.53L791.85,813.77M373.7,574,125.28,684.85M791.85,813.77,373.7,574m459.88,624.12L772.3,848.21m-435.76-250L126.63,691.85M772.3,848.21l-435.76-250m472.26,604.7L752.72,882.71M299.34,622.46,128,698.87M752.72,882.71,299.34,622.46M784,1207.71,733.12,917.24m-471-270.53-132.76,59.2M733.12,917.24l-471-270.53m497,565.78L713.48,951.83M224.81,671l-94.12,42M713.48,951.83,224.81,671m509.43,546.29L693.82,986.47M187.48,695.31,132.05,720M693.82,986.47,187.48,695.31m521.84,526.78-35.19-200.94m-524-301.5-16.69,7.43m540.71,294.07-524-301.5m534.25,507.24-30-171m0,0L139.67,759.54m519.7,472.17-24.7-141m0,0-485-279.41m1100.2-686.75L1676,613.8M1240.24,495l465.18,535.28m-458.78-782.4,460.81,529.49m-464-406L1739,941.14M1234.11,34.68l15.72,89.83m-72.61,10.39,63,360M1215.17,68l31.47,179.79m-50.43-146.38,47.23,269.86M614.9,1125.5l19.44,111m-39.24-76.14,14.18,81m-34-46,8.91,50.87m-28.77-15.89L559,1251M6.87,70.09,477.75,355.77M25.23,165.4,418.55,404.27M13,101.8,458.05,371.92M19.1,133.57,438.32,388.09m39.43-32.32,739.1-330.85m-758.8,347L1180.65,48.5M438.32,388.09l706.08-316m72.45-47.19,17.26,9.76M1180.65,48.5,1215.17,68m-70.77,4.07,51.81,29.34M159.61,863.07,614.9,1125.5M169.61,915,595.1,1160.39M179.62,967l395.65,228.33M189.66,1019.1l365.75,211.2m-355.7-159L522.85,1258M209.79,1123.59l252.62,146.05M219.88,1176l182,105.3M230,1228.48,341.38,1293m-101.26-11.89,40.66,23.56"/></g></g></svg>