<svg xmlns="http://www.w3.org/2000/svg" viewBox="0 0 114.3 114.72"><defs><style>.cls-1{fill:#00d163;}</style></defs><title>Ресурс 19sides_center_circle</title><g id="Слой_2" data-name="Слой 2"><g id="Layer_1" data-name="Layer 1"><path class="cls-1" d="M57.15,0h0a53.59,53.59,0,0,0-38,15.71h76A53.61,53.61,0,0,0,57.15,0Z"/><path class="cls-1" d="M57.15,114.72h0A53.61,53.61,0,0,0,95.14,99h-76A53.59,53.59,0,0,0,57.15,114.72Z"/><path class="cls-1" d="M114.3,57.41h0a53.65,53.65,0,0,0-15.71-38v76A53.65,53.65,0,0,0,114.3,57.41Z"/><path class="cls-1" d="M0,57.41H0a53.61,53.61,0,0,1,15.71-38v76A53.61,53.61,0,0,1,0,57.41Z"/></g></g></svg>