<?xml version="1.0" encoding="utf-8"?>
<!-- Generator: Adobe Illustrator 22.1.0, SVG Export Plug-In . SVG Version: 6.00 Build 0)  -->
<svg version="1.1" id="Слой_1" xmlns="http://www.w3.org/2000/svg" xmlns:xlink="http://www.w3.org/1999/xlink" x="0px" y="0px"
	 viewBox="0 0 177.6 177.6" style="enable-background:new 0 0 177.6 177.6;" xml:space="preserve">
<style type="text/css">
	.st0{opacity:0.43;}
	.st1{fill:none;stroke:#32ED82;stroke-width:3;stroke-miterlimit:10;}
	.st2{fill:#FFFFFF;}
</style>
<title>Ресурс 5video_circle</title>
<g id="Слой_2_1_">
	<g id="Layer_1">
		<g class="st0">
			<path class="st1" d="M176.1,88.8c0,24-8.6,44.6-25.6,61.7s-37.7,25.7-61.7,25.6c-24,0-44.6-8.6-61.7-25.6S1.5,112.8,1.5,88.8
				c0-24,8.6-44.6,25.6-61.7S64.8,1.5,88.8,1.5s44.6,8.6,61.7,25.6S176.1,64.8,176.1,88.8z M164.5,88.8c0-20.8-7.4-38.7-22.2-53.5
				s-32.6-22.2-53.5-22.2c-20.9,0-38.7,7.4-53.5,22.2S13.1,67.9,13.1,88.8c0,20.9,7.4,38.7,22.2,53.5s32.6,22.2,53.5,22.2
				c20.9,0,38.7-7.4,53.5-22.2S164.5,109.7,164.5,88.8z"/>
		</g>
	</g>
</g>
<g id="Слой_2_2_">
	<g id="Layer_1_1_">
		<path class="st2" style="transform: translate(6px)" d="M120.4,86.5c2,1.5,2.4,4.3,0.9,6.4c-0.3,0.3-0.6,0.7-0.9,0.9l-45.1,35.6c-3.2,2.2-6.2,2.2-9.1,0
			c-1.3-0.9-2.1-2.4-2.2-4V54.5c0-1.4,0.7-2.8,1.8-3.6h0.4c2.9-2.4,5.9-2.4,9.1,0L120,86.5H120.4z"/>
	</g>
</g>
</svg>
