<?xml version="1.0" encoding="utf-8"?>
<!-- Generator: Adobe Illustrator 22.1.0, SVG Export Plug-In . SVG Version: 6.00 Build 0)  -->
<svg version="1.1" id="Слой_1" xmlns="http://www.w3.org/2000/svg" xmlns:xlink="http://www.w3.org/1999/xlink" x="0px" y="0px"
	 viewBox="0 0 1920 664" style="enable-background:new 0 0 1920 664;" xml:space="preserve">
<style type="text/css">
	.st0{opacity:0.43;}
	.st1{clip-path:url(#SVGID_2_);}
	.st2{fill:#32ED82;}
</style>
<title>Ресурс 3video_decor</title>
<g id="Слой_2_1_">
	<g id="Layer_1">
		<g class="st0">
			<g>
				<g>
					<defs>
						<polygon id="SVGID_1_" points="888.9,0 612.3,0 -0.4,0 -0.4,664 612.3,664 888.9,664 1920.4,664 1920.4,0 						"/>
					</defs>
					<clipPath id="SVGID_2_">
						<use xlink:href="#SVGID_1_"  style="overflow:visible;"/>
					</clipPath>
					<g class="st1">
						<polygon class="st2" points="1743.3,796.3 1743.3,920.1 1746.3,920.1 1746.3,798 1857.2,731.4 1968.2,798 1968.2,920.1 
							1971.2,920.1 1971.2,796.3 1857.2,727.9 						"/>
						<polygon class="st2" points="1630.8,863.8 1630.8,920.1 1633.8,920.1 1633.8,865.5 1744.8,798.9 1855.7,865.5 1855.7,920.1 
							1858.7,920.1 1858.7,863.8 1744.8,795.4 						"/>
						<polygon class="st2" points="2170.7,781 2083.7,728.8 2083.7,595.5 2170.7,543.3 2170.7,539.8 2080.7,593.8 2080.7,730.5 
							2170.7,784.5 						"/>
						<polygon class="st2" points="1968.2,526.3 1968.2,663 2082.2,731.4 2170.7,678.3 2170.7,674.8 2082.2,727.9 1971.2,661.3 
							1971.2,528 2082.2,461.4 2170.7,514.5 2170.7,511 2082.2,457.9 						"/>
						<path class="st2" d="M1182.4,191.5l-114-68.4V-13.6l114-68.4l114,68.4v136.7L1182.4,191.5z M1071.4,121.4l111,66.6l111-66.6
							V-11.9l-111-66.6l-111,66.6V121.4z"/>
						<path class="st2" d="M1069.9,124l-114-68.4V-81.1l114-68.4l114,68.4V55.6L1069.9,124z M958.9,53.9l111,66.6l111-66.6V-79.4
							l-111-66.6l-111,66.6V53.9z"/>
						<path class="st2" d="M1069.9,259l-114-68.4V53.9l114-68.4l114,68.4v136.7L1069.9,259z M958.9,188.9l111,66.6l111-66.6V55.6
							l-111-66.6l-111,66.6V188.9z"/>
						<path class="st2" d="M1744.8,259l-114-68.4V53.9l114-68.4l114,68.4v136.7L1744.8,259z M1633.8,188.9l111,66.6l111-66.6V55.6
							l-111-66.6l-111,66.6V188.9z"/>
						<path class="st2" d="M1744.8,124l-114-68.4V-81.1l114-68.4l114,68.4V55.6L1744.8,124z M1633.8,53.9l111,66.6l111-66.6V-79.4
							l-111-66.6l-111,66.6V53.9z"/>
						<path class="st2" d="M1632.3,56.5l-114-68.4v-136.7l114-68.4l114,68.4v136.7L1632.3,56.5z M1521.3-13.6l111,66.6l111-66.6
							v-133.3l-111-66.6l-111,66.6L1521.3-13.6L1521.3-13.6z"/>
						<path class="st2" d="M1857.2,56.5l-114-68.4v-136.7l114-68.4l114,68.4v136.7L1857.2,56.5z M1746.2-13.6l111,66.6l111-66.6
							v-133.3l-111-66.6l-111,66.6V-13.6z"/>
						<path class="st2" d="M1182.4,866.4l-114-68.4V661.3l114-68.4l114,68.4V798L1182.4,866.4z M1071.4,796.3l111,66.6l111-66.6V663
							l-111-66.6l-111,66.6V796.3z"/>
						<path class="st2" d="M1294.8,798.9l-114-68.4V593.8l114-68.4l114,68.4v136.7L1294.8,798.9z M1183.8,728.8l111,66.6l111-66.6
							V595.5l-111-66.6l-111,66.6V728.8z"/>
						<path class="st2" d="M1632.3,731.4l-114-68.4V526.3l114-68.4l114,68.4V663L1632.3,731.4z M1521.3,661.3l111,66.6l111-66.6V528
							l-111-66.6l-111,66.6L1521.3,661.3L1521.3,661.3z"/>
						<path class="st2" d="M1744.8,528.9l-114-68.4V323.8l114-68.4l114,68.4v136.7L1744.8,528.9z M1633.8,458.8l111,66.6l111-66.6
							V325.6l-111-66.6l-111,66.6V458.8z"/>
						<path class="st2" d="M1857.2,461.4l-114-68.4V256.4l114-68.4l114,68.4V393L1857.2,461.4z M1746.2,391.4l111,66.6l111-66.6
							V258.1l-111-66.6l-111,66.6V391.4z"/>
						<path class="st2" d="M1969.7,528.9l-114-68.4V323.8l114-68.4l114,68.4v136.7L1969.7,528.9z M1858.7,458.8l111,66.6l111-66.6
							V325.6l-111-66.6l-111,66.6V458.8z"/>
						<path class="st2" d="M1969.7,798.9l-114-68.4V593.8l114-68.4l114,68.4v136.7L1969.7,798.9z M1858.7,728.8l111,66.6l111-66.6
							V595.5l-111-66.6l-111,66.6V728.8z"/>
						<path class="st2" d="M1969.7,393.9l-114-68.4V188.9l114-68.4l114,68.4v136.7L1969.7,393.9z M1858.7,323.9l111,66.6l111-66.6
							V190.6l-111-66.6l-111,66.6V323.9z"/>
						<path class="st2" d="M1857.2,326.5l-114-68.4V121.4l114-68.4l114,68.4v136.7L1857.2,326.5z M1746.2,256.4l111,66.6l111-66.6
							V123.1l-111-66.6l-111,66.6V256.4z"/>
						<path class="st2" d="M1407.3,596.4l-114-68.4V391.4l114-68.4l114,68.4V528L1407.3,596.4z M1296.3,526.3l111,66.6l111-66.6V393
							l-111-66.6l-111,66.6V526.3z"/>
						<path class="st2" d="M1632.3,596.4l-114-68.4V391.4l114-68.4l114,68.4V528L1632.3,596.4z M1521.3,526.3l111,66.6l111-66.6V393
							l-111-66.6l-111,66.6L1521.3,526.3L1521.3,526.3z"/>
						<path class="st2" d="M1294.8,663.9l-114-68.4V458.8l114-68.4l114,68.4v136.7L1294.8,663.9z M1183.8,593.8l111,66.6l111-66.6
							V460.5l-111-66.6l-111,66.6V593.8z"/>
						<path class="st2" d="M1182.4,596.4l-114-68.4V391.4l114-68.4l114,68.4V528L1182.4,596.4z M1071.4,526.3l111,66.6l111-66.6V393
							l-111-66.6l-111,66.6V526.3z"/>
						<path class="st2" d="M1182.4,731.4l-114-68.4V526.3l114-68.4l114,68.4V663L1182.4,731.4z M1071.4,661.3l111,66.6l111-66.6V528
							l-111-66.6l-111,66.6V661.3z"/>
						<path class="st2" d="M1069.9,663.9l-114-68.4V458.8l114-68.4l114,68.4v136.7L1069.9,663.9z M958.9,593.8l111,66.6l111-66.6
							V460.5l-111-66.6l-111,66.6V593.8z"/>
						<path class="st2" d="M957.4,461.4l-114-68.4V256.4l114-68.4l114,68.4V393L957.4,461.4z M846.4,391.4l111,66.6l111-66.6V258.1
							l-111-66.6l-111,66.6V391.4z"/>
						<path class="st2" d="M1294.8,393.9l-114-68.4V188.9l114-68.4l114,68.4v136.7L1294.8,393.9z M1183.8,323.9l111,66.6l111-66.6
							V190.6l-111-66.6l-111,66.6V323.9z"/>
						<path class="st2" d="M1407.3,461.4l-114-68.4V256.4l114-68.4l114,68.4V393L1407.3,461.4z M1296.3,391.4l111,66.6l111-66.6
							V258.1l-111-66.6l-111,66.6V391.4z"/>
						<path class="st2" d="M1189.1,54.8c0-3.7-3-6.8-6.8-6.8c-3.8,0-6.8,3-6.8,6.8s3,6.8,6.8,6.8
							C1186.1,61.6,1189.1,58.5,1189.1,54.8L1189.1,54.8z"/>
						<path class="st2" d="M966.4,189.7c0-5-4-9-9-9s-9,4-9,9s4,9,9,9l0,0C962.4,198.7,966.4,194.7,966.4,189.7z"/>
						<path class="st2" d="M1188.4,459.7c0-3.3-2.7-6-6-6c-3.3,0-6,2.7-6,6s2.7,6,6,6C1185.7,465.7,1188.4,463,1188.4,459.7z"/>
						<path class="st2" d="M1519.8,393.9l-114-68.4V188.9l114-68.4l114,68.4v136.7L1519.8,393.9z M1408.8,323.9l111,66.6l111-66.6
							V190.6l-111-66.6l-111,66.6L1408.8,323.9L1408.8,323.9z"/>
						<path class="st2" d="M1413.3,189.7c0-3.3-2.7-6-6-6c-3.3,0-6,2.7-6,6s2.7,6,6,6C1410.6,195.7,1413.3,193.1,1413.3,189.7z"/>
						<path class="st2" d="M1755.3,257.2c0-5.8-4.7-10.5-10.5-10.5s-10.5,4.7-10.5,10.5c0,5.8,4.7,10.5,10.5,10.5l0,0
							C1750.6,267.7,1755.3,263,1755.3,257.2z"/>
						<path class="st2" d="M2087.4,189.7c0-2.9-2.4-5.3-5.3-5.3c-2.9,0-5.3,2.4-5.3,5.3s2.4,5.3,5.3,5.3
							C2085,195,2087.4,192.6,2087.4,189.7L2087.4,189.7z"/>
						<path class="st2" d="M1976.5-12.7c0-3.7-3-6.8-6.8-6.8s-6.8,3-6.8,6.8s3,6.8,6.8,6.8S1976.5-9,1976.5-12.7L1976.5-12.7z"/>
						<path class="st2" d="M1976.5,392.2c0-3.7-3-6.8-6.8-6.8s-6.8,3-6.8,6.8s3,6.8,6.8,6.8S1976.5,395.9,1976.5,392.2L1976.5,392.2
							z"/>
						<path class="st2" d="M1753.8-147.7c0-5-4-9-9-9s-9,4-9,9s4,9,9,9S1753.8-142.7,1753.8-147.7z"/>
						<path class="st2" d="M1973.5-282.7c0-2.1-1.7-3.8-3.7-3.8c-2.1,0-3.8,1.7-3.8,3.7c0,2.1,1.7,3.8,3.7,3.8l0,0
							C1971.8-278.9,1973.5-280.6,1973.5-282.7L1973.5-282.7z"/>
						<path class="st2" d="M1863.2-350.2c0-3.3-2.7-6-6-6s-6,2.7-6,6s2.7,6,6,6S1863.2-346.9,1863.2-350.2z"/>
						<path class="st2" d="M1751.5,527.2c0-3.7-3-6.8-6.8-6.8s-6.8,3-6.8,6.8s3,6.8,6.8,6.8S1751.5,530.9,1751.5,527.2L1751.5,527.2
							z"/>
						<path class="st2" d="M1410.3,864.6c0-1.7-1.3-3-3-3c-1.7,0-3,1.3-3,3s1.3,3,3,3C1409,867.6,1410.3,866.3,1410.3,864.6z"/>
						<path class="st2" d="M1528,797.1c0-4.6-3.7-8.3-8.2-8.3s-8.3,3.7-8.3,8.2s3.7,8.3,8.2,8.3l0,0
							C1524.4,805.4,1528,801.7,1528,797.1z"/>
						<path class="st2" d="M1984,527.2c0-7.9-6.4-14.3-14.2-14.3c-7.9,0-14.3,6.4-14.3,14.2s6.4,14.3,14.2,14.3l0,0
							C1977.6,541.4,1984,535.1,1984,527.2L1984,527.2z"/>
						<path class="st2" d="M1079.6,662.1c0-5.4-4.4-9.8-9.8-9.8c-5.4,0-9.8,4.4-9.8,9.8s4.4,9.8,9.8,9.8
							C1075.3,671.9,1079.6,667.5,1079.6,662.1z"/>
						<path class="st2" d="M962.6,864.6c0-2.9-2.4-5.3-5.3-5.3s-5.3,2.4-5.3,5.3s2.4,5.3,5.3,5.3S962.6,867.5,962.6,864.6
							L962.6,864.6z"/>
						<path class="st2" d="M1870.7,729.6c0-7.5-6-13.5-13.5-13.5s-13.5,6-13.5,13.5s6,13.5,13.5,13.5l0,0
							C1864.7,743.1,1870.7,737.1,1870.7,729.6L1870.7,729.6z"/>
						<path class="st2" d="M1300.8,662.1c0-3.3-2.7-6-6-6c-3.3,0-6,2.7-6,6s2.7,6,6,6C1298.1,668.1,1300.8,665.5,1300.8,662.1z"/>
						<path class="st2" d="M1531.8,392.2c0-6.6-5.4-12-12-12s-12,5.4-12,12s5.4,12,12,12S1531.8,398.8,1531.8,392.2z"/>
						<path class="st2" d="M1413.3,54.8c0-3.3-2.7-6-6-6c-3.3,0-6,2.7-6,6s2.7,6,6,6C1410.6,60.8,1413.3,58.1,1413.3,54.8z"/>
						<path class="st2" d="M1297.1-147.7c0-1.2-1-2.3-2.3-2.3c-1.2,0-2.3,1-2.3,2.3c0,1.2,1,2.2,2.2,2.2
							C1296.1-145.4,1297.1-146.4,1297.1-147.7z"/>
						<polygon class="st2" points="2170.7,-28.9 2083.7,-81.1 2083.7,-214.3 2170.7,-266.5 2170.7,-270 2080.7,-216 2080.7,-79.4 
							2170.7,-25.4 						"/>
						<polygon class="st2" points="2170.7,241.1 2083.7,188.9 2083.7,55.6 2170.7,3.4 2170.7,-0.1 2080.7,53.9 2080.7,190.6 
							2170.7,244.6 						"/>
						<polygon class="st2" points="1968.2,-13.6 1968.2,123.1 2082.2,191.5 2170.7,138.4 2170.7,134.9 2082.2,188 1971.2,121.4 
							1971.2,-11.9 2082.2,-78.5 2170.7,-25.4 2170.7,-28.9 2082.2,-82 						"/>
						<polygon class="st2" points="1630.8,728.8 1630.8,865.5 1721.9,920.1 1727.7,920.1 1633.8,863.8 1633.8,730.5 1744.8,663.9 
							1855.7,730.5 1855.7,863.8 1761.9,920.1 1767.7,920.1 1858.7,865.5 1858.7,728.8 1744.8,660.4 						"/>
						<polygon class="st2" points="1008.8,-59.8 1008.8,14 1007,14 1007,-58.8 940.8,-98.5 874.6,-58.8 874.6,14 872.8,14 
							872.8,-59.8 940.8,-100.6 						"/>
						<polygon class="st2" points="1075.8,-19.6 1075.8,14 1074.1,14 1074.1,-18.6 1007.9,-58.3 941.7,-18.6 941.7,14 939.9,14 
							939.9,-19.6 1007.9,-60.4 						"/>
						<polygon class="st2" points="753.8,-69 805.7,-100.1 805.7,-179.6 753.8,-210.7 753.8,-212.8 807.5,-180.6 807.5,-99.1 
							753.8,-66.9 						"/>
						<polygon class="st2" points="874.6,-220.8 874.6,-139.3 806.6,-98.5 753.8,-130.2 753.8,-132.3 806.6,-100.6 872.8,-140.3 
							872.8,-219.8 806.6,-259.5 753.8,-227.9 753.8,-230 806.6,-261.6 						"/>
						<path class="st2" d="M1275.3-461.3v-81.5l68-40.8l68,40.8v81.5l-68,40.8L1275.3-461.3z M1409.5-541.8l-66.2-39.7l-66.2,39.7
							v79.5l66.2,39.7l66.2-39.7V-541.8z"/>
						<path class="st2" d="M1342.4-501.6v-81.5l68-40.8l68,40.8v81.5l-68,40.8L1342.4-501.6z M1476.6-582.1l-66.2-39.7l-66.2,39.7
							v79.5l66.2,39.7l66.2-39.7V-582.1z"/>
						<path class="st2" d="M1342.4-421.1v-81.5l68-40.8l68,40.8v81.5l-68,40.8L1342.4-421.1z M1476.6-501.6l-66.2-39.7l-66.2,39.7
							v79.5l66.2,39.7l66.2-39.7V-501.6z"/>
						<path class="st2" d="M939.9-421.1v-81.5l68-40.8l68,40.8v81.5l-68,40.8L939.9-421.1z M1074-501.6l-66.2-39.7l-66.2,39.7v79.5
							l66.2,39.7l66.2-39.7V-501.6z"/>
						<path class="st2" d="M939.9-501.6v-81.5l68-40.8l68,40.8v81.5l-68,40.8L939.9-501.6z M1074-582.1l-66.2-39.7l-66.2,39.7v79.5
							l66.2,39.7l66.2-39.7V-582.1z"/>
						<path class="st2" d="M1007-541.8v-81.5l68-40.8l68,40.8v81.5l-68,40.8L1007-541.8z M1141.1-622.3l-66.2-39.7l-66.2,39.7v79.5
							l66.2,39.7l66.2-39.7V-622.3z"/>
						<path class="st2" d="M872.8-541.8v-81.5l68-40.8l68,40.8v81.5l-68,40.8L872.8-541.8z M1007-622.3L940.8-662l-66.2,39.7v79.5
							l66.2,39.7l66.2-39.7V-622.3L1007-622.3z"/>
						<path class="st2" d="M1275.3-58.8v-81.5l68-40.8l68,40.8v81.5l-68,40.8L1275.3-58.8z M1409.5-139.3l-66.2-39.7l-66.2,39.7
							v79.5l66.2,39.7l66.2-39.7V-139.3z"/>
						<path class="st2" d="M1208.2-99.1v-81.5l68-40.8l68,40.8v81.5l-68,40.8L1208.2-99.1z M1342.4-179.6l-66.2-39.7l-66.2,39.7
							v79.5l66.2,39.7l66.2-39.7V-179.6z"/>
						<path class="st2" d="M1007-139.3v-81.5l68-40.8l68,40.8v81.5l-68,40.8L1007-139.3z M1141.1-219.8l-66.2-39.7l-66.2,39.7v79.5
							l66.2,39.7l66.2-39.7V-219.8z"/>
						<path class="st2" d="M939.9-260.1v-81.5l68-40.8l68,40.8v81.5l-68,40.8L939.9-260.1z M1074-340.6l-66.2-39.7l-66.2,39.7v79.5
							l66.2,39.7l66.2-39.7V-340.6z"/>
						<path class="st2" d="M872.8-300.3v-81.5l68-40.8l68,40.8v81.5l-68,40.8L872.8-300.3z M1007-380.8l-66.2-39.7l-66.2,39.7v79.5
							l66.2,39.7l66.2-39.7V-380.8L1007-380.8z"/>
						<path class="st2" d="M805.7-260.1v-81.5l68-40.8l68,40.8v81.5l-68,40.8L805.7-260.1z M939.9-340.6l-66.2-39.7l-66.2,39.7v79.5
							l66.2,39.7l66.2-39.7V-340.6z"/>
						<path class="st2" d="M805.7-99.1v-81.5l68-40.8l68,40.8v81.5l-68,40.8L805.7-99.1z M939.9-179.6l-66.2-39.7l-66.2,39.7v79.5
							l66.2,39.7l66.2-39.7V-179.6z"/>
						<path class="st2" d="M805.7-340.6v-81.5l68-40.8l68,40.8v81.5l-68,40.8L805.7-340.6z M939.9-421.1l-66.2-39.7l-66.2,39.7v79.5
							l66.2,39.7l66.2-39.7V-421.1z"/>
						<path class="st2" d="M872.8-380.8v-81.5l68-40.8l68,40.8v81.5l-68,40.8L872.8-380.8z M1007-461.3L940.8-501l-66.2,39.7v79.5
							l66.2,39.7l66.2-39.7V-461.3L1007-461.3z"/>
						<path class="st2" d="M1141.1-219.8v-81.5l68-40.8l68,40.8v81.5l-68,40.8L1141.1-219.8z M1275.3-300.3l-66.2-39.7l-66.2,39.7
							v79.5l66.2,39.7l66.2-39.7V-300.3z"/>
						<path class="st2" d="M1007-219.8v-81.5l68-40.8l68,40.8v81.5l-68,40.8L1007-219.8z M1141.1-300.3l-66.2-39.7l-66.2,39.7v79.5
							l66.2,39.7l66.2-39.7V-300.3z"/>
						<path class="st2" d="M1208.2-179.6v-81.5l68-40.8l68,40.8v81.5l-68,40.8L1208.2-179.6z M1342.4-260.1l-66.2-39.7l-66.2,39.7
							v79.5l66.2,39.7l66.2-39.7V-260.1z"/>
						<path class="st2" d="M1275.3-219.8v-81.5l68-40.8l68,40.8v81.5l-68,40.8L1275.3-219.8z M1409.5-300.3l-66.2-39.7l-66.2,39.7
							v79.5l66.2,39.7l66.2-39.7V-300.3z"/>
						<path class="st2" d="M1275.3-139.3v-81.5l68-40.8l68,40.8v81.5l-68,40.8L1275.3-139.3z M1409.5-219.8l-66.2-39.7l-66.2,39.7
							v79.5l66.2,39.7l66.2-39.7V-219.8z"/>
						<path class="st2" d="M1342.4-179.6v-81.5l68-40.8l68,40.8v81.5l-68,40.8L1342.4-179.6z M1476.6-260.1l-66.2-39.7l-66.2,39.7
							v79.5l66.2,39.7l66.2-39.7V-260.1z"/>
						<path class="st2" d="M1409.5-300.3v-81.5l68-40.8l68,40.8v81.5l-68,40.8L1409.5-300.3z M1543.6-380.8l-66.2-39.7l-66.2,39.7
							v79.5l66.2,39.7l66.2-39.7V-380.8z"/>
						<path class="st2" d="M1208.2-340.6v-81.5l68-40.8l68,40.8v81.5l-68,40.8L1208.2-340.6z M1342.4-421.1l-66.2-39.7l-66.2,39.7
							v79.5l66.2,39.7l66.2-39.7V-421.1z"/>
						<path class="st2" d="M1141.1-300.3v-81.5l68-40.8l68,40.8v81.5l-68,40.8L1141.1-300.3z M1275.3-380.8l-66.2-39.7l-66.2,39.7
							v79.5l66.2,39.7l66.2-39.7V-380.8z"/>
						<path class="st2" d="M1339.3-502.1c0-2.2,1.8-4,4-4c2.2,0,4,1.8,4,4s-1.8,4-4,4C1341.1-498.1,1339.3-499.9,1339.3-502.1z"/>
						<path class="st2" d="M1472.1-421.6c0-3,2.4-5.4,5.4-5.4s5.4,2.4,5.4,5.4s-2.4,5.4-5.4,5.4l0,0
							C1474.5-416.2,1472.1-418.6,1472.1-421.6z"/>
						<path class="st2" d="M1339.7-260.6c0-2,1.6-3.6,3.6-3.6s3.6,1.6,3.6,3.6s-1.6,3.6-3.6,3.6l0,0
							C1341.3-257,1339.7-258.6,1339.7-260.6z"/>
						<path class="st2" d="M1074-340.6v-81.5l68-40.8l68,40.8v81.5l-68,40.8L1074-340.6z M1208.2-421.1l-66.2-39.7l-66.2,39.7v79.5
							l66.2,39.7l66.2-39.7V-421.1z"/>
						<path class="st2" d="M1205.5-421.6c0-2,1.6-3.6,3.6-3.6s3.6,1.6,3.6,3.6s-1.6,3.6-3.6,3.6l0,0
							C1207.1-418,1205.5-419.6,1205.5-421.6z"/>
						<path class="st2" d="M1001.6-381.3c0-3.5,2.8-6.3,6.3-6.3s6.3,2.8,6.3,6.3s-2.8,6.3-6.3,6.3
							C1004.4-375.1,1001.6-377.9,1001.6-381.3z"/>
						<path class="st2" d="M803.5-421.6c0-1.7,1.4-3.1,3.1-3.1s3.1,1.4,3.1,3.1s-1.4,3.1-3.1,3.1S803.5-419.9,803.5-421.6
							L803.5-421.6z"/>
						<path class="st2" d="M869.6-542.3c0-2.2,1.8-4,4-4s4,1.8,4,4s-1.8,4-4,4S869.6-540.1,869.6-542.3z"/>
						<path class="st2" d="M869.6-300.8c0-2.2,1.8-4,4-4s4,1.8,4,4s-1.8,4-4,4S869.6-298.6,869.6-300.8z"/>
						<path class="st2" d="M1002.5-622.9c0-3,2.4-5.4,5.4-5.4s5.4,2.4,5.4,5.4s-2.4,5.4-5.4,5.4l0,0
							C1004.9-617.5,1002.5-619.9,1002.5-622.9C1002.5-622.8,1002.5-622.8,1002.5-622.9z"/>
						<path class="st2" d="M871.4-703.4c0-1.2,1-2.2,2.2-2.2s2.2,1,2.2,2.2s-1,2.2-2.2,2.2l0,0C872.5-701.1,871.4-702.1,871.4-703.4
							z"/>
						<path class="st2" d="M937.2-743.6c0-2,1.6-3.6,3.6-3.6s3.6,1.6,3.6,3.6s-1.6,3.6-3.6,3.6S937.2-741.6,937.2-743.6L937.2-743.6
							z"/>
						<path class="st2" d="M1003.8-220.3c0-2.2,1.8-4,4-4s4,1.8,4,4s-1.8,4-4,4S1003.8-218.1,1003.8-220.3z"/>
						<path class="st2" d="M1207.3-19.1c0-1,0.8-1.8,1.8-1.8s1.8,0.8,1.8,1.8s-0.8,1.8-1.8,1.8C1208.1-17.3,1207.3-18.1,1207.3-19.1
							L1207.3-19.1z"/>
						<path class="st2" d="M1137.1-59.3c0-2.7,2.2-4.9,4.9-4.9s4.9,2.2,4.9,4.9s-2.2,4.9-4.9,4.9l0,0
							C1139.3-54.4,1137.1-56.6,1137.1-59.3L1137.1-59.3z"/>
						<path class="st2" d="M865.2-220.3c0-4.7,3.8-8.5,8.5-8.5c4.7,0,8.5,3.8,8.5,8.5s-3.8,8.5-8.5,8.5l0,0
							C869-211.8,865.2-215.6,865.2-220.3z"/>
						<path class="st2" d="M1404.6-139.8c0-3.2,2.6-5.8,5.8-5.8c3.2,0,5.8,2.6,5.8,5.8s-2.6,5.8-5.8,5.8l0,0
							C1407.2-134,1404.6-136.6,1404.6-139.8z"/>
						<path class="st2" d="M1474.3-19.1c0-1.7,1.4-3.1,3.1-3.1c1.7,0,3.1,1.4,3.2,3.1c0,1.7-1.4,3.1-3.1,3.2l0,0
							C1475.7-15.9,1474.3-17.3,1474.3-19.1z"/>
						<path class="st2" d="M932.7-99.6c0-4.4,3.6-8,8-8c4.4,0,8,3.6,8,8s-3.6,8-8,8C936.3-91.6,932.8-95.2,932.7-99.6z"/>
						<path class="st2" d="M1272.6-139.8c0-2,1.6-3.6,3.6-3.6s3.6,1.6,3.6,3.6s-1.6,3.6-3.6,3.6l0,0
							C1274.2-136.2,1272.6-137.8,1272.6-139.8L1272.6-139.8z"/>
						<path class="st2" d="M1134.9-300.8c0-4,3.2-7.2,7.2-7.2s7.2,3.2,7.2,7.1c0,4-3.2,7.2-7.1,7.2l0,0
							C1138.1-293.7,1134.9-296.9,1134.9-300.8L1134.9-300.8z"/>
						<path class="st2" d="M1205.5-502.1c0-2,1.6-3.6,3.6-3.6s3.6,1.6,3.6,3.6s-1.6,3.6-3.6,3.6l0,0
							C1207.1-498.5,1205.5-500.1,1205.5-502.1z"/>
						<path class="st2" d="M1274.9-622.9c0-0.7,0.6-1.3,1.3-1.3s1.3,0.6,1.3,1.3s-0.6,1.3-1.3,1.3
							C1275.5-621.5,1274.9-622.1,1274.9-622.9C1274.9-622.8,1274.9-622.8,1274.9-622.9z"/>
						<polygon class="st2" points="753.8,-552 805.7,-583.1 805.7,-662.6 753.8,-693.7 753.8,-695.8 807.5,-663.6 807.5,-582.1 
							753.8,-549.9 						"/>
						<polygon class="st2" points="753.8,-391 805.7,-422.1 805.7,-501.6 753.8,-532.7 753.8,-534.8 807.5,-502.6 807.5,-421.1 
							753.8,-388.9 						"/>
						<polygon class="st2" points="874.6,-542.9 874.6,-461.3 806.6,-420.5 753.8,-452.2 753.8,-454.3 806.6,-422.6 872.8,-462.4 
							872.8,-541.8 806.6,-581.6 753.8,-549.9 753.8,-552 806.6,-583.6 						"/>
						<polygon class="st2" points="1075.8,-100.1 1075.8,-18.6 1021.5,14 1018,14 1074.1,-19.6 1074.1,-99.1 1007.9,-138.8 
							941.7,-99.1 941.7,-19.6 997.7,14 994.2,14 939.9,-18.6 939.9,-100.1 1007.9,-140.9 						"/>
					</g>
				</g>
			</g>
		</g>
	</g>
</g>
</svg>
