<?xml version="1.0" encoding="utf-8"?>
<!-- Generator: Adobe Illustrator 22.1.0, SVG Export Plug-In . SVG Version: 6.00 Build 0)  -->
<svg version="1.1" xmlns="http://www.w3.org/2000/svg" xmlns:xlink="http://www.w3.org/1999/xlink" x="0px" y="0px"
	 viewBox="0 0 275.7 256" style="enable-background:new 0 0 275.7 256;" xml:space="preserve">
<style type="text/css">
	.st0-triangle{clip-path:url(#SVGID_2_);}
	.st1-triangle{fill:#FFFFFF;}
</style>
<title>Ресурс 1</title>
<g id="Слой_2_1_">
	<g id="Layer_1">
		<g>
			<defs>
				<polygon id="SVGID_1_" points="0,-0.6 253.1,256.6 0,255.6 				"/>
			</defs>
			<clipPath id="SVGID_2_">
				<use xlink:href="#SVGID_1_"  style="overflow:visible;"/>
			</clipPath>
			<g class="st0-triangle">
				<path class="st1-triangle" d="M-4.9,355.1c1.7,0,3,1.3,3,3s-1.3,3-3,3s-3-1.3-3-3S-6.5,355.1-4.9,355.1z"/>
				<circle class="st1-triangle" cx="-4.9" cy="345.8" r="3"/>
				<circle class="st1-triangle" cx="-4.9" cy="333.5" r="3"/>
				<path class="st1-triangle" d="M-4.9,318.3c1.7,0,3,1.3,3,3s-1.3,3-3,3s-3-1.3-3-3S-6.5,318.3-4.9,318.3z"/>
				<circle class="st1-triangle" cx="-4.9" cy="309" r="3"/>
				<circle class="st1-triangle" cx="-4.9" cy="296.7" r="3"/>
				<path class="st1-triangle" d="M-4.9,281.5c1.7,0,3,1.3,3,3s-1.3,3-3,3s-3-1.3-3-3S-6.5,281.5-4.9,281.5z"/>
				<circle class="st1-triangle" cx="-4.9" cy="272.2" r="3"/>
				<path class="st1-triangle" d="M-4.9,257c1.7,0,3,1.3,3,3s-1.3,3-3,3s-3-1.3-3-3S-6.5,257-4.9,257z"/>
				<circle class="st1-triangle" cx="-4.9" cy="247.7" r="3"/>
				<circle class="st1-triangle" cx="-4.9" cy="235.4" r="3"/>
				<path class="st1-triangle" d="M-4.9,220.2c1.7,0,3,1.3,3,3s-1.3,3-3,3s-3-1.3-3-3S-6.5,220.2-4.9,220.2z"/>
				<circle class="st1-triangle" cx="-4.9" cy="210.9" r="3"/>
				<circle class="st1-triangle" cx="-4.9" cy="198.6" r="3"/>
				<circle class="st1-triangle" cx="-4.9" cy="186.3" r="3"/>
				<circle class="st1-triangle" cx="-4.9" cy="174.1" r="3"/>
				<path class="st1-triangle" d="M-4.9,158.9c1.7,0,3,1.3,3,3s-1.3,3-3,3s-3-1.3-3-3S-6.5,158.9-4.9,158.9z"/>
				<circle class="st1-triangle" cx="-4.9" cy="149.5" r="3"/>
				<circle class="st1-triangle" cx="-4.9" cy="137.3" r="3"/>
				<path class="st1-triangle" d="M-4.9,122c1.7,0,3,1.3,3,3s-1.3,3-3,3s-3-1.3-3-3S-6.5,122-4.9,122z"/>
				<circle class="st1-triangle" cx="-4.9" cy="112.7" r="3"/>
				<circle class="st1-triangle" cx="-4.9" cy="100.5" r="3"/>
				<circle class="st1-triangle" cx="-4.9" cy="88.2" r="3"/>
				<circle class="st1-triangle" cx="-4.9" cy="76" r="3"/>
				<path class="st1-triangle" d="M-4.9,60.7c1.7,0,3,1.3,3,3s-1.3,3-3,3s-3-1.3-3-3S-6.5,60.7-4.9,60.7z"/>
				<circle class="st1-triangle" cx="-4.9" cy="51.4" r="3"/>
				<circle class="st1-triangle" cx="-4.9" cy="39.2" r="3"/>
				<path class="st1-triangle" d="M-4.9,23.9c1.7,0,3,1.3,3,3s-1.3,3-3,3s-3-1.3-3-3S-6.5,23.9-4.9,23.9z"/>
				<circle class="st1-triangle" cx="-4.9" cy="14.6" r="3"/>
				<circle class="st1-triangle" cx="-4.9" cy="2.4" r="3"/>
				<circle class="st1-triangle" cx="-4.9" cy="-9.9" r="3"/>
				<circle class="st1-triangle" cx="-4.9" cy="-22.2" r="3"/>
				<path class="st1-triangle" d="M7.3,355.1c1.7,0,3,1.3,3,3s-1.3,3-3,3s-3-1.3-3-3S5.7,355.1,7.3,355.1z"/>
				
					<ellipse transform="matrix(0.9999 -1.514628e-02 1.514628e-02 0.9999 -5.2363 0.151)" class="st1-triangle" cx="7.3" cy="345.8" rx="3" ry="3"/>
				
					<ellipse transform="matrix(0.9999 -1.514628e-02 1.514628e-02 0.9999 -5.0506 0.1496)" class="st1-triangle" cx="7.3" cy="333.5" rx="3" ry="3"/>
				<path class="st1-triangle" d="M7.3,318.3c1.7,0,3,1.3,3,3s-1.3,3-3,3s-3-1.3-3-3S5.7,318.3,7.3,318.3z"/>
				
					<ellipse transform="matrix(0.9999 -1.514628e-02 1.514628e-02 0.9999 -4.6791 0.1468)" class="st1-triangle" cx="7.3" cy="309" rx="3" ry="3"/>
				
					<ellipse transform="matrix(0.9999 -1.514628e-02 1.514628e-02 0.9999 -4.4934 0.1454)" class="st1-triangle" cx="7.3" cy="296.7" rx="3" ry="3"/>
				<path class="st1-triangle" d="M7.3,281.5c1.7,0,3,1.3,3,3s-1.3,3-3,3s-3-1.3-3-3S5.7,281.5,7.3,281.5z"/>
				
					<ellipse transform="matrix(0.9999 -1.514628e-02 1.514628e-02 0.9999 -4.1218 0.1425)" class="st1-triangle" cx="7.3" cy="272.2" rx="3" ry="3"/>
				<path class="st1-triangle" d="M7.3,257c1.7,0,3,1.3,3,3s-1.3,3-3,3s-3-1.3-3-3S5.7,257,7.3,257z"/>
				
					<ellipse transform="matrix(0.9999 -1.514628e-02 1.514628e-02 0.9999 -3.7503 0.1397)" class="st1-triangle" cx="7.3" cy="247.7" rx="3" ry="3"/>
				
					<ellipse transform="matrix(0.9999 -1.514628e-02 1.514628e-02 0.9999 -3.5644 0.1383)" class="st1-triangle" cx="7.3" cy="235.4" rx="3" ry="3"/>
				<path class="st1-triangle" d="M7.3,220.2c1.7,0,3,1.3,3,3s-1.3,3-3,3s-3-1.3-3-3S5.7,220.2,7.3,220.2z"/>
				<circle class="st1-triangle" cx="7.3" cy="210.9" r="3"/>
				<circle class="st1-triangle" cx="7.3" cy="198.6" r="3"/>
				<circle class="st1-triangle" cx="7.3" cy="186.3" r="3"/>
				<circle class="st1-triangle" cx="7.3" cy="174.1" r="3"/>
				<path class="st1-triangle" d="M7.3,158.9c1.7,0,3,1.3,3,3s-1.3,3-3,3s-3-1.3-3-3S5.7,158.9,7.3,158.9z"/>
				<circle class="st1-triangle" cx="7.3" cy="149.5" r="3"/>
				<circle class="st1-triangle" cx="7.3" cy="137.3" r="3"/>
				<path class="st1-triangle" d="M7.3,122c1.7,0,3,1.3,3,3s-1.3,3-3,3s-3-1.3-3-3S5.7,122,7.3,122z"/>
				<circle class="st1-triangle" cx="7.3" cy="112.7" r="3"/>
				<circle class="st1-triangle" cx="7.3" cy="100.5" r="3"/>
				<circle class="st1-triangle" cx="7.3" cy="88.2" r="3"/>
				<circle class="st1-triangle" cx="7.3" cy="76" r="3"/>
				<path class="st1-triangle" d="M7.3,60.7c1.7,0,3,1.3,3,3s-1.3,3-3,3s-3-1.3-3-3S5.7,60.7,7.3,60.7z"/>
				<circle class="st1-triangle" cx="7.3" cy="51.4" r="3"/>
				<circle class="st1-triangle" cx="7.3" cy="39.2" r="3"/>
				<path class="st1-triangle" d="M7.3,23.9c1.7,0,3,1.3,3,3s-1.3,3-3,3s-3-1.3-3-3S5.7,23.9,7.3,23.9z"/>
				<circle class="st1-triangle" cx="7.3" cy="14.6" r="3"/>
				<circle class="st1-triangle" cx="7.3" cy="2.4" r="3"/>
				<circle class="st1-triangle" cx="7.3" cy="-9.9" r="3"/>
				<circle class="st1-triangle" cx="7.3" cy="-22.2" r="3"/>
				<path class="st1-triangle" d="M19.6,355.1c1.7,0,3,1.3,3,3s-1.3,3-3,3c-1.7,0-3-1.3-3-3S18,355.1,19.6,355.1z"/>
				<path class="st1-triangle" d="M19.6,342.8c1.7,0,3,1.3,3,3s-1.3,3-3,3c-1.7,0-3-1.3-3-3S18,342.8,19.6,342.8z"/>
				<path class="st1-triangle" d="M19.6,330.6c1.7,0,3,1.3,3,3s-1.3,3-3,3c-1.7,0-3-1.3-3-3S18,330.6,19.6,330.6z"/>
				<path class="st1-triangle" d="M19.6,318.3c1.7,0,3,1.3,3,3s-1.3,3-3,3c-1.7,0-3-1.3-3-3S18,318.3,19.6,318.3z"/>
				<path class="st1-triangle" d="M19.6,306c1.7,0,3,1.3,3,3s-1.3,3-3,3c-1.7,0-3-1.3-3-3S18,306,19.6,306z"/>
				<path class="st1-triangle" d="M19.6,293.8c1.7,0,3,1.3,3,3s-1.3,3-3,3c-1.7,0-3-1.3-3-3S18,293.8,19.6,293.8z"/>
				<path class="st1-triangle" d="M19.6,281.5c1.7,0,3,1.3,3,3s-1.3,3-3,3c-1.7,0-3-1.3-3-3S18,281.5,19.6,281.5z"/>
				<path class="st1-triangle" d="M19.6,269.2c1.7,0,3,1.3,3,3s-1.3,3-3,3c-1.7,0-3-1.3-3-3S18,269.2,19.6,269.2z"/>
				<path class="st1-triangle" d="M19.6,257c1.7,0,3,1.3,3,3s-1.3,3-3,3c-1.7,0-3-1.3-3-3S18,257,19.6,257z"/>
				<path class="st1-triangle" d="M19.6,244.7c1.7,0,3,1.3,3,3s-1.3,3-3,3c-1.7,0-3-1.3-3-3S18,244.7,19.6,244.7z"/>
				<path class="st1-triangle" d="M19.6,232.4c1.7,0,3,1.3,3,3s-1.3,3-3,3c-1.7,0-3-1.3-3-3S18,232.4,19.6,232.4z"/>
				<path class="st1-triangle" d="M19.6,220.2c1.7,0,3,1.3,3,3s-1.3,3-3,3c-1.7,0-3-1.3-3-3S18,220.2,19.6,220.2z"/>
				<path class="st1-triangle" d="M19.6,207.9c1.7,0,3,1.3,3,3s-1.3,3-3,3c-1.7,0-3-1.3-3-3S18,207.9,19.6,207.9z"/>
				<path class="st1-triangle" d="M19.6,195.6c1.7,0,3,1.3,3,3s-1.3,3-3,3c-1.7,0-3-1.3-3-3S18,195.6,19.6,195.6z"/>
				<path class="st1-triangle" d="M19.6,183.4c1.7,0,3,1.3,3,3s-1.3,3-3,3c-1.7,0-3-1.3-3-3S18,183.4,19.6,183.4z"/>
				<path class="st1-triangle" d="M19.6,171.1c1.7,0,3,1.3,3,3s-1.3,3-3,3c-1.7,0-3-1.3-3-3S18,171.1,19.6,171.1z"/>
				<path class="st1-triangle" d="M19.6,158.9c1.7,0,3,1.3,3,3s-1.3,3-3,3c-1.7,0-3-1.3-3-3S18,158.9,19.6,158.9z"/>
				<path class="st1-triangle" d="M19.6,146.6c1.7,0,3,1.3,3,3s-1.3,3-3,3c-1.7,0-3-1.3-3-3S18,146.6,19.6,146.6z"/>
				<path class="st1-triangle" d="M19.6,134.3c1.7,0,3,1.3,3,3s-1.3,3-3,3c-1.7,0-3-1.3-3-3S18,134.3,19.6,134.3z"/>
				<path class="st1-triangle" d="M19.6,122c1.7,0,3,1.3,3,3s-1.3,3-3,3c-1.7,0-3-1.3-3-3S18,122,19.6,122z"/>
				<path class="st1-triangle" d="M19.6,109.8c1.7,0,3,1.3,3,3s-1.3,3-3,3c-1.7,0-3-1.3-3-3S18,109.8,19.6,109.8z"/>
				<path class="st1-triangle" d="M19.6,97.5c1.7,0,3,1.3,3,3s-1.3,3-3,3c-1.7,0-3-1.3-3-3S18,97.5,19.6,97.5z"/>
				<path class="st1-triangle" d="M19.6,85.3c1.7,0,3,1.3,3,3s-1.3,3-3,3c-1.7,0-3-1.3-3-3S18,85.3,19.6,85.3z"/>
				<path class="st1-triangle" d="M19.6,73c1.7,0,3,1.3,3,3s-1.3,3-3,3c-1.7,0-3-1.3-3-3S18,73,19.6,73z"/>
				<path class="st1-triangle" d="M19.6,60.7c1.7,0,3,1.3,3,3s-1.3,3-3,3c-1.7,0-3-1.3-3-3S18,60.7,19.6,60.7z"/>
				<path class="st1-triangle" d="M19.6,48.5c1.7,0,3,1.3,3,3s-1.3,3-3,3c-1.7,0-3-1.3-3-3S18,48.5,19.6,48.5z"/>
				<path class="st1-triangle" d="M19.6,36.2c1.7,0,3,1.3,3,3s-1.3,3-3,3c-1.7,0-3-1.3-3-3S18,36.2,19.6,36.2z"/>
				<path class="st1-triangle" d="M19.6,23.9c1.7,0,3,1.3,3,3s-1.3,3-3,3c-1.7,0-3-1.3-3-3S18,23.9,19.6,23.9z"/>
				<path class="st1-triangle" d="M19.6,11.7c1.7,0,3,1.3,3,3s-1.3,3-3,3c-1.7,0-3-1.3-3-3S18,11.7,19.6,11.7z"/>
				<path class="st1-triangle" d="M19.6-0.6c1.7,0,3,1.3,3,3s-1.3,3-3,3c-1.7,0-3-1.3-3-3S18-0.6,19.6-0.6z"/>
				<path class="st1-triangle" d="M19.6-12.9c1.7,0,3,1.3,3,3s-1.3,3-3,3c-1.7,0-3-1.3-3-3S18-12.9,19.6-12.9z"/>
				<path class="st1-triangle" d="M19.6-25.1c1.7,0,3,1.3,3,3s-1.3,3-3,3c-1.7,0-3-1.3-3-3S18-25.1,19.6-25.1z"/>
				<path class="st1-triangle" d="M31.9,355.1c1.7,0,3,1.3,3,3s-1.3,3-3,3s-3-1.3-3-3S30.2,355.1,31.9,355.1z"/>
				<circle class="st1-triangle" cx="31.9" cy="345.8" r="3"/>
				<circle class="st1-triangle" cx="31.9" cy="333.5" r="3"/>
				<path class="st1-triangle" d="M31.9,318.3c1.7,0,3,1.3,3,3s-1.3,3-3,3s-3-1.3-3-3S30.2,318.3,31.9,318.3z"/>
				<circle class="st1-triangle" cx="31.9" cy="309" r="3"/>
				<circle class="st1-triangle" cx="31.9" cy="296.7" r="3"/>
				<path class="st1-triangle" d="M31.9,281.5c1.7,0,3,1.3,3,3s-1.3,3-3,3s-3-1.3-3-3S30.2,281.5,31.9,281.5z"/>
				<circle class="st1-triangle" cx="31.9" cy="272.2" r="3"/>
				<path class="st1-triangle" d="M31.9,257c1.7,0,3,1.3,3,3s-1.3,3-3,3s-3-1.3-3-3S30.2,257,31.9,257z"/>
				<circle class="st1-triangle" cx="31.9" cy="247.7" r="3"/>
				<circle class="st1-triangle" cx="31.9" cy="235.4" r="3"/>
				<path class="st1-triangle" d="M31.9,220.2c1.7,0,3,1.3,3,3s-1.3,3-3,3s-3-1.3-3-3S30.2,220.2,31.9,220.2z"/>
				<circle class="st1-triangle" cx="31.9" cy="210.9" r="3"/>
				<circle class="st1-triangle" cx="31.9" cy="198.6" r="3"/>
				<circle class="st1-triangle" cx="31.9" cy="186.3" r="3"/>
				<circle class="st1-triangle" cx="31.9" cy="174.1" r="3"/>
				<path class="st1-triangle" d="M31.9,158.9c1.7,0,3,1.3,3,3s-1.3,3-3,3s-3-1.3-3-3S30.2,158.9,31.9,158.9z"/>
				<circle class="st1-triangle" cx="31.9" cy="149.5" r="3"/>
				<circle class="st1-triangle" cx="31.9" cy="137.3" r="3"/>
				<path class="st1-triangle" d="M31.9,122c1.7,0,3,1.3,3,3s-1.3,3-3,3s-3-1.3-3-3S30.2,122,31.9,122z"/>
				<circle class="st1-triangle" cx="31.9" cy="112.7" r="3"/>
				<circle class="st1-triangle" cx="31.9" cy="100.5" r="3"/>
				<circle class="st1-triangle" cx="31.9" cy="88.2" r="3"/>
				<circle class="st1-triangle" cx="31.9" cy="76" r="3"/>
				<path class="st1-triangle" d="M31.9,60.7c1.7,0,3,1.3,3,3s-1.3,3-3,3s-3-1.3-3-3S30.2,60.7,31.9,60.7z"/>
				<circle class="st1-triangle" cx="31.9" cy="51.4" r="3"/>
				<circle class="st1-triangle" cx="31.9" cy="39.2" r="3"/>
				<path class="st1-triangle" d="M31.9,23.9c1.7,0,3,1.3,3,3s-1.3,3-3,3s-3-1.3-3-3S30.2,23.9,31.9,23.9z"/>
				<circle class="st1-triangle" cx="31.9" cy="14.6" r="3"/>
				<circle class="st1-triangle" cx="31.9" cy="2.4" r="3"/>
				<circle class="st1-triangle" cx="31.9" cy="-9.9" r="3"/>
				<circle class="st1-triangle" cx="31.9" cy="-22.2" r="3"/>
				<path class="st1-triangle" d="M44.1,355.1c1.7,0,3,1.3,3,3s-1.3,3-3,3s-3-1.3-3-3S42.5,355.1,44.1,355.1z"/>
				<path class="st1-triangle" d="M44.1,342.8c1.7,0,3,1.3,3,3s-1.3,3-3,3s-3-1.3-3-3S42.5,342.8,44.1,342.8z"/>
				<path class="st1-triangle" d="M44.1,330.6c1.7,0,3,1.3,3,3s-1.3,3-3,3s-3-1.3-3-3S42.5,330.6,44.1,330.6z"/>
				<path class="st1-triangle" d="M44.1,318.3c1.7,0,3,1.3,3,3s-1.3,3-3,3s-3-1.3-3-3S42.5,318.3,44.1,318.3z"/>
				<path class="st1-triangle" d="M44.1,306c1.7,0,3,1.3,3,3s-1.3,3-3,3s-3-1.3-3-3S42.5,306,44.1,306z"/>
				<path class="st1-triangle" d="M44.1,293.8c1.7,0,3,1.3,3,3s-1.3,3-3,3s-3-1.3-3-3S42.5,293.8,44.1,293.8z"/>
				<path class="st1-triangle" d="M44.1,281.5c1.7,0,3,1.3,3,3s-1.3,3-3,3s-3-1.3-3-3S42.5,281.5,44.1,281.5z"/>
				<path class="st1-triangle" d="M44.1,269.2c1.7,0,3,1.3,3,3s-1.3,3-3,3s-3-1.3-3-3S42.5,269.2,44.1,269.2z"/>
				<path class="st1-triangle" d="M44.1,257c1.7,0,3,1.3,3,3s-1.3,3-3,3s-3-1.3-3-3S42.5,257,44.1,257z"/>
				<path class="st1-triangle" d="M44.1,244.7c1.7,0,3,1.3,3,3s-1.3,3-3,3s-3-1.3-3-3S42.5,244.7,44.1,244.7z"/>
				<path class="st1-triangle" d="M44.1,232.4c1.7,0,3,1.3,3,3s-1.3,3-3,3s-3-1.3-3-3S42.5,232.4,44.1,232.4z"/>
				<path class="st1-triangle" d="M44.1,220.2c1.7,0,3,1.3,3,3s-1.3,3-3,3s-3-1.3-3-3S42.5,220.2,44.1,220.2z"/>
				<path class="st1-triangle" d="M44.1,207.9c1.7,0,3,1.3,3,3s-1.3,3-3,3s-3-1.3-3-3S42.5,207.9,44.1,207.9z"/>
				<path class="st1-triangle" d="M44.1,195.6c1.7,0,3,1.3,3,3s-1.3,3-3,3s-3-1.3-3-3S42.5,195.6,44.1,195.6z"/>
				<path class="st1-triangle" d="M44.1,183.4c1.7,0,3,1.3,3,3s-1.3,3-3,3s-3-1.3-3-3S42.5,183.4,44.1,183.4z"/>
				<path class="st1-triangle" d="M44.1,171.1c1.7,0,3,1.3,3,3s-1.3,3-3,3s-3-1.3-3-3S42.5,171.1,44.1,171.1z"/>
				<path class="st1-triangle" d="M44.1,158.9c1.7,0,3,1.3,3,3s-1.3,3-3,3s-3-1.3-3-3S42.5,158.9,44.1,158.9z"/>
				<path class="st1-triangle" d="M44.1,146.6c1.7,0,3,1.3,3,3s-1.3,3-3,3s-3-1.3-3-3S42.5,146.6,44.1,146.6z"/>
				<path class="st1-triangle" d="M44.1,134.3c1.7,0,3,1.3,3,3s-1.3,3-3,3s-3-1.3-3-3S42.5,134.3,44.1,134.3z"/>
				<path class="st1-triangle" d="M44.1,122c1.7,0,3,1.3,3,3s-1.3,3-3,3s-3-1.3-3-3S42.5,122,44.1,122z"/>
				<path class="st1-triangle" d="M44.1,109.8c1.7,0,3,1.3,3,3s-1.3,3-3,3s-3-1.3-3-3S42.5,109.8,44.1,109.8z"/>
				<path class="st1-triangle" d="M44.1,97.5c1.7,0,3,1.3,3,3s-1.3,3-3,3s-3-1.3-3-3S42.5,97.5,44.1,97.5z"/>
				<path class="st1-triangle" d="M44.1,85.3c1.7,0,3,1.3,3,3s-1.3,3-3,3s-3-1.3-3-3S42.5,85.3,44.1,85.3z"/>
				<path class="st1-triangle" d="M44.1,73c1.7,0,3,1.3,3,3s-1.3,3-3,3s-3-1.3-3-3S42.5,73,44.1,73z"/>
				<path class="st1-triangle" d="M44.1,60.7c1.7,0,3,1.3,3,3s-1.3,3-3,3s-3-1.3-3-3S42.5,60.7,44.1,60.7z"/>
				<path class="st1-triangle" d="M44.1,48.5c1.7,0,3,1.3,3,3s-1.3,3-3,3s-3-1.3-3-3S42.5,48.5,44.1,48.5z"/>
				<path class="st1-triangle" d="M44.1,36.2c1.7,0,3,1.3,3,3s-1.3,3-3,3s-3-1.3-3-3S42.5,36.2,44.1,36.2z"/>
				<path class="st1-triangle" d="M44.1,23.9c1.7,0,3,1.3,3,3s-1.3,3-3,3s-3-1.3-3-3S42.5,23.9,44.1,23.9z"/>
				<path class="st1-triangle" d="M44.1,11.7c1.7,0,3,1.3,3,3s-1.3,3-3,3s-3-1.3-3-3S42.5,11.7,44.1,11.7z"/>
				<path class="st1-triangle" d="M44.1-0.6c1.7,0,3,1.3,3,3s-1.3,3-3,3s-3-1.3-3-3S42.5-0.6,44.1-0.6z"/>
				<path class="st1-triangle" d="M44.1-12.9c1.7,0,3,1.3,3,3s-1.3,3-3,3s-3-1.3-3-3S42.5-12.9,44.1-12.9z"/>
				<path class="st1-triangle" d="M44.1-25.1c1.7,0,3,1.3,3,3s-1.3,3-3,3s-3-1.3-3-3S42.5-25.1,44.1-25.1z"/>
				<path class="st1-triangle" d="M56.4,355.1c1.7,0,3,1.3,3,3s-1.3,3-3,3s-3-1.3-3-3S54.7,355.1,56.4,355.1z"/>
				<circle class="st1-triangle" cx="56.4" cy="345.8" r="3"/>
				<circle class="st1-triangle" cx="56.4" cy="333.5" r="3"/>
				<path class="st1-triangle" d="M56.4,318.3c1.7,0,3,1.3,3,3s-1.3,3-3,3s-3-1.3-3-3S54.7,318.3,56.4,318.3z"/>
				<circle class="st1-triangle" cx="56.4" cy="309" r="3"/>
				<circle class="st1-triangle" cx="56.4" cy="296.7" r="3"/>
				<path class="st1-triangle" d="M56.4,281.5c1.7,0,3,1.3,3,3s-1.3,3-3,3s-3-1.3-3-3S54.7,281.5,56.4,281.5z"/>
				<circle class="st1-triangle" cx="56.4" cy="272.2" r="3"/>
				<path class="st1-triangle" d="M56.4,257c1.7,0,3,1.3,3,3s-1.3,3-3,3s-3-1.3-3-3S54.7,257,56.4,257z"/>
				<circle class="st1-triangle" cx="56.4" cy="247.7" r="3"/>
				<circle class="st1-triangle" cx="56.4" cy="235.4" r="3"/>
				<path class="st1-triangle" d="M56.4,220.2c1.7,0,3,1.3,3,3s-1.3,3-3,3s-3-1.3-3-3S54.7,220.2,56.4,220.2z"/>
				<circle class="st1-triangle" cx="56.4" cy="210.9" r="3"/>
				<circle class="st1-triangle" cx="56.4" cy="198.6" r="3"/>
				<circle class="st1-triangle" cx="56.4" cy="186.3" r="3"/>
				<circle class="st1-triangle" cx="56.4" cy="174.1" r="3"/>
				<path class="st1-triangle" d="M56.4,158.9c1.7,0,3,1.3,3,3s-1.3,3-3,3s-3-1.3-3-3S54.7,158.9,56.4,158.9z"/>
				<circle class="st1-triangle" cx="56.4" cy="149.5" r="3"/>
				<circle class="st1-triangle" cx="56.4" cy="137.3" r="3"/>
				<path class="st1-triangle" d="M56.4,122c1.7,0,3,1.3,3,3s-1.3,3-3,3s-3-1.3-3-3S54.7,122,56.4,122z"/>
				<circle class="st1-triangle" cx="56.4" cy="112.7" r="3"/>
				<circle class="st1-triangle" cx="56.4" cy="100.5" r="3"/>
				<circle class="st1-triangle" cx="56.4" cy="88.2" r="3"/>
				<circle class="st1-triangle" cx="56.4" cy="76" r="3"/>
				<path class="st1-triangle" d="M56.4,60.7c1.7,0,3,1.3,3,3s-1.3,3-3,3s-3-1.3-3-3S54.7,60.7,56.4,60.7z"/>
				<circle class="st1-triangle" cx="56.4" cy="51.4" r="3"/>
				<circle class="st1-triangle" cx="56.4" cy="39.2" r="3"/>
				<path class="st1-triangle" d="M56.4,23.9c1.7,0,3,1.3,3,3s-1.3,3-3,3s-3-1.3-3-3S54.7,23.9,56.4,23.9z"/>
				<circle class="st1-triangle" cx="56.4" cy="14.6" r="3"/>
				<circle class="st1-triangle" cx="56.4" cy="2.4" r="3"/>
				<circle class="st1-triangle" cx="56.4" cy="-9.9" r="3"/>
				<circle class="st1-triangle" cx="56.4" cy="-22.2" r="3"/>
				<path class="st1-triangle" d="M68.7,355.1c1.7,0,3,1.3,3,3s-1.3,3-3,3s-3-1.3-3-3S67,355.1,68.7,355.1z"/>
				<circle class="st1-triangle" cx="68.7" cy="345.8" r="3"/>
				<circle class="st1-triangle" cx="68.7" cy="333.5" r="3"/>
				<path class="st1-triangle" d="M68.7,318.3c1.7,0,3,1.3,3,3s-1.3,3-3,3s-3-1.3-3-3S67,318.3,68.7,318.3z"/>
				<circle class="st1-triangle" cx="68.7" cy="309" r="3"/>
				<circle class="st1-triangle" cx="68.7" cy="296.7" r="3"/>
				<path class="st1-triangle" d="M68.7,281.5c1.7,0,3,1.3,3,3s-1.3,3-3,3s-3-1.3-3-3S67,281.5,68.7,281.5z"/>
				<circle class="st1-triangle" cx="68.7" cy="272.2" r="3"/>
				<path class="st1-triangle" d="M68.7,257c1.7,0,3,1.3,3,3s-1.3,3-3,3s-3-1.3-3-3S67,257,68.7,257z"/>
				<circle class="st1-triangle" cx="68.7" cy="247.7" r="3"/>
				<circle class="st1-triangle" cx="68.7" cy="235.4" r="3"/>
				<path class="st1-triangle" d="M68.7,220.2c1.7,0,3,1.3,3,3s-1.3,3-3,3s-3-1.3-3-3S67,220.2,68.7,220.2z"/>
				<circle class="st1-triangle" cx="68.7" cy="210.9" r="3"/>
				<circle class="st1-triangle" cx="68.7" cy="198.6" r="3"/>
				<circle class="st1-triangle" cx="68.7" cy="186.3" r="3"/>
				<circle class="st1-triangle" cx="68.7" cy="174.1" r="3"/>
				<path class="st1-triangle" d="M68.7,158.9c1.7,0,3,1.3,3,3s-1.3,3-3,3s-3-1.3-3-3S67,158.9,68.7,158.9z"/>
				<circle class="st1-triangle" cx="68.7" cy="149.5" r="3"/>
				<circle class="st1-triangle" cx="68.7" cy="137.3" r="3"/>
				<path class="st1-triangle" d="M68.7,122c1.7,0,3,1.3,3,3s-1.3,3-3,3s-3-1.3-3-3S67,122,68.7,122z"/>
				<circle class="st1-triangle" cx="68.7" cy="112.7" r="3"/>
				<circle class="st1-triangle" cx="68.7" cy="100.5" r="3"/>
				<circle class="st1-triangle" cx="68.7" cy="88.2" r="3"/>
				<circle class="st1-triangle" cx="68.7" cy="76" r="3"/>
				<path class="st1-triangle" d="M68.7,60.7c1.7,0,3,1.3,3,3s-1.3,3-3,3s-3-1.3-3-3S67,60.7,68.7,60.7z"/>
				<circle class="st1-triangle" cx="68.7" cy="51.4" r="3"/>
				<circle class="st1-triangle" cx="68.7" cy="39.2" r="3"/>
				<path class="st1-triangle" d="M68.7,23.9c1.7,0,3,1.3,3,3s-1.3,3-3,3s-3-1.3-3-3S67,23.9,68.7,23.9z"/>
				<circle class="st1-triangle" cx="68.7" cy="14.6" r="3"/>
				<circle class="st1-triangle" cx="68.7" cy="2.4" r="3"/>
				<circle class="st1-triangle" cx="68.7" cy="-9.9" r="3"/>
				<circle class="st1-triangle" cx="68.7" cy="-22.2" r="3"/>
				<path class="st1-triangle" d="M80.9,355.1c1.7,0,3,1.3,3,3s-1.3,3-3,3s-3-1.3-3-3S79.3,355.1,80.9,355.1z"/>
				<path class="st1-triangle" d="M80.9,342.8c1.7,0,3,1.3,3,3s-1.3,3-3,3s-3-1.3-3-3S79.3,342.8,80.9,342.8z"/>
				<path class="st1-triangle" d="M80.9,330.6c1.7,0,3,1.3,3,3s-1.3,3-3,3s-3-1.3-3-3S79.3,330.6,80.9,330.6z"/>
				<path class="st1-triangle" d="M80.9,318.3c1.7,0,3,1.3,3,3s-1.3,3-3,3s-3-1.3-3-3S79.3,318.3,80.9,318.3z"/>
				<path class="st1-triangle" d="M80.9,306c1.7,0,3,1.3,3,3s-1.3,3-3,3s-3-1.3-3-3S79.3,306,80.9,306z"/>
				<path class="st1-triangle" d="M80.9,293.8c1.7,0,3,1.3,3,3s-1.3,3-3,3s-3-1.3-3-3S79.3,293.8,80.9,293.8z"/>
				<path class="st1-triangle" d="M80.9,281.5c1.7,0,3,1.3,3,3s-1.3,3-3,3s-3-1.3-3-3S79.3,281.5,80.9,281.5z"/>
				<path class="st1-triangle" d="M80.9,269.2c1.7,0,3,1.3,3,3s-1.3,3-3,3s-3-1.3-3-3S79.3,269.2,80.9,269.2z"/>
				<path class="st1-triangle" d="M80.9,257c1.7,0,3,1.3,3,3s-1.3,3-3,3s-3-1.3-3-3S79.3,257,80.9,257z"/>
				<path class="st1-triangle" d="M80.9,244.7c1.7,0,3,1.3,3,3s-1.3,3-3,3s-3-1.3-3-3S79.3,244.7,80.9,244.7z"/>
				<path class="st1-triangle" d="M80.9,232.4c1.7,0,3,1.3,3,3s-1.3,3-3,3s-3-1.3-3-3S79.3,232.4,80.9,232.4z"/>
				<path class="st1-triangle" d="M80.9,220.2c1.7,0,3,1.3,3,3s-1.3,3-3,3s-3-1.3-3-3S79.3,220.2,80.9,220.2z"/>
				<path class="st1-triangle" d="M80.9,207.9c1.7,0,3,1.3,3,3s-1.3,3-3,3s-3-1.3-3-3S79.3,207.9,80.9,207.9z"/>
				<path class="st1-triangle" d="M80.9,195.6c1.7,0,3,1.3,3,3s-1.3,3-3,3s-3-1.3-3-3S79.3,195.6,80.9,195.6z"/>
				<path class="st1-triangle" d="M80.9,183.4c1.7,0,3,1.3,3,3s-1.3,3-3,3s-3-1.3-3-3S79.3,183.4,80.9,183.4z"/>
				<path class="st1-triangle" d="M80.9,171.1c1.7,0,3,1.3,3,3s-1.3,3-3,3s-3-1.3-3-3S79.3,171.1,80.9,171.1z"/>
				<path class="st1-triangle" d="M80.9,158.9c1.7,0,3,1.3,3,3s-1.3,3-3,3s-3-1.3-3-3S79.3,158.9,80.9,158.9z"/>
				<path class="st1-triangle" d="M80.9,146.6c1.7,0,3,1.3,3,3s-1.3,3-3,3s-3-1.3-3-3S79.3,146.6,80.9,146.6z"/>
				<path class="st1-triangle" d="M80.9,134.3c1.7,0,3,1.3,3,3s-1.3,3-3,3s-3-1.3-3-3S79.3,134.3,80.9,134.3z"/>
				<path class="st1-triangle" d="M80.9,122c1.7,0,3,1.3,3,3s-1.3,3-3,3s-3-1.3-3-3S79.3,122,80.9,122z"/>
				<path class="st1-triangle" d="M80.9,109.8c1.7,0,3,1.3,3,3s-1.3,3-3,3s-3-1.3-3-3S79.3,109.8,80.9,109.8z"/>
				<path class="st1-triangle" d="M80.9,97.5c1.7,0,3,1.3,3,3s-1.3,3-3,3s-3-1.3-3-3S79.3,97.5,80.9,97.5z"/>
				<path class="st1-triangle" d="M80.9,85.3c1.7,0,3,1.3,3,3s-1.3,3-3,3s-3-1.3-3-3S79.3,85.3,80.9,85.3z"/>
				<path class="st1-triangle" d="M80.9,73c1.7,0,3,1.3,3,3s-1.3,3-3,3s-3-1.3-3-3S79.3,73,80.9,73z"/>
				<path class="st1-triangle" d="M80.9,60.7c1.7,0,3,1.3,3,3s-1.3,3-3,3s-3-1.3-3-3S79.3,60.7,80.9,60.7z"/>
				<path class="st1-triangle" d="M80.9,48.5c1.7,0,3,1.3,3,3s-1.3,3-3,3s-3-1.3-3-3S79.3,48.5,80.9,48.5z"/>
				<path class="st1-triangle" d="M80.9,36.2c1.7,0,3,1.3,3,3s-1.3,3-3,3s-3-1.3-3-3S79.3,36.2,80.9,36.2z"/>
				<path class="st1-triangle" d="M80.9,23.9c1.7,0,3,1.3,3,3s-1.3,3-3,3s-3-1.3-3-3S79.3,23.9,80.9,23.9z"/>
				<path class="st1-triangle" d="M80.9,11.7c1.7,0,3,1.3,3,3s-1.3,3-3,3s-3-1.3-3-3S79.3,11.7,80.9,11.7z"/>
				<path class="st1-triangle" d="M80.9-0.6c1.7,0,3,1.3,3,3s-1.3,3-3,3s-3-1.3-3-3S79.3-0.6,80.9-0.6z"/>
				<path class="st1-triangle" d="M80.9-12.9c1.7,0,3,1.3,3,3s-1.3,3-3,3s-3-1.3-3-3S79.3-12.9,80.9-12.9z"/>
				<path class="st1-triangle" d="M80.9-25.1c1.7,0,3,1.3,3,3s-1.3,3-3,3s-3-1.3-3-3S79.3-25.1,80.9-25.1z"/>
				<path class="st1-triangle" d="M93.2,355.1c1.7,0,3,1.3,3,3s-1.3,3-3,3s-3-1.3-3-3S91.5,355.1,93.2,355.1z"/>
				<circle class="st1-triangle" cx="93.2" cy="345.8" r="3"/>
				<circle class="st1-triangle" cx="93.2" cy="333.5" r="3"/>
				<path class="st1-triangle" d="M93.2,318.3c1.7,0,3,1.3,3,3s-1.3,3-3,3s-3-1.3-3-3S91.5,318.3,93.2,318.3z"/>
				<circle class="st1-triangle" cx="93.2" cy="309" r="3"/>
				<circle class="st1-triangle" cx="93.2" cy="296.7" r="3"/>
				<path class="st1-triangle" d="M93.2,281.5c1.7,0,3,1.3,3,3s-1.3,3-3,3s-3-1.3-3-3S91.5,281.5,93.2,281.5z"/>
				<circle class="st1-triangle" cx="93.2" cy="272.2" r="3"/>
				<path class="st1-triangle" d="M93.2,257c1.7,0,3,1.3,3,3s-1.3,3-3,3s-3-1.3-3-3S91.5,257,93.2,257z"/>
				<circle class="st1-triangle" cx="93.2" cy="247.7" r="3"/>
				<circle class="st1-triangle" cx="93.2" cy="235.4" r="3"/>
				<path class="st1-triangle" d="M93.2,220.2c1.7,0,3,1.3,3,3s-1.3,3-3,3s-3-1.3-3-3S91.5,220.2,93.2,220.2z"/>
				<circle class="st1-triangle" cx="93.2" cy="210.9" r="3"/>
				<circle class="st1-triangle" cx="93.2" cy="198.6" r="3"/>
				<circle class="st1-triangle" cx="93.2" cy="186.3" r="3"/>
				<circle class="st1-triangle" cx="93.2" cy="174.1" r="3"/>
				<path class="st1-triangle" d="M93.2,158.9c1.7,0,3,1.3,3,3s-1.3,3-3,3s-3-1.3-3-3S91.5,158.9,93.2,158.9z"/>
				<circle class="st1-triangle" cx="93.2" cy="149.5" r="3"/>
				<circle class="st1-triangle" cx="93.2" cy="137.3" r="3"/>
				<path class="st1-triangle" d="M93.2,122c1.7,0,3,1.3,3,3s-1.3,3-3,3s-3-1.3-3-3S91.5,122,93.2,122z"/>
				<circle class="st1-triangle" cx="93.2" cy="112.7" r="3"/>
				<circle class="st1-triangle" cx="93.2" cy="100.5" r="3"/>
				<circle class="st1-triangle" cx="93.2" cy="88.2" r="3"/>
				<circle class="st1-triangle" cx="93.2" cy="76" r="3"/>
				<path class="st1-triangle" d="M93.2,60.7c1.7,0,3,1.3,3,3s-1.3,3-3,3s-3-1.3-3-3S91.5,60.7,93.2,60.7z"/>
				<circle class="st1-triangle" cx="93.2" cy="51.4" r="3"/>
				<circle class="st1-triangle" cx="93.2" cy="39.2" r="3"/>
				<path class="st1-triangle" d="M93.2,23.9c1.7,0,3,1.3,3,3s-1.3,3-3,3s-3-1.3-3-3S91.5,23.9,93.2,23.9z"/>
				<circle class="st1-triangle" cx="93.2" cy="14.6" r="3"/>
				<circle class="st1-triangle" cx="93.2" cy="2.4" r="3"/>
				<circle class="st1-triangle" cx="93.2" cy="-9.9" r="3"/>
				<circle class="st1-triangle" cx="93.2" cy="-22.2" r="3"/>
				<path class="st1-triangle" d="M105.5,355.1c1.7,0,3,1.3,3,3s-1.3,3-3,3s-3-1.3-3-3S103.8,355.1,105.5,355.1z"/>
				<circle class="st1-triangle" cx="105.5" cy="345.8" r="3"/>
				<circle class="st1-triangle" cx="105.5" cy="333.5" r="3"/>
				<path class="st1-triangle" d="M105.5,318.3c1.7,0,3,1.3,3,3s-1.3,3-3,3s-3-1.3-3-3S103.8,318.3,105.5,318.3z"/>
				<circle class="st1-triangle" cx="105.5" cy="309" r="3"/>
				<circle class="st1-triangle" cx="105.5" cy="296.7" r="3"/>
				<path class="st1-triangle" d="M105.5,281.5c1.7,0,3,1.3,3,3s-1.3,3-3,3s-3-1.3-3-3S103.8,281.5,105.5,281.5z"/>
				<circle class="st1-triangle" cx="105.5" cy="272.2" r="3"/>
				<path class="st1-triangle" d="M105.5,257c1.7,0,3,1.3,3,3s-1.3,3-3,3s-3-1.3-3-3S103.8,257,105.5,257z"/>
				<circle class="st1-triangle" cx="105.5" cy="247.7" r="3"/>
				<circle class="st1-triangle" cx="105.5" cy="235.4" r="3"/>
				<path class="st1-triangle" d="M105.5,220.2c1.7,0,3,1.3,3,3s-1.3,3-3,3s-3-1.3-3-3S103.8,220.2,105.5,220.2z"/>
				<circle class="st1-triangle" cx="105.5" cy="210.9" r="3"/>
				<circle class="st1-triangle" cx="105.5" cy="198.6" r="3"/>
				<circle class="st1-triangle" cx="105.5" cy="186.3" r="3"/>
				<circle class="st1-triangle" cx="105.5" cy="174.1" r="3"/>
				<path class="st1-triangle" d="M105.5,158.9c1.7,0,3,1.3,3,3s-1.3,3-3,3s-3-1.3-3-3S103.8,158.9,105.5,158.9z"/>
				<circle class="st1-triangle" cx="105.5" cy="149.5" r="3"/>
				<circle class="st1-triangle" cx="105.5" cy="137.3" r="3"/>
				<path class="st1-triangle" d="M105.5,122c1.7,0,3,1.3,3,3s-1.3,3-3,3s-3-1.3-3-3S103.8,122,105.5,122z"/>
				<circle class="st1-triangle" cx="105.5" cy="112.7" r="3"/>
				<circle class="st1-triangle" cx="105.5" cy="100.5" r="3"/>
				<circle class="st1-triangle" cx="105.5" cy="88.2" r="3"/>
				<circle class="st1-triangle" cx="105.5" cy="76" r="3"/>
				<path class="st1-triangle" d="M105.5,60.7c1.7,0,3,1.3,3,3s-1.3,3-3,3s-3-1.3-3-3S103.8,60.7,105.5,60.7z"/>
				<circle class="st1-triangle" cx="105.5" cy="51.4" r="3"/>
				<circle class="st1-triangle" cx="105.5" cy="39.2" r="3"/>
				<path class="st1-triangle" d="M105.5,23.9c1.7,0,3,1.3,3,3s-1.3,3-3,3s-3-1.3-3-3S103.8,23.9,105.5,23.9z"/>
				<circle class="st1-triangle" cx="105.5" cy="14.6" r="3"/>
				<circle class="st1-triangle" cx="105.5" cy="2.4" r="3"/>
				<circle class="st1-triangle" cx="105.5" cy="-9.9" r="3"/>
				<circle class="st1-triangle" cx="105.5" cy="-22.2" r="3"/>
				<path class="st1-triangle" d="M117.7,355.1c1.7,0,3,1.3,3,3s-1.3,3-3,3s-3-1.3-3-3S116.1,355.1,117.7,355.1z"/>
				<circle class="st1-triangle" cx="117.7" cy="345.8" r="3"/>
				<circle class="st1-triangle" cx="117.7" cy="333.5" r="3"/>
				<path class="st1-triangle" d="M117.7,318.3c1.7,0,3,1.3,3,3s-1.3,3-3,3s-3-1.3-3-3S116.1,318.3,117.7,318.3z"/>
				<circle class="st1-triangle" cx="117.7" cy="309" r="3"/>
				<circle class="st1-triangle" cx="117.7" cy="296.7" r="3"/>
				<path class="st1-triangle" d="M117.7,281.5c1.7,0,3,1.3,3,3s-1.3,3-3,3s-3-1.3-3-3S116.1,281.5,117.7,281.5z"/>
				<circle class="st1-triangle" cx="117.7" cy="272.2" r="3"/>
				<path class="st1-triangle" d="M117.7,257c1.7,0,3,1.3,3,3s-1.3,3-3,3s-3-1.3-3-3S116.1,257,117.7,257z"/>
				<circle class="st1-triangle" cx="117.7" cy="247.7" r="3"/>
				<circle class="st1-triangle" cx="117.7" cy="235.4" r="3"/>
				<path class="st1-triangle" d="M117.7,220.2c1.7,0,3,1.3,3,3s-1.3,3-3,3s-3-1.3-3-3S116.1,220.2,117.7,220.2z"/>
				<circle class="st1-triangle" cx="117.7" cy="210.9" r="3"/>
				<circle class="st1-triangle" cx="117.7" cy="198.6" r="3"/>
				<circle class="st1-triangle" cx="117.7" cy="186.3" r="3"/>
				<circle class="st1-triangle" cx="117.7" cy="174.1" r="3"/>
				<path class="st1-triangle" d="M117.7,158.9c1.7,0,3,1.3,3,3s-1.3,3-3,3s-3-1.3-3-3S116.1,158.9,117.7,158.9z"/>
				<circle class="st1-triangle" cx="117.7" cy="149.5" r="3"/>
				<circle class="st1-triangle" cx="117.7" cy="137.3" r="3"/>
				<path class="st1-triangle" d="M117.7,122c1.7,0,3,1.3,3,3s-1.3,3-3,3s-3-1.3-3-3S116.1,122,117.7,122z"/>
				<circle class="st1-triangle" cx="117.7" cy="112.7" r="3"/>
				<circle class="st1-triangle" cx="117.7" cy="100.5" r="3"/>
				<circle class="st1-triangle" cx="117.7" cy="88.2" r="3"/>
				<circle class="st1-triangle" cx="117.7" cy="76" r="3"/>
				<path class="st1-triangle" d="M117.7,60.7c1.7,0,3,1.3,3,3s-1.3,3-3,3s-3-1.3-3-3S116.1,60.7,117.7,60.7z"/>
				<circle class="st1-triangle" cx="117.7" cy="51.4" r="3"/>
				<circle class="st1-triangle" cx="117.7" cy="39.2" r="3"/>
				<path class="st1-triangle" d="M117.7,23.9c1.7,0,3,1.3,3,3s-1.3,3-3,3s-3-1.3-3-3S116.1,23.9,117.7,23.9z"/>
				<circle class="st1-triangle" cx="117.7" cy="14.6" r="3"/>
				<circle class="st1-triangle" cx="117.7" cy="2.4" r="3"/>
				<circle class="st1-triangle" cx="117.7" cy="-9.9" r="3"/>
				<circle class="st1-triangle" cx="117.7" cy="-22.2" r="3"/>
				<path class="st1-triangle" d="M130,355.1c1.7,0,3,1.3,3,3s-1.3,3-3,3s-3-1.3-3-3S128.3,355.1,130,355.1z"/>
				<circle class="st1-triangle" cx="130" cy="345.8" r="3"/>
				<circle class="st1-triangle" cx="130" cy="333.5" r="3"/>
				<path class="st1-triangle" d="M130,318.3c1.7,0,3,1.3,3,3s-1.3,3-3,3s-3-1.3-3-3S128.3,318.3,130,318.3z"/>
				<circle class="st1-triangle" cx="130" cy="309" r="3"/>
				<circle class="st1-triangle" cx="130" cy="296.7" r="3"/>
				<path class="st1-triangle" d="M130,281.5c1.7,0,3,1.3,3,3s-1.3,3-3,3s-3-1.3-3-3S128.3,281.5,130,281.5z"/>
				<circle class="st1-triangle" cx="130" cy="272.2" r="3"/>
				<path class="st1-triangle" d="M130,257c1.7,0,3,1.3,3,3s-1.3,3-3,3s-3-1.3-3-3S128.3,257,130,257z"/>
				<circle class="st1-triangle" cx="130" cy="247.7" r="3"/>
				<circle class="st1-triangle" cx="130" cy="235.4" r="3"/>
				<path class="st1-triangle" d="M130,220.2c1.7,0,3,1.3,3,3s-1.3,3-3,3s-3-1.3-3-3S128.3,220.2,130,220.2z"/>
				<circle class="st1-triangle" cx="130" cy="210.9" r="3"/>
				<circle class="st1-triangle" cx="130" cy="198.6" r="3"/>
				<circle class="st1-triangle" cx="130" cy="186.3" r="3"/>
				<circle class="st1-triangle" cx="130" cy="174.1" r="3"/>
				<path class="st1-triangle" d="M130,158.9c1.7,0,3,1.3,3,3s-1.3,3-3,3s-3-1.3-3-3S128.3,158.9,130,158.9z"/>
				<circle class="st1-triangle" cx="130" cy="149.5" r="3"/>
				<circle class="st1-triangle" cx="130" cy="137.3" r="3"/>
				<path class="st1-triangle" d="M130,122c1.7,0,3,1.3,3,3s-1.3,3-3,3s-3-1.3-3-3S128.3,122,130,122z"/>
				<circle class="st1-triangle" cx="130" cy="112.7" r="3"/>
				<circle class="st1-triangle" cx="130" cy="100.5" r="3"/>
				<circle class="st1-triangle" cx="130" cy="88.2" r="3"/>
				<circle class="st1-triangle" cx="130" cy="76" r="3"/>
				<path class="st1-triangle" d="M130,60.7c1.7,0,3,1.3,3,3s-1.3,3-3,3s-3-1.3-3-3S128.3,60.7,130,60.7z"/>
				<circle class="st1-triangle" cx="130" cy="51.4" r="3"/>
				<circle class="st1-triangle" cx="130" cy="39.2" r="3"/>
				<path class="st1-triangle" d="M130,23.9c1.7,0,3,1.3,3,3s-1.3,3-3,3s-3-1.3-3-3S128.3,23.9,130,23.9z"/>
				<circle class="st1-triangle" cx="130" cy="14.6" r="3"/>
				<circle class="st1-triangle" cx="130" cy="2.4" r="3"/>
				<circle class="st1-triangle" cx="130" cy="-9.9" r="3"/>
				<circle class="st1-triangle" cx="130" cy="-22.2" r="3"/>
				<path class="st1-triangle" d="M142.3,355.1c1.7,0,3,1.3,3,3s-1.3,3-3,3s-3-1.3-3-3S140.6,355.1,142.3,355.1z"/>
				<path class="st1-triangle" d="M142.3,342.8c1.7,0,3,1.3,3,3s-1.3,3-3,3s-3-1.3-3-3S140.6,342.8,142.3,342.8z"/>
				<path class="st1-triangle" d="M142.3,330.6c1.7,0,3,1.3,3,3s-1.3,3-3,3s-3-1.3-3-3S140.6,330.6,142.3,330.6z"/>
				<path class="st1-triangle" d="M142.3,318.3c1.7,0,3,1.3,3,3s-1.3,3-3,3s-3-1.3-3-3S140.6,318.3,142.3,318.3z"/>
				<path class="st1-triangle" d="M142.3,306c1.7,0,3,1.3,3,3s-1.3,3-3,3s-3-1.3-3-3S140.6,306,142.3,306z"/>
				<path class="st1-triangle" d="M142.3,293.8c1.7,0,3,1.3,3,3s-1.3,3-3,3s-3-1.3-3-3S140.6,293.8,142.3,293.8z"/>
				<path class="st1-triangle" d="M142.3,281.5c1.7,0,3,1.3,3,3s-1.3,3-3,3s-3-1.3-3-3S140.6,281.5,142.3,281.5z"/>
				<path class="st1-triangle" d="M142.3,269.2c1.7,0,3,1.3,3,3s-1.3,3-3,3s-3-1.3-3-3S140.6,269.2,142.3,269.2z"/>
				<path class="st1-triangle" d="M142.3,257c1.7,0,3,1.3,3,3s-1.3,3-3,3s-3-1.3-3-3S140.6,257,142.3,257z"/>
				<path class="st1-triangle" d="M142.3,244.7c1.7,0,3,1.3,3,3s-1.3,3-3,3s-3-1.3-3-3S140.6,244.7,142.3,244.7z"/>
				<path class="st1-triangle" d="M142.3,232.4c1.7,0,3,1.3,3,3s-1.3,3-3,3s-3-1.3-3-3S140.6,232.4,142.3,232.4z"/>
				<path class="st1-triangle" d="M142.3,220.2c1.7,0,3,1.3,3,3s-1.3,3-3,3s-3-1.3-3-3S140.6,220.2,142.3,220.2z"/>
				<path class="st1-triangle" d="M142.3,207.9c1.7,0,3,1.3,3,3s-1.3,3-3,3s-3-1.3-3-3S140.6,207.9,142.3,207.9z"/>
				<path class="st1-triangle" d="M142.3,195.6c1.7,0,3,1.3,3,3s-1.3,3-3,3s-3-1.3-3-3S140.6,195.6,142.3,195.6z"/>
				<path class="st1-triangle" d="M142.3,183.4c1.7,0,3,1.3,3,3s-1.3,3-3,3s-3-1.3-3-3S140.6,183.4,142.3,183.4z"/>
				<path class="st1-triangle" d="M142.3,171.1c1.7,0,3,1.3,3,3s-1.3,3-3,3s-3-1.3-3-3S140.6,171.1,142.3,171.1z"/>
				<path class="st1-triangle" d="M142.3,158.9c1.7,0,3,1.3,3,3s-1.3,3-3,3s-3-1.3-3-3S140.6,158.9,142.3,158.9z"/>
				<path class="st1-triangle" d="M142.3,146.6c1.7,0,3,1.3,3,3s-1.3,3-3,3s-3-1.3-3-3S140.6,146.6,142.3,146.6z"/>
				<path class="st1-triangle" d="M142.3,134.3c1.7,0,3,1.3,3,3s-1.3,3-3,3s-3-1.3-3-3S140.6,134.3,142.3,134.3z"/>
				<path class="st1-triangle" d="M142.3,122c1.7,0,3,1.3,3,3s-1.3,3-3,3s-3-1.3-3-3S140.6,122,142.3,122z"/>
				<path class="st1-triangle" d="M142.3,109.8c1.7,0,3,1.3,3,3s-1.3,3-3,3s-3-1.3-3-3S140.6,109.8,142.3,109.8z"/>
				<path class="st1-triangle" d="M142.3,97.5c1.7,0,3,1.3,3,3s-1.3,3-3,3s-3-1.3-3-3S140.6,97.5,142.3,97.5z"/>
				<path class="st1-triangle" d="M142.3,85.3c1.7,0,3,1.3,3,3s-1.3,3-3,3s-3-1.3-3-3S140.6,85.3,142.3,85.3z"/>
				<path class="st1-triangle" d="M142.3,73c1.7,0,3,1.3,3,3s-1.3,3-3,3s-3-1.3-3-3S140.6,73,142.3,73z"/>
				<path class="st1-triangle" d="M142.3,60.7c1.7,0,3,1.3,3,3s-1.3,3-3,3s-3-1.3-3-3S140.6,60.7,142.3,60.7z"/>
				<path class="st1-triangle" d="M142.3,48.5c1.7,0,3,1.3,3,3s-1.3,3-3,3s-3-1.3-3-3S140.6,48.5,142.3,48.5z"/>
				<path class="st1-triangle" d="M142.3,36.2c1.7,0,3,1.3,3,3s-1.3,3-3,3s-3-1.3-3-3S140.6,36.2,142.3,36.2z"/>
				<path class="st1-triangle" d="M142.3,23.9c1.7,0,3,1.3,3,3s-1.3,3-3,3s-3-1.3-3-3S140.6,23.9,142.3,23.9z"/>
				<path class="st1-triangle" d="M142.3,11.7c1.7,0,3,1.3,3,3s-1.3,3-3,3s-3-1.3-3-3S140.6,11.7,142.3,11.7z"/>
				<path class="st1-triangle" d="M142.3-0.6c1.7,0,3,1.3,3,3s-1.3,3-3,3s-3-1.3-3-3S140.6-0.6,142.3-0.6z"/>
				<path class="st1-triangle" d="M142.3-12.9c1.7,0,3,1.3,3,3s-1.3,3-3,3s-3-1.3-3-3S140.6-12.9,142.3-12.9z"/>
				<path class="st1-triangle" d="M142.3-25.1c1.7,0,3,1.3,3,3s-1.3,3-3,3s-3-1.3-3-3S140.6-25.1,142.3-25.1z"/>
				<path class="st1-triangle" d="M154.5,355.1c1.7,0,3,1.3,3,3s-1.3,3-3,3s-3-1.3-3-3S152.9,355.1,154.5,355.1z"/>
				<circle class="st1-triangle" cx="154.5" cy="345.8" r="3"/>
				<circle class="st1-triangle" cx="154.5" cy="333.5" r="3"/>
				<path class="st1-triangle" d="M154.5,318.3c1.7,0,3,1.3,3,3s-1.3,3-3,3s-3-1.3-3-3S152.9,318.3,154.5,318.3z"/>
				<circle class="st1-triangle" cx="154.5" cy="309" r="3"/>
				<circle class="st1-triangle" cx="154.5" cy="296.7" r="3"/>
				<path class="st1-triangle" d="M154.5,281.5c1.7,0,3,1.3,3,3s-1.3,3-3,3s-3-1.3-3-3S152.9,281.5,154.5,281.5z"/>
				<circle class="st1-triangle" cx="154.5" cy="272.2" r="3"/>
				<path class="st1-triangle" d="M154.5,257c1.7,0,3,1.3,3,3s-1.3,3-3,3s-3-1.3-3-3S152.9,257,154.5,257z"/>
				<circle class="st1-triangle" cx="154.5" cy="247.7" r="3"/>
				<circle class="st1-triangle" cx="154.5" cy="235.4" r="3"/>
				<path class="st1-triangle" d="M154.5,220.2c1.7,0,3,1.3,3,3s-1.3,3-3,3s-3-1.3-3-3S152.9,220.2,154.5,220.2z"/>
				<circle class="st1-triangle" cx="154.5" cy="210.9" r="3"/>
				<circle class="st1-triangle" cx="154.5" cy="198.6" r="3"/>
				<circle class="st1-triangle" cx="154.5" cy="186.3" r="3"/>
				<circle class="st1-triangle" cx="154.5" cy="174.1" r="3"/>
				<path class="st1-triangle" d="M154.5,158.9c1.7,0,3,1.3,3,3s-1.3,3-3,3s-3-1.3-3-3S152.9,158.9,154.5,158.9z"/>
				<circle class="st1-triangle" cx="154.5" cy="149.5" r="3"/>
				<circle class="st1-triangle" cx="154.5" cy="137.3" r="3"/>
				<path class="st1-triangle" d="M154.5,122c1.7,0,3,1.3,3,3s-1.3,3-3,3s-3-1.3-3-3S152.9,122,154.5,122z"/>
				<circle class="st1-triangle" cx="154.5" cy="112.7" r="3"/>
				<circle class="st1-triangle" cx="154.5" cy="100.5" r="3"/>
				<circle class="st1-triangle" cx="154.5" cy="88.2" r="3"/>
				<circle class="st1-triangle" cx="154.5" cy="76" r="3"/>
				<path class="st1-triangle" d="M154.5,60.7c1.7,0,3,1.3,3,3s-1.3,3-3,3s-3-1.3-3-3S152.9,60.7,154.5,60.7z"/>
				<circle class="st1-triangle" cx="154.5" cy="51.4" r="3"/>
				<circle class="st1-triangle" cx="154.5" cy="39.2" r="3"/>
				<path class="st1-triangle" d="M154.5,23.9c1.7,0,3,1.3,3,3s-1.3,3-3,3s-3-1.3-3-3S152.9,23.9,154.5,23.9z"/>
				<circle class="st1-triangle" cx="154.5" cy="14.6" r="3"/>
				<circle class="st1-triangle" cx="154.5" cy="2.4" r="3"/>
				<circle class="st1-triangle" cx="154.5" cy="-9.9" r="3"/>
				<circle class="st1-triangle" cx="154.5" cy="-22.2" r="3"/>
				<path class="st1-triangle" d="M166.8,355.1c1.7,0,3,1.3,3,3s-1.3,3-3,3s-3-1.3-3-3S165.1,355.1,166.8,355.1z"/>
				<circle class="st1-triangle" cx="166.8" cy="345.8" r="3"/>
				<circle class="st1-triangle" cx="166.8" cy="333.5" r="3"/>
				<path class="st1-triangle" d="M166.8,318.3c1.7,0,3,1.3,3,3s-1.3,3-3,3s-3-1.3-3-3S165.1,318.3,166.8,318.3z"/>
				<circle class="st1-triangle" cx="166.8" cy="309" r="3"/>
				<circle class="st1-triangle" cx="166.8" cy="296.7" r="3"/>
				<path class="st1-triangle" d="M166.8,281.5c1.7,0,3,1.3,3,3s-1.3,3-3,3s-3-1.3-3-3S165.1,281.5,166.8,281.5z"/>
				<circle class="st1-triangle" cx="166.8" cy="272.2" r="3"/>
				<path class="st1-triangle" d="M166.8,257c1.7,0,3,1.3,3,3s-1.3,3-3,3s-3-1.3-3-3S165.1,257,166.8,257z"/>
				<circle class="st1-triangle" cx="166.8" cy="247.7" r="3"/>
				<circle class="st1-triangle" cx="166.8" cy="235.4" r="3"/>
				<path class="st1-triangle" d="M166.8,220.2c1.7,0,3,1.3,3,3s-1.3,3-3,3s-3-1.3-3-3S165.1,220.2,166.8,220.2z"/>
				<circle class="st1-triangle" cx="166.8" cy="210.9" r="3"/>
				<circle class="st1-triangle" cx="166.8" cy="198.6" r="3"/>
				<circle class="st1-triangle" cx="166.8" cy="186.3" r="3"/>
				<circle class="st1-triangle" cx="166.8" cy="174.1" r="3"/>
				<path class="st1-triangle" d="M166.8,158.9c1.7,0,3,1.3,3,3s-1.3,3-3,3s-3-1.3-3-3S165.1,158.9,166.8,158.9z"/>
				<circle class="st1-triangle" cx="166.8" cy="149.5" r="3"/>
				<circle class="st1-triangle" cx="166.8" cy="137.3" r="3"/>
				<path class="st1-triangle" d="M166.8,122c1.7,0,3,1.3,3,3s-1.3,3-3,3s-3-1.3-3-3S165.1,122,166.8,122z"/>
				<circle class="st1-triangle" cx="166.8" cy="112.7" r="3"/>
				<circle class="st1-triangle" cx="166.8" cy="100.5" r="3"/>
				<circle class="st1-triangle" cx="166.8" cy="88.2" r="3"/>
				<circle class="st1-triangle" cx="166.8" cy="76" r="3"/>
				<path class="st1-triangle" d="M166.8,60.7c1.7,0,3,1.3,3,3s-1.3,3-3,3s-3-1.3-3-3S165.1,60.7,166.8,60.7z"/>
				<circle class="st1-triangle" cx="166.8" cy="51.4" r="3"/>
				<circle class="st1-triangle" cx="166.8" cy="39.2" r="3"/>
				<path class="st1-triangle" d="M166.8,23.9c1.7,0,3,1.3,3,3s-1.3,3-3,3s-3-1.3-3-3S165.1,23.9,166.8,23.9z"/>
				<circle class="st1-triangle" cx="166.8" cy="14.6" r="3"/>
				<circle class="st1-triangle" cx="166.8" cy="2.4" r="3"/>
				<circle class="st1-triangle" cx="166.8" cy="-9.9" r="3"/>
				<circle class="st1-triangle" cx="166.8" cy="-22.2" r="3"/>
				<path class="st1-triangle" d="M179,355.1c1.7,0,3,1.3,3,3s-1.3,3-3,3s-3-1.3-3-3S177.4,355.1,179,355.1z"/>
				<path class="st1-triangle" d="M179,342.8c1.7,0,3,1.3,3,3s-1.3,3-3,3s-3-1.3-3-3S177.4,342.8,179,342.8z"/>
				<path class="st1-triangle" d="M179,330.6c1.7,0,3,1.3,3,3s-1.3,3-3,3s-3-1.3-3-3S177.4,330.6,179,330.6z"/>
				<path class="st1-triangle" d="M179,318.3c1.7,0,3,1.3,3,3s-1.3,3-3,3s-3-1.3-3-3S177.4,318.3,179,318.3z"/>
				<path class="st1-triangle" d="M179,306c1.7,0,3,1.3,3,3s-1.3,3-3,3s-3-1.3-3-3S177.4,306,179,306z"/>
				<path class="st1-triangle" d="M179,293.8c1.7,0,3,1.3,3,3s-1.3,3-3,3s-3-1.3-3-3S177.4,293.8,179,293.8z"/>
				<path class="st1-triangle" d="M179,281.5c1.7,0,3,1.3,3,3s-1.3,3-3,3s-3-1.3-3-3S177.4,281.5,179,281.5z"/>
				<path class="st1-triangle" d="M179,269.2c1.7,0,3,1.3,3,3s-1.3,3-3,3s-3-1.3-3-3S177.4,269.2,179,269.2z"/>
				<path class="st1-triangle" d="M179,257c1.7,0,3,1.3,3,3s-1.3,3-3,3s-3-1.3-3-3S177.4,257,179,257z"/>
				<path class="st1-triangle" d="M179,244.7c1.7,0,3,1.3,3,3s-1.3,3-3,3s-3-1.3-3-3S177.4,244.7,179,244.7z"/>
				<path class="st1-triangle" d="M179,232.4c1.7,0,3,1.3,3,3s-1.3,3-3,3s-3-1.3-3-3S177.4,232.4,179,232.4z"/>
				<path class="st1-triangle" d="M179,220.2c1.7,0,3,1.3,3,3s-1.3,3-3,3s-3-1.3-3-3S177.4,220.2,179,220.2z"/>
				<path class="st1-triangle" d="M179,207.9c1.7,0,3,1.3,3,3s-1.3,3-3,3s-3-1.3-3-3S177.4,207.9,179,207.9z"/>
				<path class="st1-triangle" d="M179,195.6c1.7,0,3,1.3,3,3s-1.3,3-3,3s-3-1.3-3-3S177.4,195.6,179,195.6z"/>
				<path class="st1-triangle" d="M179,183.4c1.7,0,3,1.3,3,3s-1.3,3-3,3s-3-1.3-3-3S177.4,183.4,179,183.4z"/>
				<path class="st1-triangle" d="M179,171.1c1.7,0,3,1.3,3,3s-1.3,3-3,3s-3-1.3-3-3S177.4,171.1,179,171.1z"/>
				<path class="st1-triangle" d="M179,158.9c1.7,0,3,1.3,3,3s-1.3,3-3,3s-3-1.3-3-3S177.4,158.9,179,158.9z"/>
				<path class="st1-triangle" d="M179,146.6c1.7,0,3,1.3,3,3s-1.3,3-3,3s-3-1.3-3-3S177.4,146.6,179,146.6z"/>
				<path class="st1-triangle" d="M179,134.3c1.7,0,3,1.3,3,3s-1.3,3-3,3s-3-1.3-3-3S177.4,134.3,179,134.3z"/>
				<path class="st1-triangle" d="M179,122c1.7,0,3,1.3,3,3s-1.3,3-3,3s-3-1.3-3-3S177.4,122,179,122z"/>
				<path class="st1-triangle" d="M179,109.8c1.7,0,3,1.3,3,3s-1.3,3-3,3s-3-1.3-3-3S177.4,109.8,179,109.8z"/>
				<path class="st1-triangle" d="M179,97.5c1.7,0,3,1.3,3,3s-1.3,3-3,3s-3-1.3-3-3S177.4,97.5,179,97.5z"/>
				<path class="st1-triangle" d="M179,85.3c1.7,0,3,1.3,3,3s-1.3,3-3,3s-3-1.3-3-3S177.4,85.3,179,85.3z"/>
				<path class="st1-triangle" d="M179,73c1.7,0,3,1.3,3,3s-1.3,3-3,3s-3-1.3-3-3S177.4,73,179,73z"/>
				<path class="st1-triangle" d="M179,60.7c1.7,0,3,1.3,3,3s-1.3,3-3,3s-3-1.3-3-3S177.4,60.7,179,60.7z"/>
				<path class="st1-triangle" d="M179,48.5c1.7,0,3,1.3,3,3s-1.3,3-3,3s-3-1.3-3-3S177.4,48.5,179,48.5z"/>
				<path class="st1-triangle" d="M179,36.2c1.7,0,3,1.3,3,3s-1.3,3-3,3s-3-1.3-3-3S177.4,36.2,179,36.2z"/>
				<path class="st1-triangle" d="M179,23.9c1.7,0,3,1.3,3,3s-1.3,3-3,3s-3-1.3-3-3S177.4,23.9,179,23.9z"/>
				<path class="st1-triangle" d="M179,11.7c1.7,0,3,1.3,3,3s-1.3,3-3,3s-3-1.3-3-3S177.4,11.7,179,11.7z"/>
				<path class="st1-triangle" d="M179-0.6c1.7,0,3,1.3,3,3s-1.3,3-3,3s-3-1.3-3-3S177.4-0.6,179-0.6z"/>
				<path class="st1-triangle" d="M179-12.9c1.7,0,3,1.3,3,3s-1.3,3-3,3s-3-1.3-3-3S177.4-12.9,179-12.9z"/>
				<path class="st1-triangle" d="M179-25.1c1.7,0,3,1.3,3,3s-1.3,3-3,3s-3-1.3-3-3S177.4-25.1,179-25.1z"/>
				<path class="st1-triangle" d="M191.3,355.1c1.7,0,3,1.3,3,3s-1.3,3-3,3s-3-1.3-3-3S189.7,355.1,191.3,355.1z"/>
				<circle class="st1-triangle" cx="191.3" cy="345.8" r="3"/>
				<circle class="st1-triangle" cx="191.3" cy="333.5" r="3"/>
				<path class="st1-triangle" d="M191.3,318.3c1.7,0,3,1.3,3,3s-1.3,3-3,3s-3-1.3-3-3S189.7,318.3,191.3,318.3z"/>
				<circle class="st1-triangle" cx="191.3" cy="309" r="3"/>
				<circle class="st1-triangle" cx="191.3" cy="296.7" r="3"/>
				<path class="st1-triangle" d="M191.3,281.5c1.7,0,3,1.3,3,3s-1.3,3-3,3s-3-1.3-3-3S189.7,281.5,191.3,281.5z"/>
				<circle class="st1-triangle" cx="191.3" cy="272.2" r="3"/>
				<path class="st1-triangle" d="M191.3,257c1.7,0,3,1.3,3,3s-1.3,3-3,3s-3-1.3-3-3S189.7,257,191.3,257z"/>
				<circle class="st1-triangle" cx="191.3" cy="247.7" r="3"/>
				<circle class="st1-triangle" cx="191.3" cy="235.4" r="3"/>
				<path class="st1-triangle" d="M191.3,220.2c1.7,0,3,1.3,3,3s-1.3,3-3,3s-3-1.3-3-3S189.7,220.2,191.3,220.2z"/>
				<circle class="st1-triangle" cx="191.3" cy="210.9" r="3"/>
				<circle class="st1-triangle" cx="191.3" cy="198.6" r="3"/>
				<circle class="st1-triangle" cx="191.3" cy="186.3" r="3"/>
				<circle class="st1-triangle" cx="191.3" cy="174.1" r="3"/>
				<path class="st1-triangle" d="M191.3,158.9c1.7,0,3,1.3,3,3s-1.3,3-3,3s-3-1.3-3-3S189.7,158.9,191.3,158.9z"/>
				<circle class="st1-triangle" cx="191.3" cy="149.5" r="3"/>
				<circle class="st1-triangle" cx="191.3" cy="137.3" r="3"/>
				<path class="st1-triangle" d="M191.3,122c1.7,0,3,1.3,3,3s-1.3,3-3,3s-3-1.3-3-3S189.7,122,191.3,122z"/>
				<circle class="st1-triangle" cx="191.3" cy="112.7" r="3"/>
				<circle class="st1-triangle" cx="191.3" cy="100.5" r="3"/>
				<circle class="st1-triangle" cx="191.3" cy="88.2" r="3"/>
				<circle class="st1-triangle" cx="191.3" cy="76" r="3"/>
				<path class="st1-triangle" d="M191.3,60.7c1.7,0,3,1.3,3,3s-1.3,3-3,3s-3-1.3-3-3S189.7,60.7,191.3,60.7z"/>
				<circle class="st1-triangle" cx="191.3" cy="51.4" r="3"/>
				<circle class="st1-triangle" cx="191.3" cy="39.2" r="3"/>
				<path class="st1-triangle" d="M191.3,23.9c1.7,0,3,1.3,3,3s-1.3,3-3,3s-3-1.3-3-3S189.7,23.9,191.3,23.9z"/>
				<circle class="st1-triangle" cx="191.3" cy="14.6" r="3"/>
				<circle class="st1-triangle" cx="191.3" cy="2.4" r="3"/>
				<circle class="st1-triangle" cx="191.3" cy="-9.9" r="3"/>
				<circle class="st1-triangle" cx="191.3" cy="-22.2" r="3"/>
				<path class="st1-triangle" d="M203.6,355.1c1.7,0,3,1.3,3,3s-1.3,3-3,3s-3-1.3-3-3S201.9,355.1,203.6,355.1z"/>
				<circle class="st1-triangle" cx="203.6" cy="345.8" r="3"/>
				<circle class="st1-triangle" cx="203.6" cy="333.5" r="3"/>
				<path class="st1-triangle" d="M203.6,318.3c1.7,0,3,1.3,3,3s-1.3,3-3,3s-3-1.3-3-3S201.9,318.3,203.6,318.3z"/>
				<circle class="st1-triangle" cx="203.6" cy="309" r="3"/>
				<circle class="st1-triangle" cx="203.6" cy="296.7" r="3"/>
				<path class="st1-triangle" d="M203.6,281.5c1.7,0,3,1.3,3,3s-1.3,3-3,3s-3-1.3-3-3S201.9,281.5,203.6,281.5z"/>
				<circle class="st1-triangle" cx="203.6" cy="272.2" r="3"/>
				<path class="st1-triangle" d="M203.6,257c1.7,0,3,1.3,3,3s-1.3,3-3,3s-3-1.3-3-3S201.9,257,203.6,257z"/>
				<circle class="st1-triangle" cx="203.6" cy="247.7" r="3"/>
				<circle class="st1-triangle" cx="203.6" cy="235.4" r="3"/>
				<path class="st1-triangle" d="M203.6,220.2c1.7,0,3,1.3,3,3s-1.3,3-3,3s-3-1.3-3-3S201.9,220.2,203.6,220.2z"/>
				<circle class="st1-triangle" cx="203.6" cy="210.9" r="3"/>
				<circle class="st1-triangle" cx="203.6" cy="198.6" r="3"/>
				<circle class="st1-triangle" cx="203.6" cy="186.3" r="3"/>
				<circle class="st1-triangle" cx="203.6" cy="174.1" r="3"/>
				<path class="st1-triangle" d="M203.6,158.9c1.7,0,3,1.3,3,3s-1.3,3-3,3s-3-1.3-3-3S201.9,158.9,203.6,158.9z"/>
				<circle class="st1-triangle" cx="203.6" cy="149.5" r="3"/>
				<circle class="st1-triangle" cx="203.6" cy="137.3" r="3"/>
				<path class="st1-triangle" d="M203.6,122c1.7,0,3,1.3,3,3s-1.3,3-3,3s-3-1.3-3-3S201.9,122,203.6,122z"/>
				<circle class="st1-triangle" cx="203.6" cy="112.7" r="3"/>
				<circle class="st1-triangle" cx="203.6" cy="100.5" r="3"/>
				<circle class="st1-triangle" cx="203.6" cy="88.2" r="3"/>
				<circle class="st1-triangle" cx="203.6" cy="76" r="3"/>
				<path class="st1-triangle" d="M203.6,60.7c1.7,0,3,1.3,3,3s-1.3,3-3,3s-3-1.3-3-3S201.9,60.7,203.6,60.7z"/>
				<circle class="st1-triangle" cx="203.6" cy="51.4" r="3"/>
				<circle class="st1-triangle" cx="203.6" cy="39.2" r="3"/>
				<path class="st1-triangle" d="M203.6,23.9c1.7,0,3,1.3,3,3s-1.3,3-3,3s-3-1.3-3-3S201.9,23.9,203.6,23.9z"/>
				<circle class="st1-triangle" cx="203.6" cy="14.6" r="3"/>
				<circle class="st1-triangle" cx="203.6" cy="2.4" r="3"/>
				<circle class="st1-triangle" cx="203.6" cy="-9.9" r="3"/>
				<circle class="st1-triangle" cx="203.6" cy="-22.2" r="3"/>
				<path class="st1-triangle" d="M215.8,355.1c1.7,0,3,1.3,3,3s-1.3,3-3,3s-3-1.3-3-3S214.2,355.1,215.8,355.1z"/>
				<circle class="st1-triangle" cx="215.8" cy="345.8" r="3"/>
				<circle class="st1-triangle" cx="215.8" cy="333.5" r="3"/>
				<path class="st1-triangle" d="M215.8,318.3c1.7,0,3,1.3,3,3s-1.3,3-3,3s-3-1.3-3-3S214.2,318.3,215.8,318.3z"/>
				<circle class="st1-triangle" cx="215.8" cy="309" r="3"/>
				<circle class="st1-triangle" cx="215.8" cy="296.7" r="3"/>
				<path class="st1-triangle" d="M215.8,281.5c1.7,0,3,1.3,3,3s-1.3,3-3,3s-3-1.3-3-3S214.2,281.5,215.8,281.5z"/>
				<circle class="st1-triangle" cx="215.8" cy="272.2" r="3"/>
				<path class="st1-triangle" d="M215.8,257c1.7,0,3,1.3,3,3s-1.3,3-3,3s-3-1.3-3-3S214.2,257,215.8,257z"/>
				<circle class="st1-triangle" cx="215.8" cy="247.7" r="3"/>
				<circle class="st1-triangle" cx="215.8" cy="235.4" r="3"/>
				<path class="st1-triangle" d="M215.8,220.2c1.7,0,3,1.3,3,3s-1.3,3-3,3s-3-1.3-3-3S214.2,220.2,215.8,220.2z"/>
				<circle class="st1-triangle" cx="215.8" cy="210.9" r="3"/>
				<circle class="st1-triangle" cx="215.8" cy="198.6" r="3"/>
				<circle class="st1-triangle" cx="215.8" cy="186.3" r="3"/>
				<circle class="st1-triangle" cx="215.8" cy="174.1" r="3"/>
				<path class="st1-triangle" d="M215.8,158.9c1.7,0,3,1.3,3,3s-1.3,3-3,3s-3-1.3-3-3S214.2,158.9,215.8,158.9z"/>
				<circle class="st1-triangle" cx="215.8" cy="149.5" r="3"/>
				<circle class="st1-triangle" cx="215.8" cy="137.3" r="3"/>
				<path class="st1-triangle" d="M215.8,122c1.7,0,3,1.3,3,3s-1.3,3-3,3s-3-1.3-3-3S214.2,122,215.8,122z"/>
				<circle class="st1-triangle" cx="215.8" cy="112.7" r="3"/>
				<circle class="st1-triangle" cx="215.8" cy="100.5" r="3"/>
				<circle class="st1-triangle" cx="215.8" cy="88.2" r="3"/>
				<circle class="st1-triangle" cx="215.8" cy="76" r="3"/>
				<path class="st1-triangle" d="M215.8,60.7c1.7,0,3,1.3,3,3s-1.3,3-3,3s-3-1.3-3-3S214.2,60.7,215.8,60.7z"/>
				<circle class="st1-triangle" cx="215.8" cy="51.4" r="3"/>
				<circle class="st1-triangle" cx="215.8" cy="39.2" r="3"/>
				<path class="st1-triangle" d="M215.8,23.9c1.7,0,3,1.3,3,3s-1.3,3-3,3s-3-1.3-3-3S214.2,23.9,215.8,23.9z"/>
				<circle class="st1-triangle" cx="215.8" cy="14.6" r="3"/>
				<circle class="st1-triangle" cx="215.8" cy="2.4" r="3"/>
				<circle class="st1-triangle" cx="215.8" cy="-9.9" r="3"/>
				<circle class="st1-triangle" cx="215.8" cy="-22.2" r="3"/>
				<path class="st1-triangle" d="M228.1,355.1c1.7,0,3,1.3,3,3s-1.3,3-3,3s-3-1.3-3-3S226.5,355.1,228.1,355.1z"/>
				<circle class="st1-triangle" cx="228.1" cy="345.8" r="3"/>
				<circle class="st1-triangle" cx="228.1" cy="333.5" r="3"/>
				<path class="st1-triangle" d="M228.1,318.3c1.7,0,3,1.3,3,3s-1.3,3-3,3s-3-1.3-3-3S226.5,318.3,228.1,318.3z"/>
				<circle class="st1-triangle" cx="228.1" cy="309" r="3"/>
				<circle class="st1-triangle" cx="228.1" cy="296.7" r="3"/>
				<path class="st1-triangle" d="M228.1,281.5c1.7,0,3,1.3,3,3s-1.3,3-3,3s-3-1.3-3-3S226.5,281.5,228.1,281.5z"/>
				<circle class="st1-triangle" cx="228.1" cy="272.2" r="3"/>
				<path class="st1-triangle" d="M228.1,257c1.7,0,3,1.3,3,3s-1.3,3-3,3s-3-1.3-3-3S226.5,257,228.1,257z"/>
				<circle class="st1-triangle" cx="228.1" cy="247.7" r="3"/>
				<circle class="st1-triangle" cx="228.1" cy="235.4" r="3"/>
				<path class="st1-triangle" d="M228.1,220.2c1.7,0,3,1.3,3,3s-1.3,3-3,3s-3-1.3-3-3S226.5,220.2,228.1,220.2z"/>
				<circle class="st1-triangle" cx="228.1" cy="210.9" r="3"/>
				<circle class="st1-triangle" cx="228.1" cy="198.6" r="3"/>
				<circle class="st1-triangle" cx="228.1" cy="186.3" r="3"/>
				<circle class="st1-triangle" cx="228.1" cy="174.1" r="3"/>
				<path class="st1-triangle" d="M228.1,158.9c1.7,0,3,1.3,3,3s-1.3,3-3,3s-3-1.3-3-3S226.5,158.9,228.1,158.9z"/>
				<circle class="st1-triangle" cx="228.1" cy="149.5" r="3"/>
				<circle class="st1-triangle" cx="228.1" cy="137.3" r="3"/>
				<path class="st1-triangle" d="M228.1,122c1.7,0,3,1.3,3,3s-1.3,3-3,3s-3-1.3-3-3S226.5,122,228.1,122z"/>
				<circle class="st1-triangle" cx="228.1" cy="112.7" r="3"/>
				<circle class="st1-triangle" cx="228.1" cy="100.5" r="3"/>
				<circle class="st1-triangle" cx="228.1" cy="88.2" r="3"/>
				<circle class="st1-triangle" cx="228.1" cy="76" r="3"/>
				<path class="st1-triangle" d="M228.1,60.7c1.7,0,3,1.3,3,3s-1.3,3-3,3s-3-1.3-3-3S226.5,60.7,228.1,60.7z"/>
				<circle class="st1-triangle" cx="228.1" cy="51.4" r="3"/>
				<circle class="st1-triangle" cx="228.1" cy="39.2" r="3"/>
				<path class="st1-triangle" d="M228.1,23.9c1.7,0,3,1.3,3,3s-1.3,3-3,3s-3-1.3-3-3S226.5,23.9,228.1,23.9z"/>
				<circle class="st1-triangle" cx="228.1" cy="14.6" r="3"/>
				<circle class="st1-triangle" cx="228.1" cy="2.4" r="3"/>
				<circle class="st1-triangle" cx="228.1" cy="-9.9" r="3"/>
				<circle class="st1-triangle" cx="228.1" cy="-22.2" r="3"/>
				<path class="st1-triangle" d="M240.4,355.1c1.7,0,3,1.3,3,3s-1.3,3-3,3s-3-1.3-3-3S238.7,355.1,240.4,355.1z"/>
				<path class="st1-triangle" d="M240.4,342.8c1.7,0,3,1.3,3,3s-1.3,3-3,3s-3-1.3-3-3S238.7,342.8,240.4,342.8z"/>
				<path class="st1-triangle" d="M240.4,330.6c1.7,0,3,1.3,3,3s-1.3,3-3,3s-3-1.3-3-3S238.7,330.6,240.4,330.6z"/>
				<path class="st1-triangle" d="M240.4,318.3c1.7,0,3,1.3,3,3s-1.3,3-3,3s-3-1.3-3-3S238.7,318.3,240.4,318.3z"/>
				<path class="st1-triangle" d="M240.4,306c1.7,0,3,1.3,3,3s-1.3,3-3,3s-3-1.3-3-3S238.7,306,240.4,306z"/>
				<path class="st1-triangle" d="M240.4,293.8c1.7,0,3,1.3,3,3s-1.3,3-3,3s-3-1.3-3-3S238.7,293.8,240.4,293.8z"/>
				<path class="st1-triangle" d="M240.4,281.5c1.7,0,3,1.3,3,3s-1.3,3-3,3s-3-1.3-3-3S238.7,281.5,240.4,281.5z"/>
				<path class="st1-triangle" d="M240.4,269.2c1.7,0,3,1.3,3,3s-1.3,3-3,3s-3-1.3-3-3S238.7,269.2,240.4,269.2z"/>
				<path class="st1-triangle" d="M240.4,257c1.7,0,3,1.3,3,3s-1.3,3-3,3s-3-1.3-3-3S238.7,257,240.4,257z"/>
				<path class="st1-triangle" d="M240.4,244.7c1.7,0,3,1.3,3,3s-1.3,3-3,3s-3-1.3-3-3S238.7,244.7,240.4,244.7z"/>
				<path class="st1-triangle" d="M240.4,232.4c1.7,0,3,1.3,3,3s-1.3,3-3,3s-3-1.3-3-3S238.7,232.4,240.4,232.4z"/>
				<path class="st1-triangle" d="M240.4,220.2c1.7,0,3,1.3,3,3s-1.3,3-3,3s-3-1.3-3-3S238.7,220.2,240.4,220.2z"/>
				<path class="st1-triangle" d="M240.4,207.9c1.7,0,3,1.3,3,3s-1.3,3-3,3s-3-1.3-3-3S238.7,207.9,240.4,207.9z"/>
				<path class="st1-triangle" d="M240.4,195.6c1.7,0,3,1.3,3,3s-1.3,3-3,3s-3-1.3-3-3S238.7,195.6,240.4,195.6z"/>
				<path class="st1-triangle" d="M240.4,183.4c1.7,0,3,1.3,3,3s-1.3,3-3,3s-3-1.3-3-3S238.7,183.4,240.4,183.4z"/>
				<path class="st1-triangle" d="M240.4,171.1c1.7,0,3,1.3,3,3s-1.3,3-3,3s-3-1.3-3-3S238.7,171.1,240.4,171.1z"/>
				<path class="st1-triangle" d="M240.4,158.9c1.7,0,3,1.3,3,3s-1.3,3-3,3s-3-1.3-3-3S238.7,158.9,240.4,158.9z"/>
				<path class="st1-triangle" d="M240.4,146.6c1.7,0,3,1.3,3,3s-1.3,3-3,3s-3-1.3-3-3S238.7,146.6,240.4,146.6z"/>
				<path class="st1-triangle" d="M240.4,134.3c1.7,0,3,1.3,3,3s-1.3,3-3,3s-3-1.3-3-3S238.7,134.3,240.4,134.3z"/>
				<path class="st1-triangle" d="M240.4,122c1.7,0,3,1.3,3,3s-1.3,3-3,3s-3-1.3-3-3S238.7,122,240.4,122z"/>
				<path class="st1-triangle" d="M240.4,109.8c1.7,0,3,1.3,3,3s-1.3,3-3,3s-3-1.3-3-3S238.7,109.8,240.4,109.8z"/>
				<path class="st1-triangle" d="M240.4,97.5c1.7,0,3,1.3,3,3s-1.3,3-3,3s-3-1.3-3-3S238.7,97.5,240.4,97.5z"/>
				<path class="st1-triangle" d="M240.4,85.3c1.7,0,3,1.3,3,3s-1.3,3-3,3s-3-1.3-3-3S238.7,85.3,240.4,85.3z"/>
				<path class="st1-triangle" d="M240.4,73c1.7,0,3,1.3,3,3s-1.3,3-3,3s-3-1.3-3-3S238.7,73,240.4,73z"/>
				<path class="st1-triangle" d="M240.4,60.7c1.7,0,3,1.3,3,3s-1.3,3-3,3s-3-1.3-3-3S238.7,60.7,240.4,60.7z"/>
				<path class="st1-triangle" d="M240.4,48.5c1.7,0,3,1.3,3,3s-1.3,3-3,3s-3-1.3-3-3S238.7,48.5,240.4,48.5z"/>
				<path class="st1-triangle" d="M240.4,36.2c1.7,0,3,1.3,3,3s-1.3,3-3,3s-3-1.3-3-3S238.7,36.2,240.4,36.2z"/>
				<path class="st1-triangle" d="M240.4,23.9c1.7,0,3,1.3,3,3s-1.3,3-3,3s-3-1.3-3-3S238.7,23.9,240.4,23.9z"/>
				<path class="st1-triangle" d="M240.4,11.7c1.7,0,3,1.3,3,3s-1.3,3-3,3s-3-1.3-3-3S238.7,11.7,240.4,11.7z"/>
				<path class="st1-triangle" d="M240.4-0.6c1.7,0,3,1.3,3,3s-1.3,3-3,3s-3-1.3-3-3S238.7-0.6,240.4-0.6z"/>
				<path class="st1-triangle" d="M240.4-12.9c1.7,0,3,1.3,3,3s-1.3,3-3,3s-3-1.3-3-3S238.7-12.9,240.4-12.9z"/>
				<path class="st1-triangle" d="M240.4-25.1c1.7,0,3,1.3,3,3s-1.3,3-3,3s-3-1.3-3-3S238.7-25.1,240.4-25.1z"/>
				<path class="st1-triangle" d="M252.6,355.1c1.7,0,3,1.3,3,3s-1.3,3-3,3s-3-1.3-3-3S251,355.1,252.6,355.1z"/>
				<circle class="st1-triangle" cx="252.6" cy="345.8" r="3"/>
				<circle class="st1-triangle" cx="252.6" cy="333.5" r="3"/>
				<path class="st1-triangle" d="M252.6,318.3c1.7,0,3,1.3,3,3s-1.3,3-3,3s-3-1.3-3-3S251,318.3,252.6,318.3z"/>
				<circle class="st1-triangle" cx="252.6" cy="309" r="3"/>
				<circle class="st1-triangle" cx="252.6" cy="296.7" r="3"/>
				<path class="st1-triangle" d="M252.6,281.5c1.7,0,3,1.3,3,3s-1.3,3-3,3s-3-1.3-3-3S251,281.5,252.6,281.5z"/>
				<circle class="st1-triangle" cx="252.6" cy="272.2" r="3"/>
				<path class="st1-triangle" d="M252.6,257c1.7,0,3,1.3,3,3s-1.3,3-3,3s-3-1.3-3-3S251,257,252.6,257z"/>
				<circle class="st1-triangle" cx="252.6" cy="247.7" r="3"/>
				<circle class="st1-triangle" cx="252.6" cy="235.4" r="3"/>
				<path class="st1-triangle" d="M252.6,220.2c1.7,0,3,1.3,3,3s-1.3,3-3,3s-3-1.3-3-3S251,220.2,252.6,220.2z"/>
				<circle class="st1-triangle" cx="252.6" cy="210.9" r="3"/>
				<circle class="st1-triangle" cx="252.6" cy="198.6" r="3"/>
				<circle class="st1-triangle" cx="252.6" cy="186.3" r="3"/>
				<circle class="st1-triangle" cx="252.6" cy="174.1" r="3"/>
				<path class="st1-triangle" d="M252.6,158.9c1.7,0,3,1.3,3,3s-1.3,3-3,3s-3-1.3-3-3S251,158.9,252.6,158.9z"/>
				<circle class="st1-triangle" cx="252.6" cy="149.5" r="3"/>
				<circle class="st1-triangle" cx="252.6" cy="137.3" r="3"/>
				<path class="st1-triangle" d="M252.6,122c1.7,0,3,1.3,3,3s-1.3,3-3,3s-3-1.3-3-3S251,122,252.6,122z"/>
				<circle class="st1-triangle" cx="252.6" cy="112.7" r="3"/>
				<circle class="st1-triangle" cx="252.6" cy="100.5" r="3"/>
				<circle class="st1-triangle" cx="252.6" cy="88.2" r="3"/>
				<circle class="st1-triangle" cx="252.6" cy="76" r="3"/>
				<path class="st1-triangle" d="M252.6,60.7c1.7,0,3,1.3,3,3s-1.3,3-3,3s-3-1.3-3-3S251,60.7,252.6,60.7z"/>
				<circle class="st1-triangle" cx="252.6" cy="51.4" r="3"/>
				<circle class="st1-triangle" cx="252.6" cy="39.2" r="3"/>
				<path class="st1-triangle" d="M252.6,23.9c1.7,0,3,1.3,3,3s-1.3,3-3,3s-3-1.3-3-3S251,23.9,252.6,23.9z"/>
				<circle class="st1-triangle" cx="252.6" cy="14.6" r="3"/>
				<circle class="st1-triangle" cx="252.6" cy="2.4" r="3"/>
				<circle class="st1-triangle" cx="252.6" cy="-9.9" r="3"/>
				<circle class="st1-triangle" cx="252.6" cy="-22.2" r="3"/>
				<path class="st1-triangle" d="M264.9,355.1c1.7,0,3,1.3,3,3s-1.3,3-3,3s-3-1.3-3-3S263.2,355.1,264.9,355.1z"/>
				<circle class="st1-triangle" cx="264.9" cy="345.8" r="3"/>
				<circle class="st1-triangle" cx="264.9" cy="333.5" r="3"/>
				<path class="st1-triangle" d="M264.9,318.3c1.7,0,3,1.3,3,3s-1.3,3-3,3s-3-1.3-3-3S263.2,318.3,264.9,318.3z"/>
				<circle class="st1-triangle" cx="264.9" cy="309" r="3"/>
				<circle class="st1-triangle" cx="264.9" cy="296.7" r="3"/>
				<path class="st1-triangle" d="M264.9,281.5c1.7,0,3,1.3,3,3s-1.3,3-3,3s-3-1.3-3-3S263.2,281.5,264.9,281.5z"/>
				<circle class="st1-triangle" cx="264.9" cy="272.2" r="3"/>
				<path class="st1-triangle" d="M264.9,257c1.7,0,3,1.3,3,3s-1.3,3-3,3s-3-1.3-3-3S263.2,257,264.9,257z"/>
				<circle class="st1-triangle" cx="264.9" cy="247.7" r="3"/>
				<circle class="st1-triangle" cx="264.9" cy="235.4" r="3"/>
				<path class="st1-triangle" d="M264.9,220.2c1.7,0,3,1.3,3,3s-1.3,3-3,3s-3-1.3-3-3S263.2,220.2,264.9,220.2z"/>
				<circle class="st1-triangle" cx="264.9" cy="210.9" r="3"/>
				<circle class="st1-triangle" cx="264.9" cy="198.6" r="3"/>
				<circle class="st1-triangle" cx="264.9" cy="186.3" r="3"/>
				<circle class="st1-triangle" cx="264.9" cy="174.1" r="3"/>
				<path class="st1-triangle" d="M264.9,158.9c1.7,0,3,1.3,3,3s-1.3,3-3,3s-3-1.3-3-3S263.2,158.9,264.9,158.9z"/>
				<circle class="st1-triangle" cx="264.9" cy="149.5" r="3"/>
				<circle class="st1-triangle" cx="264.9" cy="137.3" r="3"/>
				<path class="st1-triangle" d="M264.9,122c1.7,0,3,1.3,3,3s-1.3,3-3,3s-3-1.3-3-3S263.2,122,264.9,122z"/>
				<circle class="st1-triangle" cx="264.9" cy="112.7" r="3"/>
				<circle class="st1-triangle" cx="264.9" cy="100.5" r="3"/>
				<circle class="st1-triangle" cx="264.9" cy="88.2" r="3"/>
				<circle class="st1-triangle" cx="264.9" cy="76" r="3"/>
				<path class="st1-triangle" d="M264.9,60.7c1.7,0,3,1.3,3,3s-1.3,3-3,3s-3-1.3-3-3S263.2,60.7,264.9,60.7z"/>
				<circle class="st1-triangle" cx="264.9" cy="51.4" r="3"/>
				<circle class="st1-triangle" cx="264.9" cy="39.2" r="3"/>
				<path class="st1-triangle" d="M264.9,23.9c1.7,0,3,1.3,3,3s-1.3,3-3,3s-3-1.3-3-3S263.2,23.9,264.9,23.9z"/>
				<circle class="st1-triangle" cx="264.9" cy="14.6" r="3"/>
				<circle class="st1-triangle" cx="264.9" cy="2.4" r="3"/>
				<circle class="st1-triangle" cx="264.9" cy="-9.9" r="3"/>
				<circle class="st1-triangle" cx="264.9" cy="-22.2" r="3"/>
			</g>
		</g>
	</g>
</g>
</svg>
