<svg xmlns="http://www.w3.org/2000/svg" viewBox="0 0 147.44 62.97"><defs><style>.cls-1{opacity:0.6;}.cls-2{opacity:0.49;}.cls-3{fill:#030404;}</style></defs><title>Ресурс 40news-logo</title><g id="Слой_2" data-name="Слой 2"><g id="Layer_1" data-name="Layer 1"><g class="cls-1"><g class="cls-2"><path class="cls-3" d="M0,27.39V54.64H39.28l2.65,1.47C47.56,59.22,54.44,63,54.48,63s0-3.18,0-7.07V48.83H48.71v2.25l0,2.24-3.83-2.11c-2.1-1.14-3.93-2.15-4.05-2.24s-1.37-.15-17.6-.15H5.84V6H48.7v30.1H44.05c-3.69,0-4.63,0-4.58-.11s.29-.43.55-.84a15.5,15.5,0,0,0,2.27-5.63,18.33,18.33,0,0,0,0-5.23,15,15,0,0,0-29.55,0,18.33,18.33,0,0,0,0,5.23A15,15,0,0,0,26.12,41.79c.58.06,5.67.08,14.64.08H54.51V.14H0V27.39ZM29.11,17.8a9.18,9.18,0,1,1-3.21,0A11.51,11.51,0,0,1,29.11,17.8Z"/><path class="cls-3" d="M87.87.29a3.64,3.64,0,0,0-2.18,2.18c-.3.76-.34,1.58-.34,6.26,0,5.2,0,5.39.41,6.17a4.31,4.31,0,0,0,4.18,2.17c2.09,0,3.64-.83,4.26-2.28A11.59,11.59,0,0,0,94.59,12l.11-2.17H90.81v1.09c0,1.69-.33,2.53-.75,2.77s-.31.14-.6-.14-.36-.64-.36-4.9c0-3.89,0-4.6.3-4.85s.49-.39.9-.09c.24.17.36.68.44,1.73l.14,1.5h3.58V5c0-2.79-.44-3.7-2.2-4.52A6.86,6.86,0,0,0,87.87.29Z"/><path class="cls-3" d="M60,8.52v8.36h3.11c3.79,0,4.37-.2,5.26-1.79.54-.95.55-1.11.55-3.39,0-2.64-.15-3.14-1.25-3.79l-.53-.35.55-.33c.88-.5,1.19-1.45,1.09-3.43-.08-1.8-.3-2.32-1.38-3.11-.49-.36-.85-.4-4-.46L60,.15Zm4.78-5.45c.21.14.29.51.29,1.4,0,1.35-.26,1.85-1,1.85-.44,0-.46,0-.46-1.73s0-1.74.45-1.74a1.27,1.27,0,0,1,.45.07A1.37,1.37,0,0,1,64.73,3.07Zm.09,6.2c.26.19.38.6.44,1.6.14,1.85,0,2.63-.64,2.89-1,.49-1,.45-1-2.27C63.58,9,63.58,9,64,9A1.78,1.78,0,0,1,64.82,9.27Z"/><path class="cls-3" d="M70.67,8.53v8.35h3.64V.19H70.65l0,8.34Z"/><path class="cls-3" d="M75.81,1.82V3.46h2.11V16.88h3.84V3.46h2.11V.19H75.81Z"/><path class="cls-3" d="M96.83,8.55v8.21a.13.13,0,0,0,.12.13h3.42a.13.13,0,0,0,.13-.13V13.15c0-4,0-4.22.94-3.73.38.19.4.36.4,3.83v3.51a.12.12,0,0,0,.12.13h3.6a.12.12,0,0,0,.12-.13V13.43c0-3.71-.15-4.57-.94-5-.4-.21-.4-.21.16-.69.83-.69,1-1.55.94-3.64s-.45-2.78-1.5-3.47c-.59-.42-.83-.45-4-.45H97a.13.13,0,0,0-.13.13V8.55Zm5.09-4.85a3.64,3.64,0,0,1-.1,2.31.91.91,0,0,1-.7.34c-.44,0-.51-.2-.51-1.7V3.29c0-.13,0-.35.19-.35l.31,0,.23,0c.29,0,.49.4.56.66Z"/><path class="cls-3" d="M106.86.27s.65,2.54,1.44,5.55l1.44,5.47v5.59h3.65V11.29l1.44-5.47c.79-3,1.44-5.52,1.44-5.55a15.42,15.42,0,0,0-1.88-.08h-1.88l-.36,2.14c-.56,3.39-.56,3.39-1.06.49L110.64.19h-1.88A11.8,11.8,0,0,0,106.86.27Z"/><path class="cls-3" d="M117.86,8.53v8.35h3.65V10.15h1.3c1.83,0,2.84-.54,3.49-1.82.41-.86.48-1.19.45-3.08,0-2.89-.48-4-2.08-4.71-.64-.31-1.26-.36-3.78-.36h-3V8.53Zm4.79-4.88c.3.3.38.64.38,1.53,0,1.25-.4,1.93-1.14,1.93-.36,0-.39-.14-.39-1.93s0-1.82.4-1.86A1,1,0,0,1,122.65,3.65Z"/><path class="cls-3" d="M128.17,1.82V3.46h2.1V16.88h3.85V3.46h2.1V.19h-8.05Z"/><path class="cls-3" d="M135.42,21.26a7.75,7.75,0,0,0-5.1,3.61,11.28,11.28,0,0,0-.87,6.53c.57,2.81,1.4,3.89,6.33,8.22,2.62,2.31,3.29,3,3.8,4.05.79,1.61.76,3.75-.07,4.54a1.54,1.54,0,0,1-1.77.31c-.82-.42-1.13-1.72-1.15-4.56V42.35h-7.33v2c0,4.62.65,6.93,2.41,8.7,1.46,1.47,3.32,2.1,6.44,2.23,5.14.21,7.92-1.69,9-6.12a13.21,13.21,0,0,0,.31-3.87c0-3-.08-3.49-1.14-5.53-.85-1.65-2-2.84-5.42-5.61-3.68-3-4.43-3.82-4.43-5a1.63,1.63,0,0,1,2.81-1.1,1.35,1.35,0,0,1,.38,1.14,8.38,8.38,0,0,0,.08,1.23l.1.53h7.47l-.09-1.49c-.27-4.67-2.18-7.27-6.06-8.19A17.15,17.15,0,0,0,135.42,21.26Z"/><path class="cls-3" d="M60,38.13v16.8h7.33V46.8c0-8.11,0-8.12.27-7.08.13.56.94,4.23,1.79,8.12l1.57,7.09h7.29V21.32H71l0,7.83L71,37l-1.67-7.81-1.64-7.83H60Z"/><path class="cls-3" d="M81.81,38.13v16.8H97.16v-6.5H89.41V40.69h7.06V34.32H89.41v-6.5h7.34v-6.5H81.81Z"/><path class="cls-3" d="M98.48,21.9c0,.33.91,7.69,1.93,16.36s1.9,16,1.94,16.23l.08.44,4.53,0,4.52,0,.83-7.64c.46-4.19.86-7.67.9-7.71s1.83,14.9,1.8,15.3a42.94,42.94,0,0,0,4.5.11c2.47,0,4.49,0,4.49-.06s.9-7.57,2-16.73,2-16.7,2-16.75-1.64-.07-3.65-.07H120.7l-.07.58c-.06.33-.5,5-1,10.35S118.72,42,118.7,42s-.47-4.62-1-10.33l-1-10.36h-6.95l-.13,1.41c-.09.79-.54,5.45-1,10.37s-.9,8.94-.91,8.93-2-20.08-2-20.45-.14-.26-3.68-.26H98.39Z"/><path class="cls-3" d="M147,10c0,1.65,0,2.8-.11,3.48a4.17,4.17,0,0,1-.69,1.86,3.74,3.74,0,0,1-1.58,1.3,5.43,5.43,0,0,1-2.32.45,5.91,5.91,0,0,1-2.26-.43,3.77,3.77,0,0,1-1.6-1.29,3.82,3.82,0,0,1-.72-1.85A31,31,0,0,1,137.6,10V7.23c0-1.64,0-2.79.11-3.47a4.2,4.2,0,0,1,.69-1.87A3.82,3.82,0,0,1,140,.59a5.63,5.63,0,0,1,2.33-.44,5.71,5.71,0,0,1,2.25.43,3.91,3.91,0,0,1,1.61,1.28,3.81,3.81,0,0,1,.71,1.86A30.84,30.84,0,0,1,147,7.23V10Zm-4.07-5.34a5.23,5.23,0,0,0-.12-1.45.48.48,0,0,0-.5-.32.56.56,0,0,0-.49.26,4,4,0,0,0-.16,1.53v7.59a7.9,7.9,0,0,0,.11,1.75.48.48,0,0,0,.51.33.51.51,0,0,0,.53-.38,8,8,0,0,0,.12-1.81V4.67Z"/></g></g></g></g></svg>