<svg xmlns="http://www.w3.org/2000/svg" viewBox="0 0 272.38 74.85"><defs><style>.cls-1{opacity:0.6;}.cls-2{opacity:0.49;}.cls-3,.cls-4{fill:#030404;}.cls-4{fill-opacity:0.3;}</style></defs><title>Слой_1bitsmedia</title><g id="Слой_2" data-name="Слой 2"><g id="Layer_1" data-name="Layer 1"><g class="cls-1"><g id="Слой_1-2" data-name="Слой_1" class="cls-2"><path id="_Контур_" data-name="&lt;Контур&gt;" class="cls-3" d="M32.58,33.11c2.88-.13,6.51-1.15,6.51-4.57,0-3.63-4.58-4-7.25-4-1.33,0-2.85.17-2.85.17v8.57A22.6,22.6,0,0,1,32.58,33.11Z"/><path id="_Контур_2" data-name="&lt;Контур&gt;" class="cls-3" d="M34.11,37.49a43.36,43.36,0,0,0-4.95,0V47s2.88.13,4.95,0c3-.17,7.42-.89,7.25-4.75C41.23,38.57,37.16,37.76,34.11,37.49Z"/><path id="_Составной_контур_" data-name="&lt;Составной контур&gt;" class="cls-3" d="M64.82,4.7A114,114,0,0,0,0,4.7V40.91C0,55.22,12.37,68.17,32.41,74.85h0c20-6.68,32.41-19.83,32.41-33.94V4.7ZM46.31,49.49a14.19,14.19,0,0,1-6.68,2.31c-.54,0-1.69.17-2.84.17v7.25H32.41v-7H29v7H24.58v-7H16L17,46.85h2.68c.95,0,1.32,0,1.73-.41a1.82,1.82,0,0,0,.37-1.32V26.81c0-1.12,0-1.53-.57-2.07a3.66,3.66,0,0,0-2.48-.58H16V19.59h8.58v-7H29v7.05h3.42v-7h4.38v7.22c3.25.2,5.72.78,7.83,2.47a7.35,7.35,0,0,1,2.47,6.51,6.91,6.91,0,0,1-1.15,3.43,9.4,9.4,0,0,1-2.48,2.1,9.66,9.66,0,0,1,3.63,1.52c1.53,1.12,2.65,3.05,2.48,6.07C49.57,44.74,49,47.8,46.31,49.49Z"/><path id="_Составной_контур_2" data-name="&lt;Составной контур&gt;" class="cls-3" d="M79.88,53c-.78,0-1.5,0-2.17-.07a19.48,19.48,0,0,1-2.51-.34A15.5,15.5,0,0,1,73.26,52c-.67-.2-1.39-.48-2.16-.78l7.25-30.68,6.48-.95L82.15,30.44a15.6,15.6,0,0,1,2.37-.61,10.26,10.26,0,0,1,2.68-.17,7.89,7.89,0,0,1,2.14.47,6.17,6.17,0,0,1,2.06,1.29A7.82,7.82,0,0,1,92.62,33a12.9,12.9,0,0,1,.95,2.61c.1.51.17,1,.24,1.5a13.7,13.7,0,0,1,0,2.64,12.89,12.89,0,0,1-.5,2.85,14.94,14.94,0,0,1-1.12,2.85,11.91,11.91,0,0,1-1,1.66A14.4,14.4,0,0,1,88,50.41a14.33,14.33,0,0,1-2.48,1.39,13.3,13.3,0,0,1-2.51.78A13.59,13.59,0,0,1,79.88,53ZM81.4,35.79,78.52,47.42a10.33,10.33,0,0,0,1.42.14,7.47,7.47,0,0,0,1,0,5.06,5.06,0,0,0,1.49-.3,7.2,7.2,0,0,0,1.23-.51,10.2,10.2,0,0,0,1.25-.85,10.65,10.65,0,0,0,1-1.08,10.93,10.93,0,0,0,.92-1.43,10,10,0,0,0,.67-1.56c.14-.44.24-.88.34-1.28s.11-.92.14-1.33a7.45,7.45,0,0,0-.17-1.59A5.07,5.07,0,0,0,87.1,36a3.39,3.39,0,0,0-.78-.78,3.71,3.71,0,0,0-1.46-.65,3.94,3.94,0,0,0-1.76.14A4.22,4.22,0,0,0,81.4,35.79Z"/><path id="_Составной_контур_3" data-name="&lt;Составной контур&gt;" class="cls-3" d="M101,52.17h-6.3l5.35-22.31h6.27Zm3-25A3.16,3.16,0,0,1,100.66,24,4.47,4.47,0,0,1,105,19.59a3.13,3.13,0,0,1,3.43,3.22A4.51,4.51,0,0,1,104.08,27.22Z"/><path id="_Контур_3" data-name="&lt;Контур&gt;" class="cls-3" d="M112.46,24.33l6.47-.95-1.52,6.48h7L123.14,35h-6.85l-1.93,7.84c-.17.74-.55,2.67-.17,3.42A3,3,0,0,0,117,47.59a11.53,11.53,0,0,0,3.84-.74l.37,4.74a18,18,0,0,1-6.1,1.15c-2.41,0-5.87-.71-6.89-3.25-.88-2.2-.51-5.15,0-7.42Z"/><path id="_Контур_4" data-name="&lt;Контур&gt;" class="cls-3" d="M136.29,45.9c0-1.77-3.66-3-5-3.9-2-1.32-3.35-2.58-3.35-5.09,0-5.63,4.88-7.22,9.69-7.22a15.16,15.16,0,0,1,6.89,1.7l-2.11,4.78a11.42,11.42,0,0,0-4.95-1.36c-1.22,0-3.45,0-3.45,1.73,0,2.61,8.2,2.81,8.2,9.36,0,5.39-5.32,7.22-9.9,7.22a16.77,16.77,0,0,1-8.2-1.9l2.1-4.78A15,15,0,0,0,132.46,48C134.53,48,136.29,47.63,136.29,45.9Z"/><path id="_Контур_5" data-name="&lt;Контур&gt;" class="cls-3" d="M161.24,31c3.36-1.12,5.09-1.73,8.78-1.73a8.29,8.29,0,0,1,5.9,2.11,11.81,11.81,0,0,1,6.68-2.11c4.88,0,7.73,2.65,7.43,7.46-.24,3.77-2.55,11.6-3.43,15.23h-6.27l3-13.13c.44-2,0-4.57-2.47-4.57a11.26,11.26,0,0,0-3.26.95,19,19,0,0,1-.57,4.37l-2.85,12h-6.31L171,38.44c.48-2,0-4.58-2.47-4.58-.81,0-1.66.2-2.27.2l-4,17.16h-6.31Z"/><path id="_Составной_контур_4" data-name="&lt;Составной контур&gt;" class="cls-3" d="M192.33,43.39c0-7.46,5.56-14.11,13.33-14.11,3.69,0,7.05,2.14,7.05,6.11,0,5-4,7.25-8.38,8.2a26.82,26.82,0,0,1-5.52.37c.47,2.75,2,3.26,4.58,3.26a12.93,12.93,0,0,0,5.32-.95l.41,4.95c-2.41,1.19-9,1.52-11.46.37A9.35,9.35,0,0,1,192.33,43.39Zm12.38-9c-3.36,0-5.16,2.54-5.9,5.52a24.51,24.51,0,0,0,4.2-.37c1.49-.27,4-1.39,4-3.25C207,35,206.23,34.44,204.71,34.44Z"/><path id="_Составной_контур_5" data-name="&lt;Составной контур&gt;" class="cls-3" d="M221.69,52.74a7.72,7.72,0,0,1-6.1-2.67c-2.34-3.12-2.2-8.38-.78-11.8a13.42,13.42,0,0,1,12.78-8.58c.95,0,1.9.17,2.68.17l2.27-9.53,6.48-.95-5.53,23.26c-.78,3.39-.37,5.83.58,9.16l-5.53.74a11.4,11.4,0,0,1-.74-2.1A10.22,10.22,0,0,1,221.69,52.74ZM229.12,35H227c-4.14,0-6.68,4.68-6.68,8.38,0,2.3.54,4.41,3.25,4.41A4.58,4.58,0,0,0,227,46.07a36.65,36.65,0,0,1,.57-4.38Z"/><path id="_Составной_контур_6" data-name="&lt;Составной контур&gt;" class="cls-3" d="M243.43,52.17h-6.31l5.36-22.31h6.27Zm3-25A3.19,3.19,0,0,1,243,24a4.5,4.5,0,0,1,4.41-4.37,3.15,3.15,0,0,1,3.42,3.22A4.5,4.5,0,0,1,246.48,27.22Z"/><path id="_Составной_контур_7" data-name="&lt;Составной контур&gt;" class="cls-3" d="M269.53,42.64c-.85,3.46-.37,5.83.58,9.16l-5.53.74a10.78,10.78,0,0,1-.78-2.1,9.11,9.11,0,0,1-5.9,2.1c-8.07,0-9.22-8.64-6.85-14.68,2.51-6.44,7.12-8.75,13.9-8.75a20.09,20.09,0,0,1,7.43,1.7Zm-4.37-7.83c-.55,0-1.32-.17-2.1-.17-4.14,0-6.89,4.85-6.89,8.58,0,2.3.55,4.37,3.26,4.37a4.6,4.6,0,0,0,3.42-1.69,23.54,23.54,0,0,1,.58-4.41Z"/><path id="_Контур_6" data-name="&lt;Контур&gt;" class="cls-4" d="M30.68.13c3.26.37,33.74,5.73,33.74,44a15.64,15.64,0,0,0,.2-3.05V4.91A108.09,108.09,0,0,0,30.68.13Z"/><path id="_Контур_7" data-name="&lt;Контур&gt;" class="cls-3" d="M149.24,52.17A3.15,3.15,0,0,1,145.82,49a4.53,4.53,0,0,1,4.37-4.41,3.19,3.19,0,0,1,3.46,3.26A4.53,4.53,0,0,1,149.24,52.17Z"/></g></g></g></g></svg>