<svg xmlns="http://www.w3.org/2000/svg" viewBox="0 0 150.98 39.5"><defs><style>.cls-1{opacity:0.6;}.cls-2{opacity:0.49;}.cls-3{fill:#030404;}</style></defs><title>Ресурс 46news-logo</title><g id="Слой_2" data-name="Слой 2"><g id="Layer_1" data-name="Layer 1"><g class="cls-1"><g class="cls-2"><path class="cls-3" d="M53.53,22.85c-.57-4.81-2.61-8.34-6-10.32a15.07,15.07,0,0,0-13.48-.31,13.12,13.12,0,0,0-6.37,7.54,19.42,19.42,0,0,0,0,11.15,12.1,12.1,0,0,0,3.12,5.24,11.78,11.78,0,0,0,6.69,3.24,29.57,29.57,0,0,0,4.89,0A16.25,16.25,0,0,0,44.17,39c4.78-1.38,8-5,9.15-10.3A25.18,25.18,0,0,0,53.53,22.85Zm-8.15,5.79c-.36,5.06-1.46,7.81-3.51,8.77a4,4,0,0,1-2.78,0c-1.78-.81-3.05-3.26-3.68-7.15a49.05,49.05,0,0,1-.07-10.64c.51-3.77,1.6-6,3.29-6.76a3.72,3.72,0,0,1,3.79.72C44.72,15.69,45.88,21.58,45.38,28.64Z"/><path class="cls-3" d="M93.81,11.33a9.83,9.83,0,0,0-2.46-.12,11.14,11.14,0,0,0-4.56,1,9,9,0,0,1-.9.39s0-2.83,0-6.29c0-4.88,0-6.3-.06-6.3C85.48,0,74.4,2.11,74.28,2.21s-.13.3-.11.66c0,.61,0,.56,1.31.87a3.9,3.9,0,0,1,1.06.39,3.52,3.52,0,0,1,1.08,2c.21.79.24,1.35.33,6.67s.08,11-.07,21.23l-.06,4.25.79.18c1.15.26,4.44.81,5.52.92a40.21,40.21,0,0,0,6.43,0,13.14,13.14,0,0,0,10.72-8.24,20.28,20.28,0,0,0,1.09-4.42,26.08,26.08,0,0,0-.2-6.12C101.09,15.62,98,12.19,93.81,11.33Zm.27,17.16a15.4,15.4,0,0,1-2.67,7.18A5.57,5.57,0,0,1,89,37.4a8.37,8.37,0,0,1-2.59.08.94.94,0,0,1-.52-.19c-.19-.22-.39-15-.26-19.27l.09-3.42.87-.25a5.4,5.4,0,0,1,3.64.15c2,.93,3.26,3.23,3.93,7A36.55,36.55,0,0,1,94.08,28.49Z"/><path class="cls-3" d="M122.91,11.85c-3-1.5-7.58-1.39-11,.25a12.77,12.77,0,0,0-6.62,7.82,15.56,15.56,0,0,0-.77,5.92,16,16,0,0,0,.27,3.09c1.26,5.62,5.11,9.44,10.5,10.41a20.48,20.48,0,0,0,5.07,0,13.76,13.76,0,0,0,4.93-1.91c1.52-1,3.08-2.56,3.08-3,0-.29-.52-1-.75-1a3.77,3.77,0,0,0-.94.49,8.27,8.27,0,0,1-4.88,1.36,7.78,7.78,0,0,1-6.19-2.43,7,7,0,0,1-1.48-2,13.51,13.51,0,0,1-1.42-5.83l0-.95,8,0,8,0,0-.54a15.33,15.33,0,0,0-.08-1.73C128.25,16.89,126.27,13.53,122.91,11.85Zm-3.19,10c-2.26.13-7.13.19-7.19.09a16,16,0,0,1,.32-3.06,10.32,10.32,0,0,1,2.32-5.23,2.86,2.86,0,0,1,1.3-.89,4.23,4.23,0,0,1,.81-.18,2.49,2.49,0,0,1,1.53.66c1.17,1.08,1.84,3.41,2,6.85l.06,1.7Z"/><path class="cls-3" d="M150.27,26.7c-.91-1.83-2.59-3.08-6.11-4.55-2.88-1.2-4.32-2-5.2-3a3,3,0,0,1-.86-2.58,3.49,3.49,0,0,1,1-2.45,3.54,3.54,0,0,1,3.49-.95c2.35.5,3.85,2.12,5.15,5.56.46,1.22.51,1.26,1.34.95l.53-.19,0-1.42c0-.77,0-2.4-.09-3.62l-.07-2.21-.39-.16a22.26,22.26,0,0,0-8.9-1.23,10.43,10.43,0,0,0-7,3,8,8,0,0,0-2.33,6.28,6.84,6.84,0,0,0,2,4.77c1.16,1.19,2.14,1.75,4.93,2.84,4.51,1.76,5.7,2.81,5.69,5a3.84,3.84,0,0,1-2.75,3.8,7.3,7.3,0,0,1-3.09,0c-2.24-.6-4-2.54-5.42-6.14l-.37-.92-.44,0a2.24,2.24,0,0,0-.74.17l-.3.14,0,1.57c0,.87.05,2.69.09,4.06l.07,2.47.5.22a30,30,0,0,0,6,1.32c.24,0,1.55,0,2.93,0a11.62,11.62,0,0,0,3.75-.35c3.54-.93,5.83-2.9,6.84-5.89a6.69,6.69,0,0,0,.4-2.57A7.21,7.21,0,0,0,150.27,26.7Z"/><path class="cls-3" d="M14.35,3.69h3.42c3.92,0,4.57.09,6,.77,2,1,3.48,2.94,4.77,6.34.52,1.39.51,1.38,1.68,1l.77-.24-.07-5c0-2.76-.1-5.21-.14-5.45L30.67.71l-15,0C7.45.66.55.67.36.71L0,.77l0,.89,0,.89,1.14.14A3.72,3.72,0,0,1,4.09,4.05c1.18,1.72,1.4,4.07,1.39,15.22,0,11.87-.25,14.76-1.39,16.26a3.15,3.15,0,0,1-2.4,1.27C0,37.12,0,37.08,0,38c0,.5,0,.77.13.81s19.36.08,19.56,0,.25-1.52,0-1.66a10.28,10.28,0,0,0-1.44-.28,9.85,9.85,0,0,1-1.68-.38c-1.25-.55-1.95-2.06-2.21-4.79-.19-2-.34-5.57-.34-8.24V21l1.17,0a15.58,15.58,0,0,1,4.29.43c1.12.5,2,1.89,2.5,3.82l.25,1,.89,0,.89,0v-13l-.89,0-.88,0-.26,1c-.51,2-1.32,3.22-2.53,3.78a4.92,4.92,0,0,1-2,.36c-.77,0-1.86.08-2.41.09H14V15.44c0-3.23.17-10.11.28-11.18Z"/><path class="cls-3" d="M73.11,10.75a6.14,6.14,0,0,0-3,.61,9.7,9.7,0,0,0-4.5,4.49l-.39.71,0-1.25c0-.69.07-2,.1-2.85l0-1.6h-.26c-.35,0-11.1,2.15-11.42,2.28s-.25.18-.25.7,0,.6.25.65l1.09.21c1,.18,1.24.33,1.63.85.72,1,.87,2.65.86,9.8,0,5.85-.13,8.76-.4,9.67a2.39,2.39,0,0,1-2,1.88l-1,.2-.38.08,0,.75c0,.53,0,.78.11.84s3.76.08,8.17.06l8,0,0-.84a2,2,0,0,0-.06-.85A16.75,16.75,0,0,1,67,36.74c-.91-.38-1.35-1.2-1.54-2.85-.22-1.93-.35-6.75-.29-10.7s.06-4,.31-4.27a5.24,5.24,0,0,1,3.38-1.12,7.7,7.7,0,0,1,3.31.83,4.26,4.26,0,0,0,1.15.44c.14-.05,2.78-7,2.78-7.35C76.1,11.24,74.6,10.75,73.11,10.75Z"/></g></g></g></g></svg>