<svg xmlns="http://www.w3.org/2000/svg" viewBox="0 0 142.93 32.52"><defs><style>.cls-1{opacity:0.6;}.cls-2{opacity:0.49;}.cls-3{fill:#030404;}</style></defs><title>Ресурс 44news-logo</title><g id="Слой_2" data-name="Слой 2"><g id="Layer_1" data-name="Layer 1"><g class="cls-1"><g class="cls-2"><path class="cls-3" d="M51.47,26.94c-6,0-10.34-4.88-10.34-10.89S45.4,4.89,51.65,4.89A11.53,11.53,0,0,1,58.1,6.61v5.27h5.17V4.19l-1-.77A18.46,18.46,0,0,0,51.47,0a16.06,16.06,0,0,0,0,32.11,15.3,15.3,0,0,0,12.76-6.32l-4.1-3.13A10.83,10.83,0,0,1,51.47,26.94Zm87.43-.27-.18-7.4v-18H128V6.39h5.33V18.62c0,5.28-4,9-8.1,9S119,24.81,119,19.53V1.22H108.93V6.39h4.62V20.45c0,7.15,4,12.07,11.17,12.07a10.07,10.07,0,0,0,9.11-5.8h.09l.73,4.92h8.28v-5h-4ZM17.45,23.42h-.12L9.56.76H0V5.92H5.38l9.25,25.83h4.92L29.2,5.92h5V.76h-9Zm50.87,8.39h5.31V26.5H68.32ZM88.85,7.21h-.06l-.34-6H79V5.93H84V26.66H79v5h23.45V26.75h-13V14.24c.59-4.53,4-8.4,8.62-8.4h.08L98,10.47h5.17V1.12H99.07A11.53,11.53,0,0,0,88.85,7.21Z"/></g></g></g></g></svg>