<svg xmlns="http://www.w3.org/2000/svg" viewBox="0 0 436.26 70.49">
    <defs>
        <style>
        .cls-logo {
            fill: #2c4141;
        }
        </style>
    </defs>
    <title>Ресурс 6</title>
    <g id="Слой_2" data-name="Слой 2">
        <g id="Layer_1" data-name="Layer 1">
            <path class="cls-logo" d="M0,49.84l3.34-7.19A46,46,0,0,0,23.8,47.37c10.44,0,16.39-3.26,16.39-8.2,0-6.6-7.4-7.61-15.89-8.48C13.93,29.52,1.09,28.51,1.09,16c0-9.87,10.15-16,23.72-16A56.47,56.47,0,0,1,46.28,4.28l-3.11,7.18A48.38,48.38,0,0,0,24.81,7.69c-9.36,0-15.6,2.54-15.6,8.34s7.84,6.46,15.24,7.25c11,1.1,23.93,3,23.93,15.89,0,9.87-10.59,16.25-24.58,16.25A52.23,52.23,0,0,1,0,49.84" />
            <path class="cls-logo" d="M137.92,31.63V1h8V31.63a15.56,15.56,0,0,0,31.12,0V1h8V31.63a23.54,23.54,0,0,1-47.08,0" />
            <path class="cls-logo" d="M287.75,35.84H273.88a.13.13,0,0,0-.13.13V54.62h-8V1h25.07c9.06,0,17.39,6.31,18.63,15.28a16.79,16.79,0,0,1-12.91,19.06.12.12,0,0,0-.08.19l13.46,19.14h-9a.12.12,0,0,1-.1,0l-13-18.68a.13.13,0,0,0-.11,0m-14-7.6a.13.13,0,0,0,.13.13H292c6.92,0,11.78-6.63,8.84-13.72-1.51-3.65-5.4-5.73-9.35-5.73H273.88a.13.13,0,0,0-.13.13Z" />
            <polygon class="cls-logo" points="337.96 8.92 337.96 23.8 369.08 23.8 369.08 31.78 337.96 31.78 337.96 46.65 371.26 46.65 371.26 54.63 329.98 54.63 329.98 0.95 371.26 0.95 371.26 8.92 337.96 8.92" />
            <polygon class="cls-logo" points="416.53 27.79 436.26 54.62 426.68 54.62 411.74 34.31 396.8 54.62 387.22 54.62 406.95 27.79 387.22 0.95 396.8 0.95 411.74 21.26 426.68 0.95 436.26 0.95 416.53 27.79" />
            <rect class="cls-logo" x="208.81" y="37.8" width="30.37" height="7.47" />
            <polygon class="cls-logo" points="221.03 0.94 198.07 54.63 207 54.63 224.04 14.87 240.87 54.63 249.79 54.63 227.04 0.94 221.03 0.94" />
            <rect class="cls-logo" x="65.32" y="0.95" width="7.94" height="53.67" />
            <rect class="cls-logo" x="104.48" y="62.54" width="7.94" height="7.95" />
            <rect class="cls-logo" x="112.15" y="0.95" width="7.94" height="53.67" />
            <rect class="cls-logo" x="65.59" y="0.94" width="53.67" height="7.94" />
            <rect class="cls-logo" x="65.59" y="46.61" width="53.67" height="7.94" />
        </g>
    </g>
</svg>